<svg xmlns="http://www.w3.org/2000/svg" width="84.273" height="53.898" viewBox="0 0 84.273 53.898">
  <g id="logo" transform="translate(-246.28 -139.774)">
    <path id="Path_3" data-name="Path 3" d="M277.658,143.838a54.941,54.941,0,0,1,.272,6.659q.174,5.51.388,11.018a2.151,2.151,0,0,0,.176.533,1.967,1.967,0,0,1,1.708-.732c1.9.344,1.359-1.123,1.5-1.746.606-2.629.99-5.3,1.436-7.954.06-.361-.059-.748.023-1.1a1.01,1.01,0,0,1,1.438-.727c.8.267,1.321.957,1.078,1.611-.6,1.631-.459,3.306-.619,4.957a37.838,37.838,0,0,0,.43,9.648c0-1.49.007-2.981,0-4.471-.006-.941-.012-1.883-.066-2.822-.033-.568.136-1.093.762-1.215a1.367,1.367,0,0,1,1.544.783c.431,1.023.717,2.091,1.129,3.12.77,1.916,1.587,3.818,2.456,5.9a69.174,69.174,0,0,0-.68-10.014c-.105-.764-.721-1.3-1.033-1.966a2.449,2.449,0,0,1,1.027-2.545,2.312,2.312,0,0,1,2.636,1.81,6.127,6.127,0,0,0,.158,1.151c.172.563.3,1.062,1.292,1.089a1.436,1.436,0,0,1,1.432,1.678c-.439,2.654,1.03,4.76,2.366,6.922.35.565.707,1.127,1.3,2.065,0-1.9-.009-3.386,0-4.876.012-1.7.105-3.393.034-5.085a7.847,7.847,0,0,0-.58-2.669,1.286,1.286,0,0,1,.22-1.352.912.912,0,0,1,.908-.284c.678.176,1.242.44,1.345,1.144a111.92,111.92,0,0,0,2.016,12.045c.672,2.6.689,5.334,1.413,7.92.421,1.5-.048,3.112.923,4.535.334.489.039,1.089-.551,1.512a1.349,1.349,0,0,1-1.677.05,1.383,1.383,0,0,1-.656-1.489,2.85,2.85,0,0,0-.176-1.79c-.507-1.242.184-2.555-.273-3.811-.105-.289.142-.683-.534-.677-.7.007-.461.416-.484.706a3.39,3.39,0,0,0,.009,1.073c.184.754-.542.789-.99,1.069-.226.142-.332.076-.488-.055-.418-.348-.737-.686-.589-1.271a16.27,16.27,0,0,0,.245-2.06,42.961,42.961,0,0,0-4.141,4.64,31.505,31.505,0,0,0-3.854,6.179c-1.4,2.8-3.277,5.427-4.243,8.385-.179.546.029,1.153-.285,1.758-.39.751-1.04.6-1.626.534-.438-.048-.668-.448-.871-.819-.722-1.317.723-2.037,1.158-2.987a98.3,98.3,0,0,1,7.335-13.226,39.248,39.248,0,0,1,4.929-5.934,1.079,1.079,0,0,0,.149-1.637c-.631-.853-1.205-1.738-1.966-2.844,0,1.9.006,3.55,0,5.2,0,.608-.56.87-1.055,1.132-.291.154-.551-.007-.8-.2a1.088,1.088,0,0,1-.448-1.25,5.323,5.323,0,0,0,.248-1.607c-.154-2.716-.356-5.43-.567-8.144a1.126,1.126,0,0,0-.694-.948c.181,2.871.5,5.637.47,8.4-.017,1.454.543,2.847.327,4.29a.66.66,0,0,1-.7.664c-.636.053-1.213.093-1.493-.526-1.175-2.6-2.336-5.212-3.51-7.816-.159-.354-.363-.69-.685-1.295-.11,2.4-.266,4.5-.192,6.615.11,3.17.126,3.751-.951,3.751-.42,0-.767-2.328-.738-2.087.24,1.932.467,3.867.738,5.8.078.559.154,1.139-.35,1.515a1.14,1.14,0,0,1-1.406.091,1.794,1.794,0,0,1-.623-1.489,9.306,9.306,0,0,0-1.244-3.02c-1.347-2.678-2.68-5.363-4.022-8.044a3.166,3.166,0,0,0-.228-.329,8.118,8.118,0,0,0,.06,2.789,99.053,99.053,0,0,0,1.14,13.2,9.345,9.345,0,0,0,1.26,4.416,1.162,1.162,0,0,1-.191,1.556,1.711,1.711,0,0,1-2.036.159c-.575-.279-.624-.839-.613-1.488a22.442,22.442,0,0,0-.474-3.782,87,87,0,0,1-1.027-9.873c-.218-5.381-.706-10.753-.668-16.142,0-.091-.084-.182-.25-.513-.177,1.6-.4,2.949-.459,4.3-.076,1.717-.044,3.437-.011,5.156.015.772.489,1.517.248,2.309a1.6,1.6,0,0,1-2.042,1.011,1.44,1.44,0,0,1-.916-1.9,5.135,5.135,0,0,0,.02-2.018c-.66-4.655-1.353-9.305-2.043-13.956-.017-.113-.091-.288-.18-.31-.206-.053-.261.1-.324.261a65.336,65.336,0,0,0-2.459,6.314c-.251.892.371,1.97.591,2.965a78.993,78.993,0,0,1,1.917,12.353c.076,1.274.53,2.533.59,3.807.045.968-.371,1.555-1.882,1.532-1.134-.017-2.28.806-3.428,1.237-2.639.989-5.162,2.177-7.718,3.312-3.2,1.419-6.544,2.572-9.638,4.176A1.329,1.329,0,0,1,246.6,185.7a17.955,17.955,0,0,0,3.384-4.417c2.218-3.514,4.264-7.111,6.661-10.54,2.065-2.956,4.153-5.9,6.2-8.865a26.441,26.441,0,0,0,1.987-3.152c.639-1.276-.291-2.45-.606-3.655-.454-1.742-.937-3.481-1.462-5.209a34.248,34.248,0,0,0-1.165-3.228,1.963,1.963,0,0,1,.1-1.63c.273-.582.987-.37,1.483-.21.57.184.57.715.7,1.176.547,1.986,1.142,3.962,1.717,5.941.209.721.406,1.445.63,2.162a1.742,1.742,0,0,0,.295.416c.141-.131.36-.241.412-.4.9-2.655,2.341-5.183,2.4-8.038.011-.544-.029-1.328,1.062-1.292,1.219.04,1.865.68,1.766,1.653a14.727,14.727,0,0,0,.388,3.709c.253,1.691.455,3.388.686,5.083.032.236.105.469.246,1.076.193-1.337.377-2.3.465-3.271.325-3.573.93-7.126,1.011-10.719.012-.54-.35-1.051-.076-1.609.224-.456.4-1.051,1.094-.88.66.163,1.422.376,1.441,1.238C277.434,141.955,277.571,142.87,277.658,143.838ZM265.25,178.249c.268-.121.538-.24.805-.362.921-.422,1.979-.8,1.985-1.879.006-1.158-.217-2.315-.241-3.475a55.6,55.6,0,0,0-1.161-8.183,7.794,7.794,0,0,0-.805-2.972c-5.3,7.354-10.2,14.837-14.754,22.683C255.859,182.1,260.512,180.194,265.25,178.249Zm15.509-13.384a1.846,1.846,0,0,1-.034-1.62c-.9,1.107,1.395,7.988,3,9.1-.275-3.081-.685-6.131-.658-9.259-.637.348-.465.836-.508,1.262a1.049,1.049,0,0,1-.82,1.024A.855.855,0,0,1,280.759,164.865Zm21.716,5.468c-.176-.919-.354-1.838-.576-3-.361,1.194.195,2.116.023,3.048-.038.209-.158.47.137.521C302.42,170.966,302.518,170.71,302.476,170.333Z" transform="translate(0)"/>
    <path id="Path_4" data-name="Path 4" d="M753.483,198.521c-.432-3.1-.872-6.145-1.265-9.2a12.4,12.4,0,0,1-.047-2.315c.018-.3.38-.718.7-.6.487.179,1.074.453,1.148,1.008.363,2.76.691,5.523,1.044,8.284.092.721.228,1.436.368,2.319.358-1.991.661-3.827,1.025-5.654.555-2.791,1.168-5.573,1.72-8.364a4.821,4.821,0,0,0-.028-1.421c-.077-.721.138-1.433,1.008-1.432.835,0,1.682.623,1.676,1.353a15.632,15.632,0,0,0,1,4.163c.535,2.01,1.028,4.029,1.576,6.037,1.116,4.084,2.094,8.2,3.446,12.228a49.218,49.218,0,0,0,3.274,7.717,52.918,52.918,0,0,0,2.912,4.86c.314.458.864.79,1.2,1.239.707.946-.016,2.145-1.309,2.3a1.239,1.239,0,0,1-1.423-1.068c.022-1.931-1.454-3.293-2.309-4.853a53.531,53.531,0,0,1-2.95-6.242,73.306,73.306,0,0,1-2.813-8.322c-.7-2.705-1.412-5.407-2.167-8.1-.5-1.793-1.089-3.566-1.766-5.758-.489,2.492-.921,4.585-1.307,6.682a79.706,79.706,0,0,1-1.878,9.7c-.437,1.386.268,2.729.341,4.1.093,1.72.348,3.433.477,5.153.039.527.778,1.076-.037,1.607-.4.261-.806.53-1.275.237a1.309,1.309,0,0,1-.787-1.15,40.334,40.334,0,0,0-.308-6.894.978.978,0,0,0-.4-.8c-.7-.471-.541-.98-.25-1.633.464-1.036-.186-2.083-.262-3.131C753.768,199.9,753.6,199.237,753.483,198.521Z" transform="translate(-443.963 -36.314)"/>
    <path id="Path_5" data-name="Path 5" d="M698.816,212.171a1.2,1.2,0,0,1-1.32-.631c-.3-.679-1.23-.942-1.35-1.757-.143-.976.444-2.144,1.293-2.261a2.658,2.658,0,0,1,2.462,1.8C699.966,210.362,700.121,211.471,698.816,212.171Z" transform="translate(-394.802 -59.45)"/>
    <path id="Path_6" data-name="Path 6" d="M729.645,392.946a8.886,8.886,0,0,0-.549-1.225c-.25-.416-.455-.809.139-1.1a1.233,1.233,0,0,1,1.378.257c.937.8.858,1.93,1.145,2.937.12.423.3.871-.011,1.292-.186.248-.389.555-.784.515-.863-.091-.744-.808-.962-1.28A7.014,7.014,0,0,1,729.645,392.946Z" transform="translate(-423.522 -220.048)"/>
  </g>
</svg>
