<?xml version="1.0" encoding="utf-8"?>
<!-- Generator: Adobe Adobe Illustrator 28.1.0, SVG Export Plug-In . SVG Version: 6.00 Build 0)  -->
<svg version="1.1" id="Layer_1" xmlns="http://www.w3.org/2000/svg" xmlns:xlink="http://www.w3.org/1999/xlink" x="0px" y="0px"
	 viewBox="0 0 1280 720" style="enable-background:new 0 0 1280 720;" xml:space="preserve">
<path class="st0" d="M1058.55,394.57c-3.56,9.32-8.33,17.44-13.09,25.52c-4.57,7.76-3.63,15.17,0.85,22.24
	c7.41,11.71,5.48,17-7.97,19.99c-5.16,1.15-10.4,1.47-15.73,0.74c-9.24-1.27-18.49-2.47-27.77-3.31
	c-6.85-0.62-13.78-1.42-20.01,3.11c-3.69,2.68-6.2,0.02-6.81-3.28c-3.12-16.87-5.03-34.01-8.99-50.67
	c-4.53-19.03-0.7-38.16-2.74-57.12c-1.15-10.69-3.18-21.27-4.47-31.95c-2.46-20.18-4.61-40.39-7-60.58
	c-1.94-16.38-4.01-32.75-6.19-49.1c-0.19-1.44-0.28-3.39-2.81-4.81c0.83,21.03-0.97,41.59,1.52,62.08
	c2.68,22.07,5.38,44.15,8.37,66.18c2.61,19.22,6.08,38.38,4.72,57.89c-0.75,10.74-2.46,21.37-2.94,32.19
	c-0.56,12.6,3.45,23.79,7.36,35.23c1.29,3.77,2.24,7.66,3.55,12.19c-7.72,1.28-14.66-1.28-21.53-1.93
	c-8.79-0.83-17.72,2.54-26.31-1.16c-21.15-9.12-20.06-11.17-16.6-32c6.28-37.75,9.79-75.5,7.51-113.67
	c-0.57-9.46-4.53-18.3-11.58-25.19c-3.88-3.8-5.62-8.15-4.61-13.56c3.18-16.95,3.11-33.53-3.27-50.05
	c-3.9-10.09-1.38-15.5,7.55-21.76c5.61-3.94,4.32-8.83,2.08-13.64c-3.98-8.58-8.79-16.65-7.53-26.92c0.54-4.44,2.16-8.28,3.6-12.23
	c0.85-2.33,3.09-3.67,6.28-3.64c19.19,0.18,38.39-0.07,57.58,0.06c10.12,0.07,22.11,12.19,22.04,22.3
	c-0.13,19.71,3.33,39.05,5.35,58.55c3.19,30.74,14.17,59.33,24.71,87.9c6.24,16.9,5.34,32.14-2.33,48.01
	c-4.41,9.12-8.43,18.76-4.81,29.5c0.81,2.4,1.48,4.47,4.38,5.27c5.3-3.3,5.3-9.43,6.43-14.4c2.54-11.13,5.94-21.62,11.01-32.01
	c4.11-8.44,2.03-18.7,0.2-28.15c-3.41-17.63-12.45-32.88-20.24-48.69c-3.05-6.18-4.8-12.94-1.67-19.96
	c1.82-4.08,6.73-4.97,8.57-8.64c-0.06-1.88-1.71-2.21-2.52-2.41c-18.5-4.59-15.47-20.63-17.3-33.53c-1.84-13-2.03-26.23-3.07-39.35
	c-0.57-7.18,8.51-15.86,18.65-17.57c10.96-1.85,22.04-1.3,33.04-0.95c8.95,0.29,12.17,4.21,12.29,13.26
	c0.34,25.2,4.22,50,7.52,74.92c3.04,22.96,7.17,45.71,12.43,68.17c3.51,15,4.93,29.62,2.43,44.69
	C1066.84,373.36,1062.96,383.78,1058.55,394.57z"/>
<path class="st0" d="M262.83,385.49c8.55,6.98,4.33,15.29,1.97,22.05c-6.43,18.46-15.36,35.66-30.96,48.45
	c-9.26,7.59-13.06,6.65-17.66-4.38c-8.6-20.6-7.06-41.42-1.88-62.44c2.4-9.72,4.94-19.41,4.85-29.59
	c-0.14-17.05-0.65-34.08-0.96-51.11c-0.35-19.37,0.9-38.83,2.97-58.18c1.79-16.75,0.82-33.59,0.55-50.38
	c-0.09-5.72-3.28-10.81-5.58-16.01c-4.23-9.53-2.29-17.09,6.84-21.91c25.85-13.63,59.94-6.61,73.05,24.93
	c0.99,2.38,0.76,4.71,0.72,7.05c-0.71,39.86,3.66,79.68,0.7,119.56c-0.15,1.99-0.66,4.29,1.77,6.49
	c4.35-20.24,3.63-40.25,2.76-60.18c-1.1-25,0.05-49.95,0.72-74.91c0.28-10.59,9.7-19.92,20.39-20.82c2.67-0.23,5.08-0.72,7.53-1.83
	c14.16-6.43,28.57-4.1,41.73,1.73c17.05,7.55,21.43,20.57,18.13,38.48c-3.5,18.99-7.35,38.04-7.23,57.56
	c0.13,21.38,0.35,42.76-0.15,64.13c-0.17,7.3,2.56,12.81,6.65,18.14c1.11,1.45,2.55,2.64,3.86,3.93
	c8.85,8.72,12.28,18.43,7.94,30.95c-3.13,9.04-0.7,18.21,2.94,27.06c2.23,5.41,4.08,11.03,4.91,17
	c2.15,15.46,1.11,17.89-13.61,21.88c-19.32,5.24-38.24,3.47-56.33-5.2c-9.16-4.39-10.94-10.67-5.11-18.86
	c8.55-12.01,20.81-19.75,33.06-27.4c0.55-0.34,1.01-0.82,1.71-1.4c-1.66-5.11-6.9-5.71-10.29-6.65
	c-15.88-4.4-20.61-16.33-21.49-30.54c-1.16-18.74,1.89-37.27,4.92-55.67c3.71-22.55,7.85-45.04,12.46-67.42
	c1.88-9.14,3.12-18.3,4.63-28.01c-7.52,0-14.53,0-21.54,0c-0.53,1.6,1.07,1.94,1.59,2.89c5.73,10.47,4.65,14.76-4.2,23.32
	c-4.77,4.62-11.31,7.78-13.7,14.56c2.32,3.24,5.47,1.76,8.17,1.95c8.97,0.64,13.3,5.5,11.49,14.14
	c-6.02,28.74-7.18,57.91-8.27,87.11c-0.8,21.52-2.48,42.93-7.6,63.97c-2.18,8.94,0.29,18.18-0.68,27.28
	c-2.35,22.07-1.9,19.33-20.83,22.84c-10.85,2.01-21.46,0.44-32.22-2.54c-2.75-8.62,0.93-16.82,3.36-24.8
	c4.5-14.75,8.38-29.34,4.67-44.85c-2.06-8.62-5.7-16.33-12.84-21.98c-11.88-9.41-12.15-9.52-6.34-23.58
	c7.39-17.88,9.94-36.16,6.3-55.25c-2.25-11.78-1.48-23.88-3.97-35.71c-1.04-4.96-1.37-11.2,6.55-12.67
	c2.56-0.47,2.93-3.73,2.93-5.94c0-6.97-1.16-13.74-5.77-19.35c-3.12-3.8-7.12-5.26-12.04-4.04c-4.87,1.21-8.43,3.12-9.77,8.84
	c-2.28,9.75,1.05,18.38,4.32,26.95c2.67,7,5.8,13.9,9.93,20.27c1.36,2.09,2.12,4.58,1.85,7.45c-2.09,22.13-5.57,44.03-10.04,65.79
	c-0.86,4.17-2.22,8.26-3.69,12.27c-4.11,11.22-3.26,16.49,5.19,24.09C255.74,378.22,259.05,381.73,262.83,385.49z"/>
<path class="st0" d="M829.33,410.53c-0.16-17.51,0.77-34.24,3.23-50.86c0.17-1.17,0.37-2.39,0.83-3.46
	c1.77-4.05,1.13-10.29,5.94-11.58c5.13-1.38,6.11,5.5,10.07,8.2c1.83-6.77-1.93-12.07-3.79-17.53
	c-7.13-20.97-16.35-41.19-22.7-62.45c-2.24-7.51-2.29-15.2-1.19-22.82c1.26-8.73,3.66-10.83,12.14-10.94
	c13.17-0.18,26.34-0.05,39.49-0.05c2.25,2.6,1.41,5.6,1.41,8.35c-0.01,13.67-0.54,27.31,0.81,40.99c0.67,6.78,2.88,12.47,7.8,16.83
	c9.2,8.16,12.06,18.77,12.5,30.4c0.86,22.88-3.44,45.12-7.83,67.44c-2.79,14.2-7.19,28.22-6.81,42.97
	c0.15,5.63-0.58,11.37,3.1,15.94c-0.51,0.71-0.65,1.06-0.78,1.06c-15.04,0.02-30.04-1.13-43.56-8.19
	c-7.39-3.85-9.25-12.07-10.3-19.88C828.64,427.09,828.84,419.16,829.33,410.53z"/>
<path class="st0" d="M858.24,221.57c-5.85,2.02-10.73,4.94-16.35,6.13c-2.59,0.55-5.15,0.73-6.2-1.55
	c-3.78-8.18-11.76-11.76-17.97-17.28c-1.43-1.27-2.89-2.51-4.26-3.83c-13.68-13.19-11.12-28.97,6.39-37.13
	c7.86-3.67,16.16-6.41,24.35-9.32c2.21-0.79,4.97-1.01,6.92,0.58c3.14,2.56,6.92,3.23,10.57,3.89c7.76,1.41,11.84,5.97,15.07,13.07
	c2.87,6.29,1.43,11-2.77,14.68c-5.37,4.7-7.98,9.98-6.83,16.84C868.37,214.87,865.67,219.33,858.24,221.57z"/>
<path class="st0" d="M724.53,287.5c-1.6-18.61-4.15-37.15-4.5-55.9c-0.13-7.1-2.09-14.04-4.19-20.98
	c-4.9-16.17-14.73-28.94-25.08-41.83c-6.63-8.24-13.9-12.08-24.22-12.12c-18.25-0.07-36.45,0.95-54.67,1.56
	c-6.71,0.22-10.56,3.49-10.97,10.28c-0.21,3.34-0.69,6.92,0.21,10.02c1.75,6.01-0.68,10.72-3.44,15.46
	c-4.37,7.5-10.87,13.16-17.23,18.78c-4.94,4.35-4.96,9.49-3.74,14.84c0.71,3.11,2.84,5.91,4.33,8.84
	c5.36,10.54,14.69,18.56,19.29,29.47c2.35,5.57,4.67,7.12,10.71,5.32c9.2-2.74,11.23-0.73,11.35,8.56
	c0.05,4.12-0.83,7.76-2.63,11.62c-5.37,11.55-13.4,21.14-21.64,30.49c-6.3,7.14-6.36,15.06-3.11,22.5
	c5.97,13.63,10.85,27.35,10.79,42.37c-0.07,17.57,1.21,35.39-8.27,51.85c-2.04,1.34-0.3-0.89-1.19-1.34
	c-0.27-17.72-1.46-34.82-0.48-51.8c0.77-13.11-1.21-25.01-7.13-36.52c-5.94-11.56-4.9-22.26,3.99-32.13
	c5.68-6.32,10.98-12.99,16.38-19.56c2.05-2.49,4.07-4.91,5.22-8.16c0.86-2.43,0.79-4.33-0.7-5.93c-1.79-1.92-3.64-0.61-5.71,0.37
	c-3.98,1.88-8.12,6.18-12.47,3.89c-9.98-5.25-18.71-0.46-27.43,2.53c-10.86,3.72-21.28,8.75-33.73,14
	c13.51,27.7,24.37,56.13,17.63,87.96c-9.28-0.3-17.77-3.75-25.19-9.44c-7.75-5.93-6.77-10.71,2.44-14.51
	c10.28-4.25,12.65-8.75,9.5-18.47c-0.64-1.99-1.58-4.03-2.9-5.63c-9.95-12.09-17.53-25.17-17.16-41.44
	c-21.33-2.85-42.01-2.17-62.55-3.53c-20.31-1.35-39.65-8.95-59.33-11.33c-2.74,2.84-1.83,5.72-2.44,8.23
	c-4.81,19.74-7.54,38.99,14.32,51.33c0.8,0.45,1.41,1.28,2.04,2c4.65,5.24,6.37,14.83,2.73,20.55c-8.58,13.52-7.87,27.05-2.49,41.54
	c3.63,9.81,7.85,20.25,1.13,30.77c-0.41,0.64-0.26,1.9,0.05,2.71c6.02,15.29,22,26.39,38.14,14.41
	c7.77-5.77,13.24-13.44,19.01-20.99c5.96-7.81,6.57-16.18,3.26-24.82c-2.92-7.67-7.06-14.86-10.17-22.46
	c-3.57-8.73-10.01-17.47-2.15-27.12c4.66-5.72,7.6-11.9,6.86-19.52c-0.34-3.45,1.35-5.6,5.09-6.46c1.11,8.48-0.09,15.84-3.61,23.31
	c-6.21,13.19-4.81,26.77,10.32,34.31c6.53,3.26,12.98,6.68,19.44,10.08c4.18,2.19,7.42,5.58,7.24,10.34
	c-0.19,5.07-4.98,6.36-8.93,7.65c-8.24,2.69-11.66,9.1-13.36,16.82c-0.76,3.42,0.77,5.28,4.24,6.82c7.62,3.37,14.99,1.59,22.58,0.49
	c9.94-1.43,19.71-1.8,29.75,1.16c9.63,2.85,16.38,9.08,23.45,15.33c5.83,5.15,10.77,4.86,16.84-0.07c4.01-3.25,6.04-7.97,9.52-12.32
	c0.53,1.32,1.01,1.93,0.95,2.48c-1.1,10.37-0.65,11.1,9.95,9.81c10.88-1.32,21.65-3.43,32.5-5.01c9.44-1.38,18.9-3.26,28.4-3.59
	c19.87-0.7,30.02-8.83,36.01-28.03c4.33-13.89,7.18-28.09,10.62-42.15c2.66-10.84,4.71-21.86,6.34-32.91
	c1.42-9.68,2.99-19.32,4.82-28.94C721.41,311.49,725.6,300.01,724.53,287.5z M672.04,354.57c-2.41,12.15-5.16,24.13-9.43,35.75
	c-0.24,0.67-0.42,1.36-0.71,2c-3.99,8.78-6.55,10.04-14.16,4.45c-13.78-10.12-21.7-24.22-23.93-41.13
	c-1.06-8.03,3.13-12.07,11.83-12.52c8.36-0.43,16.57-0.63,22.04-8.59c3.84-5.61,4.31-12.02,4.71-18.35
	c0.88-13.97-1.95-27.63-4.11-41.34c-0.66-4.24-1.3-8.48-2.17-13.32c-2.94-14.77-4.24-29.05-3.05-43.48c0.32-3.91,0.3-9.08,5.5-9.33
	c4.94-0.23,5.26,5.16,5.97,8.52c2.14,10.23,4.49,20.45,6.32,30.72c3,16.88,6.45,33.73,6.54,51.09
	C677.49,317.79,675.69,336.2,672.04,354.57z"/>
<path class="st0" d="M590.63,450.54c-0.16-0.24-0.08-0.48,0-0.72C590.71,450.06,590.79,450.3,590.63,450.54z"/>
<path class="st0" d="M824.77,436.34c-0.83-11.42-5.54-22.45-3.39-34.1c1.92-10.42,2.5-20.92,2.57-31.51
	c0.12-16.82-1.57-33.51-2.61-50.27c-2.02-32.36-10.42-63.26-18.6-94.29c-4.95-18.82-9.89-37.63-13.69-56.74
	c-1.02-5.13-0.12-13.31-9.71-13c-22.24,0.72-44.5,1.05-66.73,1.92c-10.16,0.4-12.35,5.49-7.65,14.39
	c5.14,9.73,12.63,18.2,15.44,29.19c5.09,19.93,9.08,40.07,9.55,60.67c0.4,17.66,0.79,35.34-3.6,52.79
	c-2.03,8.04-5.27,16.06-5.77,24.16c-0.96,15.56-2.11,30.98-6.13,46.08c-3.78,14.2-5.2,28.93-10.47,42.83
	c-3.34,8.82-6.29,17.99-6.7,27.55c-0.34,7.92,2.92,9.95,10.17,7.01c13.97-5.68,27.3-12.71,40.74-19.49c2.76-1.4,5.36-3.3,6.37-6.44
	c2.21-6.84,4.22-13.79,2.87-21.08c-3.79-20.46-2.73-41.13-2.63-61.75c0.04-8.67,4.06-11.13,12-7.55c4.47,2.01,8.63,4.74,13.41,5.57
	c0.9,4.06,0.11,7.39-0.95,10.93c-3.25,10.88-8.2,21.16-10.87,32.25c-2.32,9.66-1.47,19.57-3.06,29.92
	c-0.12,2.81-0.28,4.97-0.22,7.13c0.21,8.43,3.04,16.52,11.04,19.25c12.02,4.12,24.81,5.11,37.5,1.82
	C824.71,450.72,825.63,448.1,824.77,436.34z M783.47,319.02c-11.53,0.46-23.63-9.99-22.81-20.64c1.73-22.6-1.1-44.75-5.26-67.49
	c-0.34-9.25-0.51-17.87-0.6-26.48c-0.03-3.41,1.3-6.5,4.77-7.09c4.1-0.7,4.37,3.46,4.79,5.85c3.77,21.29,8.94,42.31,10.81,63.97
	c1.1,12.72,4.3,25.27,7,37.8C783.19,309.67,783.95,314.25,783.47,319.02z"/>
<path class="st0" d="M595.72,268.3c-3.65-6.1-6.36-12.86-11.87-17.84c-5.38-4.86-10.34-10.11-14.25-16.39
	c-6.04-9.71-5.82-13.21,2.35-21.23c7.23-7.09,15-13.64,20.04-22.79c6.1-11.09-0.25-26.67-12.53-28.73
	c-7.05-1.18-14.23-1.54-21.47-1.29c-42.39,1.47-84.79,2.84-127.2,3.88c-6.35,0.15-12.59,0.65-18.08,3.37
	c-6.04,2.98-14.96,4.59-14.77,13.36c0.23,10.34,0.2,20.35-3.05,30.32c-1.9,5.85-3.26,11.89-3.11,18.29
	c0.31,12.75,1.91,25.46-2.29,38.18c-2.49,7.54,1.81,13.22,8.75,14.73c20.75,4.53,41.67,7.94,63.57,9.1
	c26.1,3.71,51.69,5.3,77.26,2.25c10-1.19,20.9-3.73,27.35-12.01c6.32-8.11,12.44-6.81,19.83-3.67c2.87,1.22,5.67,2.82,8.51-0.18
	C597.51,274.73,597.25,270.86,595.72,268.3z M540.27,268.27c-27.44,4.7-53.99,6.45-77.13-14.17c-9.37-8.35-19.92-15.33-26.81-26.17
	c-0.73-1.16-1.1-2.55-1.87-4.34c-1.66-11.64,7.45-14.85,14.43-19.03c7.62-4.56,16.05-7.75,23.97-11.83
	c3.51-1.81,7.29-3.47,9.45-7.23c2.6-4.51,6.86-5.25,11.19-3.66c4.65,1.71,5.08,6.27,4.44,10.33c-1.05,6.54-3.47,12.67-6.77,18.51
	c-10.88,19.28-7.19,27.82,14.04,34.14c11.96,3.56,23.77,7.66,35.56,11.76c2.93,1.02,6.08,3.25,6.01,6.47
	C546.69,266.31,543.63,267.7,540.27,268.27z"/>
<g>
	<path class="st0" d="M365.91,495.81c1.81,0,3.29,0.28,4.41,0.84c1.19,0.56,2.16,1.38,2.91,2.44l40.93,58.39
		c0.44,0.69,0.66,1.41,0.66,2.16c0,0.69-0.22,1.35-0.66,1.97c-0.38,0.63-0.91,1.16-1.6,1.6c-0.63,0.44-1.35,0.78-2.16,1.03
		c-0.81,0.25-1.63,0.38-2.44,0.38c-0.88,0-1.66-0.16-2.35-0.47c-0.69-0.25-1.28-0.72-1.78-1.41l-11.08-16.15h-52.2l-10.42,16.15
		c-0.44,0.69-1.03,1.16-1.78,1.41c-0.69,0.31-1.44,0.47-2.25,0.47c-0.75,0-1.53-0.13-2.35-0.38s-1.56-0.59-2.25-1.03
		c-0.63-0.5-1.16-1.03-1.6-1.6c-0.38-0.63-0.56-1.31-0.56-2.07c0-0.63,0.22-1.31,0.66-2.07l38.49-58.39
		c0.69-1.06,1.63-1.88,2.82-2.44C362.5,496.09,364.03,495.81,365.91,495.81z M347.04,536.46h38.77l-19.9-29.2L347.04,536.46z
		 M551.7,546.69c0,11.64-9.26,17.46-27.79,17.46h-53.23c-2.88,0-4.32-1.47-4.32-4.41v-59.33c0-2.88,1.44-4.32,4.32-4.32h53.23
		c18.53,0,27.79,5.82,27.79,17.46V546.69z M478.85,554.02h44.69c5.51,0,9.51-0.72,12.02-2.16c2.57-1.44,3.85-3.16,3.85-5.16v-33.14
		c0-2.07-1.28-3.79-3.85-5.16c-2.5-1.44-6.51-2.16-12.02-2.16h-44.69V554.02z M706.71,499.57c1-1.19,2.1-2.03,3.29-2.53
		c1.25-0.5,2.63-0.75,4.13-0.75c4.63,0,6.95,2.13,6.95,6.38v57.45c0,1.81-0.53,3-1.6,3.57c-1.06,0.56-2.63,0.84-4.69,0.84
		c-2.07,0-3.63-0.28-4.69-0.84c-1.06-0.56-1.6-1.75-1.6-3.57v-44.5l-37.46,45.34c-1.06,1.25-2.16,2.16-3.29,2.72
		c-1.13,0.56-2.5,0.84-4.13,0.84c-1.81,0-3.35-0.28-4.6-0.84c-1.19-0.56-2.28-1.47-3.29-2.72l-37.55-45.34v44.5
		c0,1.81-0.53,3-1.6,3.57c-1.06,0.56-2.63,0.84-4.69,0.84c-2,0-3.53-0.28-4.6-0.84c-1.06-0.56-1.6-1.75-1.6-3.57v-57.45
		c0-4.26,2.29-6.38,6.85-6.38c3.07,0,5.54,1.1,7.42,3.29l43.18,52.1L706.71,499.57z M788.4,560.12c0,1.81-0.53,3-1.6,3.57
		c-1.06,0.56-2.63,0.84-4.69,0.84c-2,0-3.54-0.28-4.6-0.84c-1.06-0.56-1.6-1.75-1.6-3.57v-59.99c0-1.81,0.53-3,1.6-3.57
		c1.06-0.56,2.6-0.84,4.6-0.84c2.07,0,3.63,0.28,4.69,0.84c1.06,0.56,1.6,1.75,1.6,3.57V560.12z M921.48,564.53
		c-0.88,0-1.6-0.03-2.16-0.09c-0.56-0.06-1.09-0.22-1.6-0.47c-0.5-0.25-1.03-0.56-1.6-0.94c-0.56-0.44-1.25-1-2.07-1.69
		l-58.39-49.19v47.97c0,1.81-0.53,3-1.6,3.57c-1.06,0.56-2.63,0.84-4.69,0.84c-2,0-3.53-0.28-4.6-0.84c-1.06-0.56-1.6-1.75-1.6-3.57
		v-59.99c0-1.75,0.5-2.91,1.5-3.47c1-0.63,2.47-0.94,4.41-0.94c2.07,0,3.69,0.28,4.88,0.84c1.19,0.5,2.5,1.38,3.94,2.63l57.55,49
		v-48.07c0-1.81,0.53-3,1.6-3.57c1.07-0.56,2.6-0.84,4.6-0.84c2.07,0,3.63,0.28,4.69,0.84c1.07,0.56,1.6,1.75,1.6,3.57v59.99
		c0,1.81-0.53,3-1.6,3.57C925.3,564.25,923.67,564.53,921.48,564.53z"/>
</g>
</svg>
