<?xml version="1.0" encoding="UTF-8"?>
<svg id="a" data-name="svg-four" xmlns="http://www.w3.org/2000/svg" viewBox="0 0 348.18 276.31">
  <defs>
    <style>
      .b {
        stroke: #000;
        stroke-miterlimit: 10;
        stroke-width: .5px;
      }
    </style>
  </defs>
  <path class="b" d="M59.42,90.99c6.74-2.76,3.57-9.1,2.63-14.89-1.55-10.6,7.07-13.88,16.02-14.38,7.34-.47,14.79-1.76,21.92.38,4.35,1.25,8.58,3.28,13.17,4.17,17.09,2.85,34.67,1.71,51.94.52,5.98-.47,11.93-1.17,17.89-1.86,5.3-.83,11.58-.44,16.15-3.43,4.25-2.92,2.6-7.33-1.9-8.42-9.25-1.59-19-.89-28.34-.49-2.27.08-5.73.49-7.52-.66l-.04-.04c-.91-5,34.8-3.64,39.17-7.39,4.29-3.57-3.73-7.3-6.96-7.89-8.16-1.62-16.51-.98-24.64-.27-2.66.18-10.06,1.01-11.22-1.69,0-.44.52-.88,1.45-1.23,1.62-.6,3.89-.81,5.73-.95,7.73-.53,15.46-1.38,23.2-1.97,13.72-1.03,11.65-11.61-.58-12.75-11.05-1.19-24.08,2.43-35.51,2.89-2.88.03-6.24.37-8.32-1-1.67-1.68,1.73-3.23,3.16-3.83,5.5-2.2,11.89-1.87,17.89-2.68,2.97-.44,6.23-1.33,8.18-3.7,2.8-3.41.15-7.26-3.96-8.28-5.21-1.46-11.21-.81-16.61-.53-6.4.45-11.82.53-17.62,1.41-9.32,1.49-18.37,4.82-26.46,9.73-1.39.9-2.67,1.9-3.72,3.02-4.01,4.39-3.85,10.24-10.3,10.73-21.6.15-43.74-2.7-64.68,3.37-7.11,1.83-9.81,8.76-11.57,15.24-2.09,7.28-3.55,13.98-5.48,20.89-1.45,5.85-5.14,12.35-2.42,18.28,7.78,12.9,36.43,12.63,49.37,7.68Z"/>
  <path class="b" d="M285.43,181.58c-16.48,3.6-2.65,15.46-7.4,24.68-4.76,7.73-18.67,6.56-27.2,6.79-8.26.29-15.16-3.82-23.02-5.75-24.08-4.23-48.64-.81-72.65,2.46-4.69.76-11.01,1.36-14.12,5.09-3.07,3.92,1.74,6.79,5.31,6.94,6.76.57,14.75-1.06,21.7-.96,1.72-.24,14.34.89,10.82,3.88-7.39,3.84-34.76-1.96-38,8.42.16,6.09,15.16,5.07,20.28,5.31,5.01.01,10.15-.07,14.44.16,4.03.19,7.58.79,8.57,1.78,2.05,3.36-13.36,2.77-15.18,2.87-7.66.33-15.84.63-22.85,3.98-5.83,3.5-2.02,8.13,3.37,8.64,7.74.64,15.67-.3,23.38-.7,4.73-.04,22.01-3.44,24.36.51-2.72,5.73-25.19,2.99-30.01,14.55-3.24,8.94,8.62,5.05,13.42,4.73,6.94-.47,13.91-.57,20.84-1.49,10.72-1.89,25.92-3.12,34.04-10.75,3.39-3,3.73-7.96,6.55-11.06l.1-.1c1.67-1.75,4.57-2.15,7.11-2.13,20.98.26,42.52,2.61,62.74-3.69,9.2-3.29,10.57-14.12,12.81-22.4,1.7-8.84,5.31-18.64,2.38-27.17-6.29-17.1-26.43-18.5-41.8-14.56Z"/>
  <path class="b" d="M334.83,96.72c-2.26-2.02-5.05-3.37-7.97-4.06-2.18-.59-4.76-1.09-6.3-2.57l-.1-.09c-2.9-3.16-1.5-8.36-1.48-13.18.64-12.83,1.06-25.8-3.7-37.74-2.03-5.45-6.98-8.78-12.59-9.75-13.89-2.82-28.01-4.22-41.88-7.18-6.36-1.41-13.52-2.82-19.37.84-10.39,6.52-11.76,21.19-8.84,32.2,1.45,5.99,5.86,10,12.45,8.49,7.23-1.52,16.89-3.44,22.87,1.46,3.91,3.18,5.02,9.09,5.24,14.71.7,7.68-2.61,14.49-5.23,21.46-5.31,15.61-1.99,48.95,4.95,63.87,2.24,4.9,8.57,8.31,11.58,2.04,1.24-2.52,1.7-6.3,1.79-10.11.07-3.13-.17-6.12-.54-8.82-.31-3.14-1.28-6.57.22-8.82,1.9-1.46,3.37,2.12,3.93,3.7,2.52,6.87.7,18.51,3.79,23.64,3.7,5.35,9.17-.33,9.93-5.12.67-2.66.9-5.68.84-8.7.49-3.41-3.4-18.2.02-17.74,3.41,2.79,2.39,11.98,3.08,16.48.73,5.55,2.15,12.85,7.5,15.52,5.02,2.33,9.51-2.73,10.43-7.4,1.98-8.48-.34-17.05-1.93-25.45-.35-1.88-.67-4.09-.41-5.9.65-4.54,3.94-1.49,5.22,2.03,1.77,4.44,1.9,9.79,4.12,14,4.04,7.72,14.1,6.74,15.17-2.3,1.49-12.83-3.13-36.67-12.82-45.5Z"/>
  <path class="b" d="M116.69,231.99c-.63-10.83-3.41-19.5-14.64-16.42-7.04,1.53-15.55,3.24-21.19-1.02-6.3-5.02-6.62-16.37-5.09-24.05.71-3.08,1.95-6.06,3.09-9.03,8.12-20.47,2.98-43.35-2.61-64.18-1.25-5.92-7.56-13.2-11.8-5.06-2.09,4.92-1.5,12.1-.99,17.64.14,1.81,1.66,11.2-1.46,8.29-4.48-6.55-3.51-15.72-5.87-23.16-1.47-4.91-6.44-6.83-9.56-2.1-2.18,3.3-2.74,7.76-2.93,11.72-.23,4.21.77,8.49,1.21,12.72.26,2.15-.12,6.4-1.58,5.03-.85-.71-1.64-3.39-1.89-6.39-.56-6.7-.71-13.88-3.71-19.93-4.48-8.41-13.21-5.08-14.87,3.18-2.3,9.66,1.27,19.35,2.41,28.93.46,6.24-3.03,6.23-5.33.21-1.54-4.07-1.91-8.94-3.55-12.83-1.95-5.57-9.1-8.49-13.37-4.05-2.79,2.96-2.81,7.64-2.63,11.58,1.01,16.47,5.73,40.02,20.95,43.44,2.2.56,4.94,1.08,6.44,2.57l.1.09c3,3.35,1.45,8.99,1.48,14.01-.47,12.51-1.46,34.97,8.43,43.65,3.83,2.65,9.42,3.3,14.05,4.22,6.6,1.13,12.79,2.21,18.65,3.05,5.62.81,11.36,1.59,16.99,2.81,7.42,1.77,16.3,3.12,22.29-2.69,5.62-4.75,7.39-13.96,6.99-22.23Z"/>
</svg>