<?xml version="1.0" encoding="UTF-8"?>
<svg id="a" data-name="svg-four" xmlns="http://www.w3.org/2000/svg" viewBox="0 0 475.66 296.88">
  <path d="M200.3,0c.55,0,1.09,0,1.64,0,3.79.99,5.86,3.79,7.34,7.12.88,1.99,1.66,4.05,2.28,6.13,2.57,8.6,3.89,17.45,4.86,26.34,1.64,15.03,2.98,30.08,4.56,45.11.56,5.34,1.44,10.64,2.17,15.96,1.13-3.63,2.08-7.2,2.98-10.79,1.43-5.74.77-11.48-.12-17.21-.89-5.74-1.89-11.48-2.51-17.25-.5-4.61.12-9.2,2.48-13.28,1.7-2.94,2.81-6.07,3.92-9.23,1.99-5.67,3.96-11.34,5.99-16.99.72-2,1.81-3.84,3.59-5.08,1.24-.86,2.61-1.54,3.92-2.3.54-.31,1.06-.65,1.8-1.11-.25.98-.43,1.67-.6,2.36,5.06,1.21,6.77,2.56,9.07,7.21.5,1.01.92,2.07,1.3,3.13.86,2.43,1.47,4.96,2.52,7.29,2.38,5.26,4.99,10.41,7.45,15.64,2.27,4.81,4.43,9.7,4.87,15.07.34,4.12.2,8.28.41,12.41.16,3.03.18,6.14.91,9.06,2.4,9.63,5.29,19.08,10.97,27.46,3.27,4.83,4.76,10.49,6.29,16.07,3.7,13.48,6.36,27.16,7.26,41.11.68,10.6.78,21.23,1.02,31.85.09,3.91.64,7.66,2.07,11.33.83,2.13,1.27,4.41,1.86,6.64.14.53.18,1.1.24,1.54,1.57-1.59,2.97-3.29,4.66-4.64,1.84-1.46,2.53-3.22,2.28-5.43-.65-5.67-1.6-11.27-3.23-16.76-2.07-6.96-4.16-13.96-4.72-21.23-.89-11.37-1.45-22.76-2.16-34.13-.55-8.81-1.15-17.61-1.67-26.41-.27-4.63-2.13-8.3-5.98-10.97-1.44-1-2.72-2.22-4.06-3.36-2.7-2.31-3.58-5.19-2.72-8.64,1.56-6.25,4.67-11.63,9.09-16.27,1.86-1.94,3.96-3.54,6.6-4.29,5.08-1.45,9.68,1.92,9.63,7.16-.04,4.63.81,9.09,2.3,13.43,1.93,5.6,4.1,11.13,5.86,16.78.96,3.09,2.05,6.03,3.9,8.7.67.97,1.15,2.09,1.67,3.16,2.22,4.51,3.61,9.31,4.64,14.21,1.21,5.77,2.27,11.57,3.56,17.31.98,4.37,2.34,8.68,5.85,11.77,5.84,5.16,11.8,10.19,17.71,15.27.1-.09.21-.18.31-.27-.1-.28-.18-.57-.29-.84-1.18-2.93-2.31-5.89-3.55-8.79-7.26-17.01-14.53-34.01-21.85-51-1.49-3.46-1.08-6.56,1.34-9.36,1.09-1.26,2.39-2.36,3.62-3.49.39-.36.87-.61,1.47-1.02-4-2-6.9-4.5-9.17-7.73-2.9-4.12-4.54-8.79-5.78-13.61-1.7-6.61-3.4-13.22-5.01-19.86-1.01-4.16-.33-8.08,2.18-11.6,2.05-2.88,5.21-3.05,7.54-.38.97,1.11,1.84,2.36,2.48,3.67,1.73,3.54,3.37,7.12,4.96,10.73,3.37,7.61,6.84,15.17,11.83,21.9,3.68,4.96,7.98,9.22,13.88,11.51,1.36.53,2.81.84,4.21,1.26.07-.11.14-.21.21-.32-.54-.84-1.08-1.67-1.62-2.51-1.93-2.98-4.02-5.88-5.09-9.32-1.49-4.77.41-8.36,5.18-9.83.41-.13.83-.22,1.25-.31,3.48-.76,5.92.27,7.73,3.31.9,1.51,1.67,3.09,2.55,4.61,2.42,4.19,4.78,8.41,7.35,12.5.8,1.28,2.1,2.31,3.34,3.23,1.23.9,2.58.24,2.68-1.29.15-2.29.37-4.63.08-6.88-.78-5.92-1.84-11.8-2.76-17.7-.67-4.33-1.18-8.67-.59-13.06.47-3.46,2.06-6.04,5.57-7.08,3.17-.94,6.16.2,8.51,3.2.82,1.04,1.61,2.11,2.36,3.21,4.7,6.87,7.59,14.57,10.32,22.35,2.43,6.95,4.78,13.95,7.54,20.78,2.82,6.99,6.85,13.32,12.99,17.91,3.53,2.64,6.61,5.71,9.71,8.78.28.28.56.55.83.83,7.05,7.22,13.96,14.59,19.64,22.94,2.24,3.29,4.72,5.7,8.64,6.71,1.42.37,2.84,1.38,3.88,2.46,3.2,3.35,3.85,7.3,2.41,11.72-.67,2.05-1.02,4.24-1.25,6.39-.31,2.9-.78,5.75-2.09,8.36-3.03,6-6.28,11.89-10.5,17.16-1.57,1.95-3.43,3.78-5.47,5.22-3.07,2.17-6.52,1.41-8.53-1.77-1.06-1.69-1.83-3.63-2.38-5.56-1.41-4.9-1.94-9.97-2.1-15.05-.15-4.87-1.02-9.45-3.91-13.5-.52-.73-.91-1.55-1.32-2.35-3.94-7.72-7.82-15.46-11.81-23.15-2.84-5.48-5.84-10.87-9.71-15.73-.62-.77-1.27-1.33-2.28-.76-1.02.57-.99,1.41-.65,2.42,2.23,6.58,4.49,13.15,6.59,19.77,5.4,17,10.6,34.06,14.2,51.55.94,4.57,1.62,9.24,1.96,13.89.32,4.39-2.71,7.87-6.93,8.74-4.44.91-8.56-1.17-10.26-5.24-.95-2.27-1.9-4.54-2.68-6.86-4.55-13.45-9.08-26.91-13.57-40.38-4.25-12.77-8.51-25.54-14.1-37.81-3.2-7.01-6.74-13.84-11.76-19.77-2.81-3.32-5.97-6.2-10.25-7.52-1.64-.51-3.31-.79-5.22-.46,1.24,1.25,2.29,2.45,3.48,3.48,3.51,3.05,7.13,5.97,10.58,9.08,1.28,1.16,2.4,2.59,3.27,4.09,1.56,2.66.64,5.34-2.05,6.69-3.02,1.52-6.35.94-8.68-1.52-.27-.28-.53-.57-.79-.86-2.14,2.64-2.49,6.23-.43,9.06,1.56,2.15,3.51,4.08,5.49,5.87,3.1,2.8,6.47,5.3,9.57,8.1,3.05,2.75,5.42,6.02,6.54,10.09,1.01,3.68,2.03,7.36,3.18,11.01,3.32,10.54,6.6,21.08,7.98,32.1.64,5.14.87,10.29-.35,15.38-1.47,6.09-4.91,10.39-11.23,11.91-3.48.84-6.98.55-10.47-.03-.76-.13-1.1-.41-1.34-1.15-2.14-6.52-4.31-13.03-6.5-19.54-.83-2.45-1.74-4.87-2.73-7.64-.15.87-.23,1.37-.31,1.87-1.55,9.69-4.29,19.04-8.48,27.91-2.01,4.26-5.44,7.15-10.15,8.14-4.14.87-7.86-.04-10.43-3.6-2.47-3.42-2.45-7.17-.22-10.66,1.92-3,2.28-6.04,1.11-9.26-1.12-3.08-2.44-6.08-3.68-9.11-1.22-2.97-2.51-5.95-2.6-9.19-.15-5.28-1.6-10.24-3.35-15.13-.99-2.77-2.26-5.42-4.42-7.51-1.51-1.46-3.28-2.23-5.43-1.83-1.46.27-1.96.79-1.85,2.27.04.58.3,1.24.69,1.66.71.77,1.55,1.42,2.39,2.05,1.78,1.34,3.67,2.54,5.36,3.97,3.57,3.02,5.14,6.98,4.09,11.53-.92,3.98-.77,7.9-.4,11.87.57,6.22,1.28,12.43,1.72,18.66.73,10.27-.02,20.44-2.6,30.45-1.06,4.12-2.44,8.08-5.27,11.36-3.77,4.37-8.45,6.58-14.26,5.35-3.04-.64-6.01-1.69-8.97-2.67-2.3-.76-4.26-2.13-5.88-3.93-2.58-2.85-4.38-6.19-5.63-9.79-.97-2.79-.4-5.48,1.69-7.59,1.39-1.4,3.06-2.52,4.63-3.74,1.48-1.15,3.04-2.19,4.47-3.4,1.02-.86,1.53-2.12.98-3.39-1.23-2.84-2.05-5.76-2.29-8.89-.9.85-1.65,1.7-2.53,2.38-3.4,2.64-7.43,3.26-11.56,3.59-.6.05-1.23.21-1.75.5-4.54,2.59-7.13,6.53-7.54,11.71-.25,3.18-.13,6.39-.05,9.59.24,9.84-.71,19.58-2.37,29.27-.71,4.15-2.73,7.36-6.75,9.05-3.89,1.64-7.78.28-9.31-3.65-1.17-2.99-2.17-6.15-2.58-9.32-.82-6.39-1.18-12.83-1.74-19.25-.17-1.94-.01-4-.61-5.81-1.73-5.2-1.86-10.52-1.68-15.87.23-7.06.61-14.12.88-21.18.16-4.37-.02-8.77.38-13.12,1.14-12.4,2.6-24.78,3.71-37.18.46-5.12.81-10.33.35-15.43-.57-6.31-1.8-12.6-3.18-18.8-2.51-11.26-4.06-22.6-3.89-34.14.08-5.54.49-11.08.66-16.62.17-5.67,1.52-11.03,3.89-16.17.47-1.02.86-2.1,1.16-3.19.62-2.28.4-4.55-.16-6.83-.88-3.56-2-7.02-3.71-10.51-.11.56-.19.9-.25,1.23-1.36,8-2.74,16-4.08,24.01-.98,5.89-2.24,11.76-2.77,17.69-.51,5.7-.46,11.48-.26,17.21.31,8.93.91,17.86,1.48,26.78.64,10.02,1.45,20.02,2.03,30.04.45,7.81.12,15.61-.36,23.42-.56,8.95-2.33,17.72-3.48,26.59-.52,4.02-.98,8.1-.88,12.13.13,5.61.8,11.21,1.26,16.82.75,9.23,1.31,18.47.4,27.73-.47,4.84-1.33,9.6-3.34,14.07-2.12,4.7-5.28,8.37-10.37,10.02-4.13,1.34-8.15-1.1-8.8-5.39-1.74-11.53-2.59-23.13-2.75-34.78-.1-7.38-.06-14.77.16-22.15.29-9.72.74-19.43,1.26-29.14.7-13.18,1.54-26.36,1.36-39.58-.1-7.78-.61-15.53-2.39-23.14-1.19-5.06-2.91-9.89-6.17-14.03-.58-.74-1.46-1.24-2.39-2.01-1.02,4.27-1.46,8.22-1.18,12.14.52,7.2,1.33,14.38,2.17,21.55.94,8,1.76,16,1.44,24.07-.18,4.45-.51,8.91-.35,13.35.53,14.48,1.34,28.94,1.88,43.42.4,10.71.15,21.41-1.51,32.02-.8,5.11-1.99,10.12-4.49,14.71-1.85,3.41-5.59,5.23-9.25,4.6-3.96-.68-6.98-3.44-7.5-7.34-.44-3.24-.66-6.54-.63-9.81.08-8.01.44-16.01.55-24.01.07-5.38-.83-10.54-2.86-15.64-3.81-9.56-7.14-19.32-10.64-29.01-.75-2.08-1.4-4.2-2.09-6.3-.24.3-.31.58-.33.87-.91,15.45-1.58,30.89-1.03,46.38.37,10.55,1.27,21.04,3.04,31.46.34,1.99.79,3.97.31,6.04-.89,3.87-4.16,6.63-7.61,6.28-2.16-.22-3.88-1.41-5.06-3.09-1.78-2.55-3.62-5.14-4.87-7.96-3.01-6.81-5.62-13.8-8.53-20.66-2.98-7.03-5.18-14.49-11.46-19.69-2.59-2.15-4.67-4.92-6.94-7.45-6.42-7.18-12.51-14.59-17-23.19-3.1-5.94-5.21-12.2-5.62-18.94-.52-8.41,1.67-16.15,5.8-23.42.44-.77.81-1.61,1.04-2.46,1.27-4.75,2.55-9.5,3.7-14.28,2.24-9.33,4.2-18.74,7.29-27.85,1.12-3.28,2.44-6.5,3.74-9.71,2.08-5.13,5.69-8.89,10.52-11.54,1.95-1.07,3.91-2.12,5.83-3.25,1.31-.78,2.46-1.83,2.57-3.44.22-3.24-.8-6.23-2.16-9.11-.38-.81-1.14-.98-1.87-.49-1.04.69-2.11,1.36-2.99,2.23-4.06,3.98-7.06,8.75-9.75,13.7-12.63,23.2-21.31,47.77-25.26,73.94-.96,6.35-1.28,12.75-.57,19.16.18,1.63.55,3.24.69,4.87.4,4.44-1.18,8.39-3.3,12.13-2.05,3.6-3.46,7.4-4.51,11.38-.73,2.78-1.65,5.53-2.72,8.21-1.09,2.75-2.88,5.04-5.6,6.38-1.02.5-2.23.99-3.31.91-2.31-.17-4.33-1.23-6.01-2.88-2.85-2.8-3.97-6.4-4.54-10.19-1.03-6.78-.44-13.56.1-20.34.39-4.86.72-9.73,1.04-14.6.04-.66-.11-1.33-.17-2-.12-.04-.23-.09-.35-.13-1.76,1.7-3.52,3.4-5.29,5.09-4.33,4.13-8.65,8.28-13.7,11.53-1.65,1.06-3.48,1.98-5.35,2.54-3.18.95-5.6-.87-5.89-4.16-.25-2.8.57-5.43,1.57-7.97,4.56-11.67,11.13-22.19,18.95-31.9,3.39-4.22,7.4-7.94,10.96-12.02,4.9-5.62,9.77-11.28,14.44-17.09,2.99-3.72,5.34-7.89,6.76-12.5.29-.93.46-1.9.76-3.16-.56.39-.83.54-1.07.74-3.69,3.14-7.52,6.12-11.02,9.46-7.21,6.87-13.3,14.71-18.96,22.89-6.27,9.06-11.85,18.56-17.31,28.12-.21.36-.44.83-.78.97-3.06,1.31-6.17,2.49-9.6,2.19-2.62-.23-4.61-1.95-5.22-4.49-.53-2.23-.19-4.43.37-6.6,1.39-5.33,3.85-10.21,6.47-15.01,6.63-12.16,14.45-23.56,22.58-34.75.23-.31.44-.64.66-.96-.13-.12-.26-.24-.39-.35-3.37,2.95-6.87,5.77-10.08,8.88-7.96,7.73-14.41,16.67-19.75,26.36-3.7,6.73-6.96,13.7-10.35,20.6-2.33,4.74-6.1,7.29-11.32,7.34-5.13.05-9.05-2.31-11.3-6.97-1.21-2.52-2.13-5.19-2.96-7.87-.66-2.14-.98-4.38-1.45-6.58,0-1.8,0-3.6,0-5.39.78-2.92,1.53-5.85,2.35-8.76.46-1.61,1-3.2,1.59-4.77,1.13-3,3.28-4.86,6.3-6,2.2-.83,4.33-1.99,6.26-3.33,1.78-1.23,3.26-2.9,4.87-4.38,7.09-6.53,15-12,22.86-17.54,7.76-5.47,15.51-10.96,22.21-17.76,6.18-6.27,10.96-13.39,13.66-21.84.13-.4.35-.78.58-1.14,1.76-2.72,3.5-5.46,5.32-8.14,3.5-5.14,7.02-10.28,11.58-14.55,1.71-1.6,3.72-2.99,5.8-4.07,2.12-1.11,4.48-.84,6.16,1,1.81,1.99,3.15,4.32,2.13,7.2-3.22,9.1-6.13,18.28-7.4,27.89-.44,3.34-.72,6.7.01,10.03.8,3.67,2.44,4.61,5.79,2.93,2.49-1.25,4.9-2.79,7.04-4.57,7.16-5.94,13.19-12.96,18.88-20.3,2.85-3.67,5.72-7.33,8.75-10.85,2.48-2.88,5.33-5.41,8.91-6.91,3.92-1.64,7.47-.94,10.36,2.16,1.04,1.12,1.85,2.45,2.71,3.62,2.66-2.83,5.26-5.74,8.01-8.5,2.18-2.18,4.53-4.22,7.54-5.23,3.29-1.1,6,.36,6.77,3.74.29,1.27.34,2.64.29,3.95-.15,3.7-1.14,7.24-2.29,10.73-2.26,6.89-5.3,13.42-9,19.65-2.34,3.93-3.26,8.1-2.69,12.68.62,5.04,1.24,10.09,1.44,15.16.37,9.6.52,19.21.61,28.81.04,4.56-.21,9.13-.42,13.7-.31,6.55-.73,13.1-1.06,19.65-.02.43.15,1,.45,1.3,2.32,2.42,4.78,4.7,7.01,7.19,1.81,2.02,3.36,4.27,5.13,6.55,0-.5.03-.83,0-1.15-1.16-10.52-2.43-21.03-3.47-31.56-1.3-13.03-1.99-26.09-1.43-39.19.39-9,1.36-17.91,3.86-26.6,1.94-6.75,4.09-13.44,5.88-20.22,3.12-11.81,3.94-23.76,1.87-35.87-1.59-9.29-1.51-18.59.43-27.83.11-.54.5-1.2.96-1.45,1.18-.65,2.46-1.11,3.7-1.64ZM138.14,196.19c-.05,0-.11,0-.16,0,0,1.48-.01,2.96,0,4.44.02,1.88.04,3.75.13,5.63.05,1.01.62,1.52,1.61,1.01.79-.4,1.6-.87,2.2-1.5.88-.92,1.56-2.02,2.35-3.03,1.97-2.53,3.38-5.26,3.89-8.5.73-4.69,1.83-9.33,2.51-14.03.5-3.46.94-7,.79-10.48-.22-5.04.35-9.84,2.07-14.59.72-1.99,1.23-4.25,1.05-6.32-.61-6.96-1.55-13.89-2.44-20.82-.17-1.36-.78-2.67-.96-4.03-.13-.99-.53-1.57-1.44-1.8-.85-.22-1.34.29-1.7.99-1.57,3.01-3.2,5.99-4.69,9.03-.46.94-.76,2.06-.78,3.1-.14,7.22-.99,14.35-2.64,21.37-1.66,7.06-3.02,14.16-2.77,21.44.21,6.03.64,12.04.98,18.07ZM271.32,130.84c-.98,2.28-1.64,4.35-1.44,6.75.51,6.13.82,12.27,1.18,18.41.2,3.42-.07,6.93.59,10.26,1.5,7.56,1.42,15.06.34,22.64-.62,4.34-.98,8.73-1.25,13.11-.19,3.06.6,3.65,3.67,3.44.08,0,.16-.02.24-.03,1.73-.16,2.58-.91,2.71-2.61.36-4.58.83-9.16.95-13.75.18-6.99,0-13.99.15-20.99.17-7.95-.42-15.8-2.24-23.55-1.09-4.67-2.58-9.21-4.89-13.69ZM317.13,152.52c1.04-7.63,1.58-15.22-3.76-22.14-1.26,8,.86,15.12,3.76,22.14Z"/>
</svg>