<?xml version="1.0" encoding="UTF-8"?>
<svg id="a" data-name="svg-four" xmlns="http://www.w3.org/2000/svg" viewBox="0 0 468.32 172.4">
  <path d="M466.32,88.53c-2.91-12.24-5.11-24.66-6.78-37.17-1.85-13.57-3.96-27.04-4.14-40.78-.09-4.93-1.85-7.05-6.69-7.22-5.99-.18-11.98-.44-17.97.53-5.46.97-10.48,5.73-10.13,9.6.53,7.14.7,14.36,1.67,21.41.97,6.96-.62,15.77,9.43,18.23.44.09,1.41.26,1.41,1.32-.97,1.94-3.7,2.47-4.67,4.67-1.76,3.79-.79,7.49.88,10.83,4.23,8.63,9.16,16.91,11.01,26.51,1.06,5.11,2.11,10.75-.09,15.33-2.73,5.64-4.58,11.36-5.99,17.44-.62,2.73-.62,6.08-3.52,7.84-1.59-.44-1.94-1.59-2.38-2.91-1.94-5.81.26-11.1,2.64-16.03,4.14-8.63,4.67-16.91,1.23-26.16-5.73-15.59-11.72-31.18-13.48-47.92-1.06-10.57-2.99-21.14-2.91-31.89.09-5.55-6.43-12.16-11.98-12.16-10.48,0-20.88.09-31.36,0-1.76,0-2.99.79-3.44,2.03-.79,2.2-1.67,4.32-1.94,6.69-.62,5.64,1.94,10.04,4.14,14.71,1.23,2.55,1.94,5.29-1.15,7.4-4.93,3.44-6.25,6.43-4.14,11.89,3.44,9.07,3.52,18.06,1.76,27.31-.53,2.99.44,5.29,2.55,7.4,3.88,3.79,5.99,8.54,6.34,13.74,1.32,20.79-.62,41.4-4.05,61.93-.81,4.98-1.38,8-.8,10.23-3.95-3.75-6-2.23-6.07-4.68-.18-8.02,2.2-15.68,3.7-23.43,2.38-12.16,4.67-24.22,4.23-36.73-.18-6.34-1.76-12.16-6.78-16.56-2.64-2.38-3.88-5.46-4.23-9.16-.7-7.49-.44-14.89-.44-22.37,0-1.5.44-3.17-.79-4.58-2.19,0-9.22.36-8.75-1.91.06-.28.08-.53.08-.77.27-1.9.42-4.21.39-6.92,4.05-1.23,5.46-3.61,5.02-7.66-.62-3.7.79-6.61,3.7-9.16,2.29-2.03,3.08-4.58,1.5-8.02-1.76-3.88-3.96-6.34-8.19-7.14-1.94-.35-4.05-.7-5.73-2.11-1.06-.88-2.55-.79-3.79-.35-4.49,1.59-8.98,3.08-13.3,5.11-9.6,4.49-11.01,13.04-3.52,20.26.7.7,1.5,1.41,2.29,2.11,3.35,2.99,7.75,4.93,9.78,9.43.53,1.32,1.94,1.15,3.35.88.27,1.69.6,3.17.97,4.45,0,.08,0,.17.01.25.26,2.12-.84,1.46-4.58,1.98-3.57.5-6.86,2.39-7.33,5.56-.62,4.14-.62,8.37.62,12.42,3.44,11.54,8.46,22.55,12.33,34,.97,2.91,2.99,5.81,2.03,9.51-2.11-1.5-2.64-5.29-5.46-4.49-2.64.7-2.29,4.14-3.26,6.34-.26.53-.35,1.23-.44,1.85-1.32,9.07-1.85,18.23-1.76,27.75-.22,3.8-2.69,1.9-1.51,7.79h0c-1.63-4.16-3.52-8.42-2.8-12.37,1.06-5.64,1.32-11.36,1.41-17.18.09-9.16-.88-18.23-1.41-27.4-1.06-17.62-5.64-34.44-10.13-51.35-2.73-10.22-5.37-20.52-7.49-30.92-.53-2.82-.09-7.22-5.29-7.05-12.16.35-24.22.53-36.38,1.06-5.55.18-6.69,2.99-4.14,7.84,2.82,5.29,6.87,9.95,8.37,15.94,2.73,10.83,4.93,21.85,5.2,33.03.18,9.6.44,19.29-1.94,28.8-.92,3.53-2.58,6.96-3.35,10.44.16-2.07.32-4.09.69-5.98,1.06-6.43,2.21-12.93,1.69-19.71-.88-10.13-2.29-20.26-2.47-30.48-.09-3.88-1.15-7.66-2.29-11.45-2.64-8.81-8.02-15.77-13.65-22.81-3.61-4.49-7.58-6.61-13.21-6.61-9.95,0-19.82.53-29.77.88-3.7.09-5.73,1.94-5.99,5.64-.09,1.85-.35,3.79.09,5.46.97,3.26-.35,5.81-1.85,8.46-2.38,4.05-5.9,7.14-9.43,10.22-2.73,2.38-2.73,5.2-2.03,8.1.35,1.67,1.59,3.26,2.38,4.84,2.91,5.73,8.02,10.13,10.48,16.03,1.32,2.99,2.55,3.88,5.81,2.91,5.02-1.5,6.08-.44,6.17,4.67,0,2.2-.44,4.23-1.41,6.34-2.91,6.25-7.31,11.54-11.8,16.65-3.44,3.88-3.44,8.19-1.67,12.24,3.26,7.4,5.9,14.89,5.9,23.08,0,9.6.62,19.29-4.49,28.28-1.15.7-.18-.53-.62-.7-.18-9.69-.79-18.94-.26-28.19.44-7.14-.62-13.65-3.88-19.91-3.26-6.34-2.64-12.16,2.2-17.53,3.08-3.44,5.99-7.05,8.9-10.66,1.15-1.32,2.2-2.64,2.82-4.4.44-1.32.44-2.38-.35-3.26-.16-.17-.32-.28-.48-.37-.27-.21-.61-.42-1.04-.66-1.06-.58-1.96-1.41-2.66-2.4-2.98-4.25-9.42-12.25-12.03-14.54-2.91-2.64-5.64-5.55-7.75-8.9-3.26-5.29-3.17-7.22,1.32-11.54,3.96-3.88,8.19-7.4,10.92-12.42,3.35-6.08-.18-14.53-6.87-15.68-3.88-.62-7.75-.88-11.72-.7-23.08.79-46.16,1.59-69.32,2.11-3.44.09-6.87.35-9.87,1.85-3.26,1.59-8.19,2.47-8.02,7.31.09,5.64.09,11.1-1.67,16.56-1.06,3.17-1.76,6.52-1.67,9.95.18,6.96,1.06,13.83-1.23,20.79-1.32,4.14.97,7.22,4.76,8.02,11.28,2.47,22.73,4.32,34.62,4.93,14.18,2.03,28.19,2.91,42.11,1.23,5.46-.62,11.36-2.03,14.89-6.52.58-.74,1.15-1.34,1.73-1.81,3.27-2.67,13.44,2.11,9.35,3.16-2.13.54-3.7,1-4.81,1.4-1.82.55-3.61,1.3-5.39,1.93-5.9,2.03-11.63,4.76-18.41,7.66,7.4,15.06,13.3,30.57,9.6,47.92-5.02-.18-9.69-2.03-13.74-5.11-4.23-3.26-3.7-5.81,1.32-7.93,5.64-2.29,6.87-4.76,5.2-10.04-.35-1.06-.88-2.2-1.59-3.08-5.46-6.61-9.51-13.74-9.34-22.55-11.63-1.59-22.9-1.15-34.09-1.94-11.1-.7-21.58-4.84-32.33-6.17-1.5,1.59-.97,3.08-1.32,4.49-2.64,10.75-4.14,21.23,7.84,27.92.44.26.79.7,1.15,1.06,2.55,2.82,3.44,8.1,1.5,11.19-2.78,4.4-3.77,8.78-3.49,13.26-2.02-3.09-4.3-5.64-3.03-9.39,2.38-6.78.53-12.07-4.32-16.82-.7-.7-1.5-1.32-2.11-2.11-2.2-2.91-3.7-5.9-3.61-9.87.26-11.72.18-23.34.09-34.97,0-10.66,2.03-21.05,3.96-31.36,1.76-9.78-.62-16.82-10.13-20.96-7.14-3.17-14.97-4.49-22.73-.97-1.41.62-2.64.88-4.14.97-5.81.53-10.92,5.55-11.1,11.36-.35,13.57-.97,27.13-.35,40.78.44,10.83.88,21.76-1.5,32.77-1.32-1.15-1.06-2.47-.97-3.52,1.67-21.67-.7-43.34-.35-65.1.09-1.32.18-2.55-.35-3.88C39.54.09,20.95-3.7,6.86,3.7,1.93,6.34.87,10.48,3.16,15.68c1.32,2.82,2.99,5.64,3.08,8.72.18,9.16.7,18.32-.26,27.48-1.06,10.57-1.76,21.14-1.59,31.71.18,9.25.44,18.59.53,27.84.09,5.55-1.32,10.83-2.64,16.12-2.82,11.45-3.61,22.81,1.06,34,2.47,5.99,4.58,6.52,9.6,2.38,8.46-6.96,13.3-16.38,16.82-26.43,1.32-3.61,3.61-8.19-1.06-11.98-2.03-2.03-3.88-3.96-5.73-5.81-4.58-4.14-5.02-7.05-2.82-13.12.79-2.2,1.59-4.4,2.03-6.69,2.47-11.89,4.32-23.78,5.46-35.85.18-1.59-.26-2.91-.97-4.05-2.2-3.44-3.88-7.22-5.37-11.01-1.85-4.67-3.61-9.43-2.38-14.71.7-3.17,2.64-4.23,5.29-4.84,2.64-.7,4.84.09,6.52,2.2,2.55,3.08,3.17,6.78,3.17,10.57,0,1.23-.18,2.99-1.59,3.26-4.32.79-4.14,4.14-3.61,6.87,1.41,6.43.97,13.04,2.2,19.47,1.94,10.39.62,20.35-3.44,30.13-3.17,7.66-2.99,7.75,3.44,12.86,3.88,3.08,5.81,7.31,6.96,11.98,2.03,8.46-.09,16.38-2.55,24.4-1.27,4.15-3.19,8.45-2.01,12.92.09.34.37.61.72.71,5.63,1.57,11.26,2.28,16.98,1.25,10.31-1.85,10.04-.35,11.36-12.42.53-5.02-.79-10.04.35-14.89,2.82-11.45,3.7-23.17,4.14-34.88.62-15.94,1.23-31.8,4.49-47.48.97-4.67-1.41-7.31-6.25-7.66-1.32-.08-2.84.53-4.03-.53-.31-.27-.39-.73-.23-1.11,1.47-3.3,4.75-4.93,7.25-7.35,4.84-4.67,5.37-6.96,2.29-12.68,0,0,0-.01,0-.02-.38-.71.02-1.57.83-1.57h8.82c.63,0,1.1.57,1,1.18-.78,4.84-1.38,9.41-2.36,14.06-2.47,12.16-4.76,24.49-6.78,36.73-1.59,9.95-3.26,20.08-2.64,30.3.53,7.75,3.08,14.27,11.72,16.65,1.67.48,4.2.74,5.33,2.86.22.41.1.93-.26,1.23-.15.13-.27.23-.4.32-6.61,4.14-13.3,8.37-17.97,14.89-3.17,4.49-2.2,7.93,2.82,10.31,9.65,4.61,19.9,5.61,30.24,2.93.26-.07.27-.04,0,0-2.76.42,9.46,10.84,14.98,11.56,4.7,1.26,10.94.48,15.21-2.68,4.23-3.17,7.22-7.31,10.39-11.45,3.26-4.23,3.61-8.81,1.76-13.57-1.59-4.14-3.88-8.1-5.55-12.24-1.94-4.76-5.46-9.51-1.15-14.8,2.55-3.08,4.14-6.52,3.7-10.66-.18-1.85.7-3.08,2.73-3.52.62,4.58-.09,8.63-1.94,12.68-3.35,7.22-2.64,14.62,5.64,18.67,3.52,1.76,7.05,3.61,10.57,5.46,2.29,1.23,4.05,3.08,3.96,5.64-.09,2.73-2.73,3.44-4.84,4.14-4.49,1.5-6.34,4.93-7.31,9.16-.44,1.85.44,2.91,2.29,3.7,4.14,1.85,8.19.88,12.33.26,5.37-.79,10.75-.97,16.21.62,5.29,1.59,8.9,4.93,12.77,8.37,3.17,2.82,5.9,2.64,9.16,0,2.2-1.76,3.26-4.32,5.2-6.69.26.7.53,1.06.53,1.32-.62,5.64-.35,6.08,5.46,5.37,5.9-.7,11.8-1.85,17.71-2.73,5.11-.79,10.31-1.76,15.5-1.94,10.83-.35,16.38-4.84,19.64-15.24,2.37-7.53,4.41-13.97,6.34-21.58.02-.08.05-.17.07-.25,1.87-5.69,2.49-10.61,3.41-15.89.13-.73.42-1.9.68-2.59.58-1.56.95-3.17,1.2-4.79-.4,7.53-.66,15.08-2.62,22.37-2.03,7.75-2.82,15.77-5.73,23.34-1.85,4.84-3.44,9.78-3.61,14.97-.18,4.32,1.59,5.46,5.55,3.79,7.58-3.08,14.89-6.96,22.2-10.66,1.5-.79,2.91-1.76,3.44-3.52,1.23-3.7,2.29-7.49,1.59-11.45-2.03-11.19-1.5-22.37-1.41-33.65,0-4.76,2.2-6.08,6.52-4.14,2.47,1.06,4.67,2.55,7.31,2.99.53,2.2.09,4.05-.53,5.99-1.76,5.9-4.49,11.54-5.9,17.53-1.23,5.29-.79,10.66-1.67,16.3-.09,1.5-.18,2.73-.09,3.88.09,4.58,1.67,8.98,5.99,10.48,6.52,2.2,13.48,2.82,20.44.97,4.82-1.13,8.04-1.53,8.89-4.99,0,0,0,0,0,.01.93,3.59,2.43,4.4,5.56,6.03,7.22,3.83,34.15,7.57,42.69,7.99.09,0,.17,0,.26.01.02,0,.04,0,.06,0,1.72.07,2.64.03,2.98-.08,2.27-.16,4.55-.46,6.78-.26,3.7.35,7.49,1.76,11.72,1.06-.7-2.47-1.23-4.58-1.94-6.61-2.2-6.25-4.32-12.33-4.05-19.2.26-5.9,1.15-11.72,1.59-17.53.79-10.66-1.15-21.05-2.55-31.54-1.67-11.98-3.08-23.96-4.58-36.03-1.32-11.19-.35-22.37-.79-33.83,1.32.79,1.41,1.85,1.5,2.64,1.15,8.9,2.29,17.88,3.35,26.78,1.23,11.01,2.47,22.02,3.79,33.03.7,5.81,1.85,11.63,2.47,17.44,1.15,10.31-.97,20.7,1.5,31.09,2.2,9.07,3.26,18.41,4.93,27.57.35,1.76,1.67,3.26,3.7,1.76,3.44-2.47,7.22-2.03,10.92-1.67,5.11.44,10.13,1.06,15.15,1.76,2.91.35,5.73.18,8.54-.44,7.31-1.67,8.37-4.58,4.32-10.92-2.38-3.88-2.91-7.93-.44-12.16,2.55-4.4,5.2-8.81,7.14-13.92,2.38-5.9,4.49-11.54,5.37-17.62,1.32-8.19.62-16.12-1.32-24.31ZM179.86,61.66c-14.97,2.55-29.42,3.52-42.02-7.75-5.11-4.58-10.83-8.37-14.62-14.27-.44-.62-.62-1.41-1.06-2.38-.88-6.34,4.05-8.1,7.84-10.39,4.14-2.47,8.72-4.23,13.04-6.43,1.94-.97,3.96-1.85,5.11-3.96,1.41-2.47,3.7-2.82,6.08-2.03,2.55.97,2.73,3.44,2.38,5.64-.53,3.52-1.85,6.87-3.7,10.04-5.9,10.48-3.88,15.15,7.66,18.59,6.52,1.94,12.95,4.14,19.38,6.43,1.59.53,3.35,1.76,3.26,3.52.18,1.94-1.5,2.64-3.35,2.99ZM251.65,108.7c-1.32,6.61-2.82,13.12-5.11,19.47-.09.35-.26.7-.35,1.06-2.2,4.76-3.61,5.46-7.75,2.47-7.49-5.55-11.8-13.21-13.04-22.37-.62-4.4,1.67-6.61,6.43-6.78,4.58-.26,8.98-.35,11.98-4.67,2.11-3.08,2.38-6.52,2.55-9.95.44-7.58-1.06-15.06-2.2-22.55-.35-2.29-.7-4.58-1.15-7.22-1.59-8.02-2.29-15.86-1.67-23.7.18-2.11.18-4.93,2.99-5.11,2.73-.09,2.91,2.82,3.26,4.67,1.15,5.55,2.47,11.1,3.44,16.74,1.67,9.16,3.52,18.41,3.52,27.84.09,10.04-.88,20.08-2.91,30.13ZM312.35,89.32c-6.25.26-12.86-5.46-12.42-11.28.97-12.33-.62-24.4-2.91-36.73-.18-5.02-.26-9.78-.35-14.45,0-1.85.7-3.52,2.64-3.88,2.2-.35,2.38,1.85,2.64,3.17,2.03,11.63,4.84,23.08,5.9,34.88.62,6.96,2.38,13.74,3.79,20.61.62,2.55.97,5.02.7,7.66ZM375.17,167.35s0,0,0,0c.04.03.09.06.14.09-.09-.04-.15-.07-.14-.08Z"/>
</svg>