<?xml version="1.0" encoding="UTF-8"?>
<svg id="a" data-name="svg-four" xmlns="http://www.w3.org/2000/svg" viewBox="0 0 429.6 205.21">
  <g id="b" data-name="x1F7GH.tif">
    <path d="M151.73,97.08c1.71.11,3,.3,4.28.26,5.5-.21,10.75,1.4,16.12,2.11,3.81.51,7.71.47,11.56.41,4.1-.06,8.19-.57,12.19.8,5.53,1.9,8.62,6.05,8.83,11.86.07,2.04-1.15,3.69-3.17,4.49-1.38.55-3.08.32-4.14,1.75-.24.32-1.03.22-1.79.34.24-.48.38-.76.64-1.25-1.96,0-3.81.04-5.67,0-11.74-.29-23.48-.52-35.21-.94-5.06-.18-10.04-1.05-14.74-3.12-3.89-1.73-7.09-4.32-9.55-7.77-3.17-4.44-3.61-9.11-.84-13.9,2.59-4.48,6.03-8.23,10.23-11.26,12.02-8.67,25.42-13.86,40.03-16.18,8.56-1.36,17.13-2.31,25.82-2.07,6.38.18,12.59,1.28,18.75,2.87,4.83,1.25,9.72,2.28,14.62,3.23,4.15.8,7.67,2.42,9.93,6.2,3.49,5.82,7.07,11.59,10.55,17.41,4.86,8.13,4.83,16.64,1.63,25.27-1.13,3.04-2.62,5.94-4.02,8.87-1.65,3.45-4.73,5.49-7.71,7.59-9.71,6.8-20.47,11.36-31.76,14.78-10.47,3.18-20.97,6.35-31.83,7.9-7.77,1.11-15.63,1.89-23.46,2.15-9.87.32-19.77.25-29.64-.24-5.5-.28-10.98-1.58-16.41-2.73-9.82-2.08-19.6-4.36-29.38-6.62-1.57-.36-3.17-.88-4.53-1.7-4.8-2.91-9.49-6-14.24-8.99-5.32-3.35-8.45-8.25-9.99-14.24-2.04-7.91-3.08-15.88-1.07-23.96,1.14-4.58,3.33-8.62,6.97-11.67,9.72-8.15,19.44-16.32,29.33-24.26,7.52-6.04,16.39-9.7,25.29-13.18,13.82-5.41,27.88-10.09,42.67-12,9.91-1.28,19.85-2.33,29.81-3.17,17.46-1.48,34.93-.7,52.38.35,9.93.6,19.77,1.96,29.23,5.3,9.3,3.29,18.71,6.31,27.9,9.87,16.74,6.47,31.85,15.89,45.79,27.05,7.34,5.88,13.12,13.48,15.79,22.63,2.65,9.1,2.53,18.33-2.6,26.85-4.47,7.4-8.81,14.95-15.22,20.88-3.07,2.83-6.67,5.13-10.16,7.46-9.42,6.31-18.99,12.4-28.35,18.8-9.98,6.82-20.89,11.59-32.41,14.99-16.08,4.75-32.15,9.64-48.75,12.34-5.92.96-11.93,1.55-17.92,1.77-12.69.47-25.39.99-38.08.75-20.2-.37-40.18-3.1-59.97-7.18-5.99-1.23-12.01-2.4-17.88-4.06-5.87-1.66-11.57-3.92-17.36-5.88-9.98-3.39-19.96-6.79-29.98-10.09-2.66-.88-4.51-2.34-6.26-4.65-5.97-7.94-12.32-15.58-18.52-23.36-3.74-4.7-7.61-9.29-11.14-14.15-3.62-5-5.45-10.8-6.21-16.89-.81-6.51-1.55-13.04-2.06-19.58-.63-8.16,2.17-15.23,7.09-21.71,8.57-11.3,19.29-20.18,30.92-28.07,20.14-13.65,41.62-24.66,65.07-31.41,16.77-4.83,33.71-9.12,50.98-11.74,9.54-1.45,19.2-2.13,28.82-2.93,10.58-.88,21.18-1.49,31.77-2.23,20.1-1.39,40.18-2.01,60.25.41,10.2,1.23,20.45,2.16,30.58,3.83,13.04,2.15,25.66,5.9,37.8,11.28,3.46,1.53,7.25,2.31,10.87,3.48,22.63,7.37,44.3,16.74,63.44,31.2,3.64,2.75,7.03,5.78,9.64,9.58,2.73,3.99,3.1,8.1.73,11.28-2,2.67-4.78,4.43-8.05,5.18-3.15.72-5.63-.57-7.4-3.16-.92-1.34-1.67-2.79-2.45-4.22-1.17-2.13-2.9-3.51-5.24-4.17-4.47-1.26-8.71-3.08-12.44-5.84-11.38-8.44-24.25-14.03-37.08-19.7-2.52-1.11-5.09-2.1-7.54-3.33-6.54-3.27-13.69-4.59-20.61-6.67-3.38-1.02-6.71-2.22-10.14-3.06-4.68-1.15-9.47-1.87-14.13-3.07-9.38-2.42-18.99-2.67-28.56-3.34-10.7-.75-21.41-1.53-32.12-2.23-11.57-.76-23.15-.84-34.7.03-10.64.8-21.28,1.65-31.87,2.98-8.23,1.03-16.38,2.76-24.54,4.27-11.81,2.19-23.56,4.69-35.4,6.66-13.87,2.31-26.09,8.34-36.62,17.17-7.86,6.58-16.56,11.73-24.79,17.65-8.73,6.27-17.17,12.87-24.96,20.28-4.27,4.06-5.4,9.36-4.8,15.01.72,6.86,3.24,13.27,5.51,19.71,3.45,9.76,7.65,19.17,13.86,27.55,4.16,5.61,9.39,9.53,16.12,11.85,17.07,5.88,34.57,10.05,52.13,14.06,8.15,1.86,16.26,3.89,24.47,5.47,4.61.88,9.37,1.07,14.06,1.45,9.85.8,19.72,1.44,29.57,2.27,7.67.64,15.28.22,22.86-.86,19.34-2.76,38.61-5.97,57.58-10.69,14.68-3.65,28.42-9.72,41.75-16.78.15-.08.3-.17.45-.23,12.6-5.33,22.34-14.7,32.74-23.14,1.86-1.5,3.16-3.37,3.5-5.76.79-5.6,1.84-11.19,2.15-16.82.36-6.63-3.04-11.76-8.2-15.58-6.22-4.61-12.63-8.96-18.98-13.39-.96-.67-2.05-1.15-3.09-1.71-8.01-4.31-16.11-8.44-24-12.95-8.31-4.74-17.22-7.74-26.59-9.15-14.15-2.13-28.38-3.79-42.54-5.84-3.29-.48-6.33.3-9.49.65-5.3.59-10.64.83-15.93,1.48-5.12.63-10.23,1.42-15.27,2.47-8.35,1.75-16.63,3.79-24.95,5.66-8.84,2-17.44,4.71-25.65,8.56-10.77,5.05-21.52,10.14-32.24,15.27-5.36,2.56-8.71,7.14-11.57,12.11-.64,1.12-.74,2.56-1.04,3.87-.93,4.09-1.61,8.25-2.8,12.27-2.19,7.37.46,13.05,7.77,15.65,2.04.73,4.21,1.34,6.36,1.5,4.99.38,9.79,1.36,14.64,2.67,9.25,2.5,18.68,4.34,28.03,6.49,1.75.4,3.54.78,5.16,1.5,4.27,1.9,8.66,1.65,13.19,1.48,15.1-.57,29.3-5.15,43.32-9.99,9.66-3.33,18.71-8.37,28.15-12.37,5.46-2.31,9.39-6.18,12.9-10.72,2.71-3.52,3.7-7.44,2.55-11.72-.45-1.66-1.3-3.43-2.5-4.62-2.54-2.52-5.27-4.93-8.24-6.92-1.63-1.09-3.87-1.4-5.89-1.77-7.78-1.42-15.55-3.02-23.4-3.93-3.23-.38-6.63.82-9.95,1.29-10.76,1.54-21.13,4.66-31.5,7.75-.93.28-1.86.8-2.6,1.43-1.7,1.44-3.28,3.02-5.23,4.85v-.02Z"/>
  </g>
</svg>