<?xml version="1.0" encoding="utf-8"?>
<!-- Generator: Adobe Adobe Illustrator 28.1.0, SVG Export Plug-In . SVG Version: 6.00 Build 0)  -->
<svg version="1.1" id="Layer_1" xmlns="http://www.w3.org/2000/svg" xmlns:xlink="http://www.w3.org/1999/xlink" x="0px" y="0px"
	 viewBox="0 0 612 263.4" style="enable-background:new 0 0 612 263.4;" xml:space="preserve">
<g>
	<path d="M564.9,181.9c-2.2,5.8-5.2,10.8-8.1,15.8c-2.8,4.8-2.2,9.4,0.5,13.8c4.6,7.2,3.4,10.5-4.9,12.4c-3.2,0.7-6.4,0.9-9.7,0.5
		c-5.7-0.8-11.4-1.5-17.2-2c-4.2-0.4-8.5-0.9-12.4,1.9c-2.3,1.7-3.8,0-4.2-2c-1.9-10.4-3.1-21-5.6-31.3c-2.8-11.8-0.4-23.6-1.7-35.3
		c-0.7-6.6-2-13.2-2.8-19.8c-1.5-12.5-2.9-25-4.3-37.5c-1.2-10.1-2.5-20.3-3.8-30.4c-0.1-0.9-0.2-2.1-1.7-3
		c0.5,13-0.6,25.7,0.9,38.4c1.7,13.7,3.3,27.3,5.2,40.9c1.6,11.9,3.8,23.7,2.9,35.8c-0.5,6.6-1.5,13.2-1.8,19.9
		c-0.3,7.8,2.1,14.7,4.6,21.8c0.8,2.3,1.4,4.7,2.2,7.5c-4.8,0.8-9.1-0.8-13.3-1.2c-5.4-0.5-11,1.6-16.3-0.7
		c-13.1-5.6-12.4-6.9-10.3-19.8c3.9-23.3,6.1-46.7,4.6-70.3c-0.4-5.9-2.8-11.3-7.2-15.6c-2.4-2.4-3.5-5-2.9-8.4
		c2-10.5,1.9-20.7-2-31c-2.4-6.2-0.9-9.6,4.7-13.5c3.5-2.4,2.7-5.5,1.3-8.4c-2.5-5.3-5.4-10.3-4.7-16.7c0.3-2.7,1.3-5.1,2.2-7.6
		c0.5-1.4,1.9-2.3,3.9-2.3c11.9,0.1,23.7,0,35.6,0c6.3,0,13.7,7.5,13.6,13.8c-0.1,12.2,2.1,24.2,3.3,36.2c2,19,8.8,36.7,15.3,54.4
		c3.9,10.5,3.3,19.9-1.4,29.7c-2.7,5.6-5.2,11.6-3,18.2c0.5,1.5,0.9,2.8,2.7,3.3c3.3-2,3.3-5.8,4-8.9c1.6-6.9,3.7-13.4,6.8-19.8
		c2.5-5.2,1.3-11.6,0.1-17.4c-2.1-10.9-7.7-20.3-12.5-30.1c-1.9-3.8-3-8-1-12.3c1.1-2.5,4.2-3.1,5.3-5.3c0-1.2-1.1-1.4-1.6-1.5
		c-11.4-2.8-9.6-12.8-10.7-20.7c-1.1-8-1.3-16.2-1.9-24.3c-0.4-4.4,5.3-9.8,11.5-10.9c6.8-1.1,13.6-0.8,20.4-0.6
		c5.5,0.2,7.5,2.6,7.6,8.2c0.2,15.6,2.6,30.9,4.7,46.3c1.9,14.2,4.4,28.3,7.7,42.2c2.2,9.3,3,18.3,1.5,27.6
		C570,168.8,567.6,175.2,564.9,181.9z"/>
	<path d="M72.7,176.3c5.3,4.3,2.7,9.5,1.2,13.6c-4,11.4-9.5,22.1-19.1,30c-5.7,4.7-8.1,4.1-10.9-2.7c-5.3-12.7-4.4-25.6-1.2-38.6
		c1.5-6,3.1-12,3-18.3c-0.1-10.5-0.4-21.1-0.6-31.6c-0.2-12,0.6-24,1.8-36c1.1-10.4,0.5-20.8,0.3-31.2c-0.1-3.5-2-6.7-3.5-9.9
		c-2.6-5.9-1.4-10.6,4.2-13.6c16-8.4,37.1-4.1,45.2,15.4c0.6,1.5,0.5,2.9,0.4,4.4c-0.4,24.7,2.3,49.3,0.4,73.9
		c-0.1,1.2-0.4,2.7,1.1,4c2.7-12.5,2.2-24.9,1.7-37.2c-0.7-15.5,0-30.9,0.4-46.3c0.2-6.6,6-12.3,12.6-12.9c1.7-0.1,3.1-0.4,4.7-1.1
		c8.8-4,17.7-2.5,25.8,1.1C151,44,153.7,52,151.7,63.1c-2.2,11.7-4.5,23.5-4.5,35.6c0.1,13.2,0.2,26.4-0.1,39.7
		c-0.1,4.5,1.6,7.9,4.1,11.2c0.7,0.9,1.6,1.6,2.4,2.4c5.5,5.4,7.6,11.4,4.9,19.1c-1.9,5.6-0.4,11.3,1.8,16.7c1.4,3.3,2.5,6.8,3,10.5
		c1.3,9.6,0.7,11.1-8.4,13.5c-11.9,3.2-23.7,2.1-34.8-3.2c-5.7-2.7-6.8-6.6-3.2-11.7c5.3-7.4,12.9-12.2,20.4-16.9
		c0.3-0.2,0.6-0.5,1.1-0.9c-1-3.2-4.3-3.5-6.4-4.1c-9.8-2.7-12.7-10.1-13.3-18.9c-0.7-11.6,1.2-23.1,3-34.4
		c2.3-13.9,4.9-27.9,7.7-41.7c1.2-5.7,1.9-11.3,2.9-17.3c-4.7,0-9,0-13.3,0c-0.3,1,0.7,1.2,1,1.8c3.5,6.5,2.9,9.1-2.6,14.4
		c-3,2.9-7,4.8-8.5,9c1.4,2,3.4,1.1,5.1,1.2c5.5,0.4,8.2,3.4,7.1,8.7c-3.7,17.8-4.4,35.8-5.1,53.9c-0.5,13.3-1.5,26.6-4.7,39.6
		c-1.3,5.5,0.2,11.2-0.4,16.9c-1.5,13.7-1.2,12-12.9,14.1c-6.7,1.2-13.3,0.3-19.9-1.6c-1.7-5.3,0.6-10.4,2.1-15.3
		c2.8-9.1,5.2-18.1,2.9-27.7c-1.3-5.3-3.5-10.1-7.9-13.6c-7.3-5.8-7.5-5.9-3.9-14.6c4.6-11.1,6.1-22.4,3.9-34.2
		c-1.4-7.3-0.9-14.8-2.5-22.1c-0.6-3.1-0.8-6.9,4.1-7.8c1.6-0.3,1.8-2.3,1.8-3.7c0-4.3-0.7-8.5-3.6-12c-1.9-2.4-4.4-3.3-7.4-2.5
		c-3,0.7-5.2,1.9-6,5.5c-1.4,6,0.6,11.4,2.7,16.7c1.7,4.3,3.6,8.6,6.1,12.5c0.8,1.3,1.3,2.8,1.1,4.6c-1.3,13.7-3.4,27.2-6.2,40.7
		c-0.5,2.6-1.4,5.1-2.3,7.6c-2.5,6.9-2,10.2,3.2,14.9C68.3,171.8,70.4,174,72.7,176.3z"/>
	<path d="M423.1,191.8c-0.1-10.8,0.5-21.2,2-31.5c0.1-0.7,0.2-1.5,0.5-2.1c1.1-2.5,0.7-6.4,3.7-7.2c3.2-0.9,3.8,3.4,6.2,5.1
		c1.1-4.2-1.2-7.5-2.3-10.8c-4.4-13-10.1-25.5-14-38.6c-1.4-4.6-1.4-9.4-0.7-14.1c0.8-5.4,2.3-6.7,7.5-6.8c8.1-0.1,16.3,0,24.4,0
		c1.4,1.6,0.9,3.5,0.9,5.2c0,8.5-0.3,16.9,0.5,25.4c0.4,4.2,1.8,7.7,4.8,10.4c5.7,5,7.5,11.6,7.7,18.8c0.5,14.2-2.1,27.9-4.8,41.7
		c-1.7,8.8-4.4,17.5-4.2,26.6c0.1,3.5-0.4,7,1.9,9.9c-0.3,0.4-0.4,0.7-0.5,0.7c-9.3,0-18.6-0.7-26.9-5.1c-4.6-2.4-5.7-7.5-6.4-12.3
		C422.7,202,422.8,197.1,423.1,191.8z"/>
	<path d="M441,74.9c-3.6,1.2-6.6,3.1-10.1,3.8c-1.6,0.3-3.2,0.5-3.8-1c-2.3-5.1-7.3-7.3-11.1-10.7c-0.9-0.8-1.8-1.6-2.6-2.4
		c-8.5-8.2-6.9-17.9,4-23c4.9-2.3,10-4,15.1-5.8c1.4-0.5,3.1-0.6,4.3,0.4c1.9,1.6,4.3,2,6.5,2.4c4.8,0.9,7.3,3.7,9.3,8.1
		c1.8,3.9,0.9,6.8-1.7,9.1c-3.3,2.9-4.9,6.2-4.2,10.4C447.2,70.8,445.6,73.5,441,74.9z"/>
	<path d="M358.3,115.7c-1-11.5-2.6-23-2.8-34.6c-0.1-4.4-1.3-8.7-2.6-13c-3-10-9.1-17.9-15.5-25.9c-4.1-5.1-8.6-7.5-15-7.5
		c-11.3,0-22.5,0.6-33.8,1c-4.2,0.1-6.5,2.2-6.8,6.4c-0.1,2.1-0.4,4.3,0.1,6.2c1.1,3.7-0.4,6.6-2.1,9.6c-2.7,4.6-6.7,8.1-10.7,11.6
		c-3.1,2.7-3.1,5.9-2.3,9.2c0.4,1.9,1.8,3.7,2.7,5.5c3.3,6.5,9.1,11.5,11.9,18.2c1.5,3.4,2.9,4.4,6.6,3.3c5.7-1.7,6.9-0.5,7,5.3
		c0,2.5-0.5,4.8-1.6,7.2c-3.3,7.1-8.3,13.1-13.4,18.9c-3.9,4.4-3.9,9.3-1.9,13.9c3.7,8.4,6.7,16.9,6.7,26.2
		c0,10.9,0.7,21.9-5.1,32.1c-1.3,0.8-0.2-0.6-0.7-0.8c-0.2-11-0.9-21.5-0.3-32c0.5-8.1-0.7-15.5-4.4-22.6c-3.7-7.2-3-13.8,2.5-19.9
		c3.5-3.9,6.8-8,10.1-12.1c1.3-1.5,2.5-3,3.2-5c0.5-1.5,0.5-2.7-0.4-3.7c-1.1-1.2-2.3-0.4-3.5,0.2c-2.5,1.2-5,3.8-7.7,2.4
		c-6.2-3.2-11.6-0.3-17,1.6c-6.7,2.3-13.2,5.4-20.9,8.7c8.4,17.1,15.1,34.7,10.9,54.4c-5.7-0.2-11-2.3-15.6-5.8
		c-4.8-3.7-4.2-6.6,1.5-9c6.4-2.6,7.8-5.4,5.9-11.4c-0.4-1.2-1-2.5-1.8-3.5c-6.2-7.5-10.8-15.6-10.6-25.6c-13.2-1.8-26-1.3-38.7-2.2
		c-12.6-0.8-24.5-5.5-36.7-7c-1.7,1.8-1.1,3.5-1.5,5.1c-3,12.2-4.7,24.1,8.9,31.7c0.5,0.3,0.9,0.8,1.3,1.2c2.9,3.2,3.9,9.2,1.7,12.7
		c-5.3,8.4-4.9,16.7-1.5,25.7c2.2,6.1,4.9,12.5,0.7,19c-0.3,0.4-0.2,1.2,0,1.7c3.7,9.5,13.6,16.3,23.6,8.9c4.8-3.6,8.2-8.3,11.8-13
		c3.7-4.8,4.1-10,2-15.4c-1.8-4.7-4.4-9.2-6.3-13.9c-2.2-5.4-6.2-10.8-1.3-16.8c2.9-3.5,4.7-7.4,4.2-12.1c-0.2-2.1,0.8-3.5,3.1-4
		c0.7,5.2-0.1,9.8-2.2,14.4c-3.8,8.2-3,16.6,6.4,21.2c4,2,8,4.1,12,6.2c2.6,1.4,4.6,3.5,4.5,6.4c-0.1,3.1-3.1,3.9-5.5,4.7
		c-5.1,1.7-7.2,5.6-8.3,10.4c-0.5,2.1,0.5,3.3,2.6,4.2c4.7,2.1,9.3,1,14,0.3c6.1-0.9,12.2-1.1,18.4,0.7c6,1.8,10.1,5.6,14.5,9.5
		c3.6,3.2,6.7,3,10.4,0c2.5-2,3.7-4.9,5.9-7.6c0.3,0.8,0.6,1.2,0.6,1.5c-0.7,6.4-0.4,6.9,6.2,6.1c6.7-0.8,13.4-2.1,20.1-3.1
		c5.8-0.9,11.7-2,17.6-2.2c12.3-0.4,18.6-5.5,22.3-17.3c2.7-8.6,4.4-17.4,6.6-26.1c1.6-6.7,2.9-13.5,3.9-20.4c0.9-6,1.8-11.9,3-17.9
		C356.4,130.5,358.9,123.4,358.3,115.7z M325.8,157.2c-1.5,7.5-3.2,14.9-5.8,22.1c-0.1,0.4-0.3,0.8-0.4,1.2
		c-2.5,5.4-4.1,6.2-8.8,2.8c-8.5-6.3-13.4-15-14.8-25.4c-0.7-5,1.9-7.5,7.3-7.7c5.2-0.3,10.2-0.4,13.6-5.3c2.4-3.5,2.7-7.4,2.9-11.3
		c0.5-8.6-1.2-17.1-2.5-25.6c-0.4-2.6-0.8-5.2-1.3-8.2c-1.8-9.1-2.6-18-1.9-26.9c0.2-2.4,0.2-5.6,3.4-5.8c3.1-0.1,3.3,3.2,3.7,5.3
		c1.3,6.3,2.8,12.6,3.9,19c1.9,10.4,4,20.9,4,31.6C329.2,134.4,328.1,145.8,325.8,157.2z"/>
	<path d="M275.5,216.5c-0.1-0.1,0-0.3,0-0.4C275.5,216.2,275.6,216.4,275.5,216.5z"/>
	<path d="M420.3,207.7c-0.5-7.1-3.4-13.9-2.1-21.1c1.2-6.4,1.5-12.9,1.6-19.5c0.1-10.4-1-20.7-1.6-31.1c-1.2-20-6.4-39.1-11.5-58.3
		c-3.1-11.6-6.1-23.3-8.5-35.1c-0.6-3.2-0.1-8.2-6-8c-13.8,0.4-27.5,0.6-41.3,1.2c-6.3,0.2-7.6,3.4-4.7,8.9c3.2,6,7.8,11.3,9.5,18.1
		c3.1,12.3,5.6,24.8,5.9,37.5c0.2,10.9,0.5,21.9-2.2,32.7c-1.3,5-3.3,9.9-3.6,14.9c-0.6,9.6-1.3,19.2-3.8,28.5
		c-2.3,8.8-3.2,17.9-6.5,26.5c-2.1,5.5-3.9,11.1-4.1,17c-0.2,4.9,1.8,6.2,6.3,4.3c8.6-3.5,16.9-7.9,25.2-12.1c1.7-0.9,3.3-2,3.9-4
		c1.4-4.2,2.6-8.5,1.8-13c-2.3-12.7-1.7-25.4-1.6-38.2c0-5.4,2.5-6.9,7.4-4.7c2.8,1.2,5.3,2.9,8.3,3.4c0.6,2.5,0.1,4.6-0.6,6.8
		c-2,6.7-5.1,13.1-6.7,19.9c-1.4,6-0.9,12.1-1.9,18.5c-0.1,1.7-0.2,3.1-0.1,4.4c0.1,5.2,1.9,10.2,6.8,11.9
		c7.4,2.5,15.3,3.2,23.2,1.1C420.2,216.6,420.8,215,420.3,207.7z M394.7,135.2c-7.1,0.3-14.6-6.2-14.1-12.8
		c1.1-14-0.7-27.7-3.3-41.7c-0.2-5.7-0.3-11.1-0.4-16.4c0-2.1,0.8-4,3-4.4c2.5-0.4,2.7,2.1,3,3.6c2.3,13.2,5.5,26.2,6.7,39.6
		c0.7,7.9,2.7,15.6,4.3,23.4C394.6,129.4,395,132.2,394.7,135.2z"/>
	<path d="M278.6,103.8c-2.3-3.8-3.9-8-7.3-11c-3.3-3-6.4-6.3-8.8-10.1c-3.7-6-3.6-8.2,1.5-13.1c4.5-4.4,9.3-8.4,12.4-14.1
		c3.8-6.9-0.2-16.5-7.8-17.8c-4.4-0.7-8.8-1-13.3-0.8c-26.2,0.9-52.4,1.8-78.7,2.4c-3.9,0.1-7.8,0.4-11.2,2.1
		c-3.7,1.8-9.3,2.8-9.1,8.3c0.1,6.4,0.1,12.6-1.9,18.8c-1.2,3.6-2,7.4-1.9,11.3c0.2,7.9,1.2,15.7-1.4,23.6c-1.5,4.7,1.1,8.2,5.4,9.1
		c12.8,2.8,25.8,4.9,39.3,5.6c16.1,2.3,32,3.3,47.8,1.4c6.2-0.7,12.9-2.3,16.9-7.4c3.9-5,7.7-4.2,12.3-2.3c1.8,0.8,3.5,1.7,5.3-0.1
		C279.7,107.8,279.6,105.4,278.6,103.8z M244.3,103.8c-17,2.9-33.4,4-47.7-8.8c-5.8-5.2-12.3-9.5-16.6-16.2
		c-0.5-0.7-0.7-1.6-1.2-2.7c-1-7.2,4.6-9.2,8.9-11.8c4.7-2.8,9.9-4.8,14.8-7.3c2.2-1.1,4.5-2.1,5.8-4.5c1.6-2.8,4.2-3.2,6.9-2.3
		c2.9,1.1,3.1,3.9,2.7,6.4c-0.6,4-2.1,7.8-4.2,11.4c-6.7,11.9-4.4,17.2,8.7,21.1c7.4,2.2,14.7,4.7,22,7.3c1.8,0.6,3.8,2,3.7,4
		C248.3,102.6,246.4,103.4,244.3,103.8z"/>
</g>
</svg>
