<?xml version="1.0" encoding="UTF-8"?>
<svg id="a" data-name="svg-four" xmlns="http://www.w3.org/2000/svg" viewBox="0 0 410.97 271.67">
  <path d="M409.57,227.85c-1.7-2.26-4.47-3.94-6.05-6.25-5.43-7.91-10.17-16.13-14.68-24.5-6.78-12.58-12.06-25.69-16.5-38.9-6.81-20.28-11.74-41.05-17.37-61.64-2.76-10.12-5.25-20.3-7.94-30.43-1.85-6.95-5.09-13.54-5.03-20.98.03-3.68-4.24-6.81-8.45-6.82-4.38,0-5.47,3.58-5.08,7.22.25,2.37.6,4.85.14,7.16-2.78,14.07-5.87,28.09-8.67,42.16-1.84,9.21-3.36,18.47-5.17,28.5-.71-4.45-1.39-8.05-1.86-11.69-1.78-13.91-3.43-27.84-5.26-41.75-.37-2.8-3.33-4.18-5.79-5.08-1.62-.59-3.44,1.5-3.53,3.03-.12,2.09-.19,4.19-.14,6.29-.84-4.11-7.9-8.83-12.02-8.26-3.6.5-6.24,4.83-6.44,9.09-.07-.49-.14-.98-.21-1.47-.52-3.55-3.36-4.88-6.78-5.77-1.93-.5-3.9.46-4.58,1.43-1.35,1.96-2.3,3.97-1.11,6.81,1.78,4.24,2.73,8.92,2.92,13.45.36,8.53-.11,17.08-.17,25.63-.06,7.51-.01,15.02-.01,24.58-2.97-4.73-4.77-7.56-6.54-10.41-6.73-10.9-14.14-21.51-11.93-34.89.65-3.97-2.04-8.31-7.22-8.46-4.98-.14-5.64-2.65-6.51-5.49-.57-1.86-.59-3.86-.8-5.8-.62-5.65-8.21-10.87-13.28-9.12-3.64,1.26-6.77,9.42-5.17,12.83,1.57,3.37,4.67,6.06,5.21,9.91,2.28,16.44,3.53,32.93,3.43,50.47-4.38-10.47-8.5-20.06-12.38-29.71-2.08-5.19-3.52-10.57-5.69-15.73-1.21-2.88-4.38-4.61-7.78-3.95-3.16.62-4.01,3.26-3.84,6.12.27,4.73.3,9.48.33,14.22.05,7.51.01,15.02.01,22.54-2.59-16.21-3.74-32.43-2.16-48.63.81-8.32.07-16.76,3.12-24.98,1.23-3.3-1.42-6.78-5.43-8.12-3.61-1.21-6.46.27-7.25,3.66-.41,1.79.19,3.74-.12,5.56-2.25,13.39-4.19,26.84-7.24,40.09-.72,3.14,2.02,10.53-7.57,8.8-3.56-.64-6.06,1.35-8.61,3.69-.34-1-.86-1.84-.89-2.69-.69-18.51-1.37-37.02-1.96-55.54-.35-11.11.35-22.24-1.37-33.56-.44-4.88-1.13-9.49-1.22-14.09-.1-4.35-3.94-5.42-7.27-6.24-3.52-.86-4.38,2.13-5.51,4.43-1.38,2.81.44,5.39.38,8.11-.41,18.11-3.45,36.02-5.09,54.03-.44,4.88-1.37,9.74-2.34,16.49-.71-3.06-1.08-4.23-1.24-5.42-1.17-8.54-2.18-17.1-3.46-25.62-.93-6.21-2.61-12.27-1.96-18.69.5-4.9-2.76-8.13-8.9-8.33-5.5-.18-5.3,3.77-5.35,6.51-.28,14.39-7.56,27.13-12.08,40.51-.27.78-1.37,1.33-2.08,1.99-.51-.7-1.25-1.34-1.49-2.1-1.13-3.61-2.12-7.27-3.18-10.9-2.9-9.97-5.9-19.93-8.65-29.94-.64-2.33-.64-5-3.52-5.93-2.5-.8-6.1-1.87-7.47,1.06-1.13,2.44-1.74,5.28-.51,8.21,2.23,5.34,4.2,10.78,5.87,16.27,2.65,8.71,5.08,17.47,7.37,26.25,1.59,6.07,6.27,11.99,3.05,18.42-2.76,5.52-6.43,10.71-10.02,15.89-10.34,14.94-20.86,29.78-31.27,44.68-12.08,17.28-22.39,35.41-33.58,53.13-4.92,7.78-9.52,15.84-17.06,22.26-2.4,2.04-1.92,5.58.33,8.12,1.7,1.92,4.1,3.68,7.04,2.16,15.6-8.09,32.47-13.9,48.58-21.05,12.88-5.72,25.6-11.71,38.9-16.7,5.79-2.17,11.56-6.32,17.28-6.24,7.62.12,9.71-2.84,9.49-7.72-.3-6.42-2.59-12.77-2.97-19.19-1.25-21.01-5.11-41.67-9.66-62.27-1.11-5.01-4.24-10.45-2.98-14.94,3.05-10.84,8.17-21.23,12.4-31.82.32-.81.6-1.58,1.63-1.31.45.11.82.99.91,1.56,3.48,23.44,6.98,46.88,10.3,70.35.47,3.36.77,6.94-.1,10.17-1.22,4.53.58,8.38,4.62,9.59,4,1.2,8.87-.4,10.29-5.09,1.21-3.99-1.18-7.75-1.25-11.64-.17-8.67-.33-17.34.06-25.99.3-6.82,1.42-13.62,2.31-21.68.83,1.67,1.26,2.13,1.26,2.58-.19,27.16,2.27,54.24,3.37,81.36.68,16.67,2.6,33.24,5.17,49.76.99,6.34,2.5,12.72,2.39,19.06-.06,3.27.19,6.09,3.09,7.5,3.17,1.54,7.33,2.2,10.26-.8,2.21-2.26,2.83-5.24.96-7.84-4.89-6.85-5.29-14.78-6.35-22.26-3.16-22.07-5.56-44.24-5.75-66.52-.04-4.59-1.87-9.17-.3-14.06.49.7.89,1.15,1.15,1.66,6.77,13.51,13.48,27.04,20.27,40.54,2.49,4.96,5.69,9.79,6.27,15.22.31,2.91.41,5.5,3.14,7.51,2.57,1.89,5.3.88,7.09-.46,2.54-1.89,2.16-4.82,1.76-7.64-1.36-9.73-2.51-19.48-3.72-29.21-.15-1.21,1.6,10.52,3.72,10.52,5.43,0,5.35-2.93,4.79-18.91-.37-10.66.41-21.24.97-33.34,1.62,3.05,2.65,4.74,3.45,6.53,5.92,13.12,11.77,26.27,17.69,39.4,1.41,3.12,4.32,2.92,7.52,2.65,2.69-.22,3.25-1.64,3.5-3.35,1.09-7.27-1.73-14.3-1.65-21.62.16-13.93-1.46-27.88-2.37-42.35,2.6,1.38,3.37,3.1,3.5,4.78,1.06,13.68,2.08,27.36,2.86,41.05.15,2.68-.56,5.45-1.25,8.1-.68,2.6.01,4.54,2.26,6.3,1.25.97,2.55,1.79,4.02,1.01,2.49-1.32,5.3-2.64,5.32-5.7.05-8.33.02-16.65.02-26.22,3.84,5.58,6.73,10.03,9.91,14.33,2.25,3.05,2.11,5.37-.75,8.25-9.26,9.34-17.79,19.24-24.84,29.91-14.15,21.43-26.46,43.72-36.97,66.66-2.19,4.79-9.47,8.42-5.83,15.05,1.02,1.87,2.18,3.89,4.39,4.13,2.95.31,6.23,1.1,8.2-2.69,1.59-3.05.54-6.11,1.44-8.86,4.87-14.91,14.31-28.15,21.39-42.27,5.41-10.81,11.39-21.5,19.43-31.15,6.44-7.73,12.46-15.73,20.87-23.39-.45,4.08-.46,7.31-1.23,10.39-.75,2.95.86,4.66,2.97,6.41.79.66,1.32.99,2.46.28,2.26-1.41,5.91-1.59,4.99-5.39-.43-1.73-.19-3.61-.04-5.41.12-1.46-1.09-3.52,2.44-3.56,3.4-.03,2.16,1.96,2.69,3.41,2.3,6.33-1.18,12.95,1.38,19.21,1.21,2.98,1.65,6.18.89,9.02-.94,3.5,1.13,5.76,3.31,7.51,2.3,1.84,5.53,1.84,8.46-.25,2.97-2.13,4.46-5.16,2.78-7.62-2.35-3.44-3.02-7.1-3.33-10.82.82,2.93,2.14,5.4,6.67,5.3,2.56-.06,3.61-2.19,4.6-3.94,1.67-2.95.13-5.66-.98-8.28.6-4.33,1.03-11.71.79-19.05,1.56,1.05,1.87,2.55,2.02,4.04,1.17,11.56,2.37,23.12,1.55,34.75-.19,2.68,1.79,4.45,3.97,5.8,2.36,1.47,4.41.12,6.43-1.2,4.11-2.68.38-5.44.19-8.1-.65-8.67-1.94-17.3-2.41-25.97-.37-6.91-3.92-13.68-1.72-20.67,5.04-16.03,6.46-32.57,9.47-48.89,1.94-10.57,4.12-21.12,6.59-33.68,3.41,11.05,6.36,19.99,8.9,29.02,3.81,13.57,7.4,27.19,10.92,40.83,3.68,14.25,8.78,28.15,14.18,41.94,4.2,10.74,9.23,21.17,14.87,31.46,4.31,7.86,11.75,14.73,11.64,24.46-.02,1.83,2.28,5.96,7.17,5.38,6.52-.76,10.16-6.81,6.6-11.58ZM108.47,165.12c.12,5.85,1.25,11.68,1.21,17.52-.03,5.45-5.36,7.35-10,9.47-1.34.62-2.71,1.21-4.06,1.83-23.89,9.81-47.33,19.41-71.43,29.29,22.96-39.55,47.67-77.26,74.37-114.33,2.93,4.76,3.22,10.05,4.06,14.98,2.34,13.7,5.57,27.31,5.85,41.25ZM173.62,118.31c-1.39,2.78-.96,5.48.17,8.17,1.17,2.13,2.95,3.02,4.95,2.54,2.8-.67,3.88-2.73,4.13-5.16.22-2.15-.65-4.61,2.56-6.36-.14,15.76,1.93,31.14,3.32,46.67-8.1-5.59-19.64-40.27-15.13-45.85ZM281.15,156.9c-1.49-.26-.88-1.57-.69-2.63.86-4.7-1.94-9.34-.12-15.36,1.12,5.86,2.02,10.49,2.9,15.12.22,1.9-.28,3.19-2.1,2.87ZM303.65,138.52c-2.52-1.64-5.91-2.6-9.02-.52-3.56,2.38-1.93,4.72,0,7.18.97,1.22,1.79,2.54,2.58,3.93,1.5,2.61,2.99,5.77,2,8.61-1.6,4.55-2.3,10.93-2.43,16.31-3.62-13-3.72-26.73-7.09-39.8-4.77-18.46-6.87-37.19-9.48-55.87,1.28,2.98,4.93,4.33,6.24,7.25.97,2.15,3.23,3.44,6.49,3.1,4.76-2.55,5.57-6.21,5.54-10.01.03.28.06.57.1.85,1.98,15.38,4.2,30.73,6.38,46.35.61,3.61,1.44,6.95,1.68,10.32.35,4.81,3.08,9.61,1.81,14.37-.82-5.76-2.31-10.45-4.79-12.07Z"/>
</svg>