<svg class="logo d" id="elAjGDgpkst1" xmlns="http://www.w3.org/2000/svg" xmlns:xlink="http://www.w3.org/1999/xlink" viewBox="0 0 192.756 192.756" shape-rendering="geometricPrecision" text-rendering="geometricPrecision"><g id="elAjGDgpkst2" transform="matrix(-.00082 0 0 0 95.0779 100)" opacity="0" clip-rule="evenodd"><path d="M166.355,74.2925c-3.566-.9891-4.623-2.5234-7.852-4.3762-3.23-1.8529-13.524-6.3214-13.802-6.3214-.279,0-7.722-2.1284-7.815-2.2212s-8.433-1.8064-8.711-1.8064-17.301-1.2089-17.579-1.2089-6.336-.4046-14.5393.388c-8.2031.7926-7.8316.6058-18.2734,2.7824-10.4417,2.1766-11.8442,1.1889-19.7943,6.3591-3.6952,2.4031-.9437,1.4408-6.7993,5.0928-5.8556,3.6521-10.8726,8.3345-10.9654,8.4273s-3.8754,2.6432-2.0721,8.9724c1.8458,6.4779,5.47,16.2006,11.3858,18.2456c5.9158,2.044,8.946,2.97,17.3872,4.837c8.4411,1.867,7.3254,2.23,16.1322,2.723c8.8068.492,8.8995,1.61,20.8066-.419c11.907-2.028,17.968-3.121,26.822-7.695c7.894-4.078,5.565-2.813,9.902-6.319c4.401-3.5574,4.435-3.0892,5.148-7.3479.714-4.2588.611-6.6644-2.127-9.4888-1.273-1.3132-2.402-1.2852-7.146-5.1457-.144-.1172-10.794-5.8545-11.073-5.9473-.278-.0928-1.838-1.2085-7.604-2.3096s-15.368-2.002-15.461-2.0948-1.389.5696-6.5439.8311c-5.073.2573-6.1222,1.1277-13.1426,2.5135-7.3419,1.4493-10.7702,3.5963-16.6527,6.288-5.8824,2.6917-5.9393,2.9436-7.3063,4.6016-2.8535,3.4608-1.2547,3.3661-2.6919,7.4364-.5548,1.5714-1.2999,3.5192,1.0459,5.9202c2.4612,2.5192,7.469,2.1322,7.469,2.2443c0,.1855,5.1607,1.542,9.0873,2.282c3.9266.741,4.3356,1.265,6.372,1.718c5.516-.463,5.3944-.207,10.1272-1.434c4.6966-1.217,8.7451-2.6183,8.9306-2.7111.1856-.0927,8.1674-3.8728,8.3444-3.927c1.463-.4462,5.644-4.1834,5.493-7.2408s-.635-3.534-4.625-6.5958c-.147-.113-7.137-1.8003-10.911-1.9912-.278-.014-6.1193,1.1596-6.3977,1.1596-.2783,0-8.2117,2.1857-8.2051,2.3156.0067.1299-4.993,4.4141-4.5502,4.4611c1.9813.2102,7.3146.4465,7.3146.4465c0,.1856,3.4434.8431,5.0083.836c2.2987-.0105,6.815-1.266,7.1346,2.6574-2.4586.3122-5.0571.3113-9.8488.1391-4.7916-.1721-8.79-.0513-11.1107-2.3051s-1.5015-3.5891.2945-5.7289c1.7975-2.1415,6.535-4.3793,7.8805-4.9534c1.6544-.7059,13.0544-3.9881,20.81-1.3656c2.258.7637,5.793.9054,6.58,1.7106s4.386,6.4959,4.901,8.415c1.08,4.0287-2.055,8.7058-2.24,8.7986-.186.0928-3.645,3.4575-11.888,5.9554-8.244,2.498-11.9363,3.199-21.3318,3.332-9.3954.132-10.3991-1.033-16.4344-2.36-6.0352-1.327-4.5194-.383-7.676-2.487-3.1566-2.1036-4.7936-2.3802-5.6556-6.2162-.8621-3.8359-.8-7.7521,1.8089-9.9554c3.9678-3.3508,5.464-4.8632,9.8543-8.1262c4.3902-3.2629,14.1919-6.173,14.3687-6.2292c7.8301-2.4887,21.6678-2.9041,21.8533-2.9041.1856,0,8.0196.0419,13.8706.5044c5.852.4624,9.043,2.0499,9.229,2.1426.185.0928,8.033,2.1133,14.149,5.7186c6.116,3.6054,8.546,5.7713,8.732,5.8641.185.0928,4.701,4.6237,4.886,8.1273.186,3.5036.391,4.3874-2.562,8.7257-2.954,4.3384-2.637,4.1704-9.773,8.6274-7.137,4.457-7.665,6.534-19.495,9.839-11.83,3.304-13.852,3.931-28.2251,4.052-14.3726.122-29.3726-3.805-29.2798-3.898.0927-.092-16.0704-5.383-15.9776-5.476s-3.1422-4.539-7.6324-9.616c-4.4902-5.0756-4.2853-6.7372-4.9704-12.3107-.6852-5.5734.1794-6.9471,3.9062-11.2305c3.7267-4.2833,16.6843-13.7891,31.5448-17.5314c4.8313-1.2166,8.1001-2.0108,10.8182-2.5653c5.6426-1.1509,8.9121-1.2687,18.8604-1.9873c14.7407-1.0649,17.3647-1.0066,29.2827.2932c11.919,1.2997,18.42,4.9366,18.606,4.9366.079,0,3.527.8216,7.013,2.1957c4.709,1.8563,9.815,4.4175,9.868,4.4708.093.0928,12.417,6.7876,9.272,9.3877-3.339,2.7601-1.993-1.9382-5.559-2.9273Z" opacity="0.99" clip-rule="evenodd"  stroke-width="3" stroke-linejoin="round" stroke-miterlimit="10"/><path d="" opacity="0.563003" clip-rule="evenodd" stroke-linecap="round" stroke-linejoin="round" stroke-miterlimit="10"/></g><g id="elAjGDgpkst5" transform="matrix(.000103 0 0 0 94.9485 100)" opacity="0" clip-rule="evenodd"><path d="M164.597,357.126c-2.901.342-6.741,1.536-11.52,3.584-4.778,2.048-7.936,3.84-9.472,5.376s-2.73,3.755-3.584,6.656c-.853,2.902-.256,6.571,1.792,11.008c2.048,4.438,3.414,9.899,4.096,16.384.683,6.486.939,14.592.768,24.32-.17,9.728-.853,22.955-2.048,39.68-1.194,16.726-1.536,35.243-1.024,55.552.512,20.31.342,33.451-.512,39.424-.853,5.974-2.048,11.947-3.584,17.92-1.536,5.974-2.56,11.179-3.072,15.616-.512,4.438-.512,10.326,0,17.664.512,7.339,1.195,12.63,2.048,15.872.854,3.243,1.878,6.144,3.072,8.704c1.195,2.56,2.39,4.438,3.584,5.632c1.195,1.195,2.56,1.792,4.096,1.792s3.158-.512,4.864-1.536c1.707-1.024,3.926-2.901,6.656-5.632c2.731-2.73,5.462-5.973,8.192-9.728c2.731-3.754,5.12-7.509,7.168-11.264c2.048-3.754,3.67-6.997,4.864-9.728c1.195-2.73,2.56-6.826,4.096-12.288c1.536-5.461,2.304-9.13,2.304-11.008c0-1.877-.256-3.413-.768-4.608-.512-1.194-3.413-4.437-8.704-9.728-5.29-5.29-8.533-9.216-9.728-11.776-1.194-2.56-1.706-4.864-1.536-6.912.171-2.048.939-4.949,2.304-8.704c1.366-3.754,2.816-9.13,4.352-16.128c1.536-6.997,3.328-18.432,5.376-34.304s1.11-28.074-2.816-36.608c-3.925-8.533-6.57-15.786-7.936-21.76-1.365-5.973-1.706-10.581-1.024-13.824.683-3.242,1.536-5.376,2.56-6.4s2.39-1.877,4.096-2.56c1.707-.682,3.584-.938,5.632-.768c2.048.171,3.84.854,5.376,2.048c1.536,1.195,2.816,2.731,3.84,4.608c1.024,1.878,1.878,4.182,2.56,6.912.683,2.731,1.024,5.035,1.024,6.912c0,1.878-.256,3.499-.768,4.864-.512,1.366-1.621,2.219-3.328,2.56-1.706.342-2.901,1.451-3.584,3.328-.682,1.878-.085,12.886,1.792,33.024c1.878,20.139,2.304,32.939,1.28,38.4-1.024,5.462-2.816,12.203-5.376,20.224-2.56,8.022-3.669,12.971-3.328,14.848.342,1.878,2.048,4.011,5.12,6.4c3.072,2.39,5.462,4.608,7.168,6.656c1.707,2.048,2.987,3.926,3.84,5.632.854,1.707,1.792,4.523,2.816,8.448c1.024,3.926,1.707,8.278,2.048,13.056.342,4.779-1.024,13.142-4.096,25.088-3.072,11.947-4.693,19.712-4.864,23.296-.17,3.584.342,5.718,1.536,6.4c1.195.683,3.499,1.28,6.912,1.792c3.414.512,8.192.683,14.336.512c6.144-.17,11.264-.853,15.36-2.048c4.096-1.194,6.571-2.645,7.424-4.352.854-1.706,1.536-5.034,2.048-9.984.512-4.949.683-11.093.512-18.432-.17-7.338.683-15.445,2.56-24.32c1.878-8.874,3.499-26.794,4.864-53.76c1.366-26.965,2.902-45.397,4.608-55.296c1.707-9.898,2.646-16.896,2.816-20.992.171-4.096-.597-6.997-2.304-8.704-1.706-1.706-4.693-2.901-8.96-3.584-4.266-.682-6.4-1.45-6.4-2.304c0-.853,3.158-4.437,9.472-10.752c6.315-6.314,9.387-11.093,9.216-14.336-.17-3.242-.938-6.229-2.304-8.96-.682-1.365-1.365-2.73-2.048-4.096c3.243.086,6.486.171,9.728.256c3.243.086,6.486.171,9.728.256-.341,3.072-.682,6.144-1.024,9.216-.682,6.144-3.413,21.846-8.192,47.104-4.778,25.259-7.68,42.923-8.704,52.992-1.024,10.07-1.45,18.774-1.28,26.112.171,7.339,1.024,13.398,2.56,18.176c1.536,4.779,3.243,8.022,5.12,9.728c1.878,1.707,5.376,3.67,10.496,5.888c5.12,2.219,8.107,3.67,8.96,4.352.854.683,1.28,1.28,1.28,1.792s-2.56,2.475-7.68,5.888c-5.12,3.414-9.984,7.254-14.592,11.52-4.608,4.267-7.68,7.68-9.216,10.24s-2.389,4.95-2.56,7.168c-.17,2.219.427,4.267,1.792,6.144c1.366,1.878,3.158,3.414,5.376,4.608c2.219,1.195,6.571,2.646,13.056,4.352c6.486,1.707,12.971,2.475,19.456,2.304c6.486-.17,12.374-1.024,17.664-2.56c5.291-1.536,8.875-3.072,10.752-4.608c1.878-1.536,2.902-3.669,3.072-6.4.171-2.73-.256-6.4-1.28-11.008s-2.56-9.642-4.608-15.104c-2.048-5.461-3.072-10.24-3.072-14.336s.427-8.362,1.28-12.8c.854-4.437,1.28-7.765,1.28-9.984c0-2.218-.768-4.608-2.304-7.168s-4.01-5.802-7.424-9.728c-3.413-3.925-5.632-7.082-6.656-9.472-1.024-2.389-1.536-16.384-1.536-41.984s1.195-46.506,3.584-62.72c2.39-16.213,3.584-25.941,3.584-29.184c0-3.242-.597-6.57-1.792-9.984-1.194-3.413-2.901-6.314-5.12-8.704-2.218-2.389-4.693-4.522-7.424-6.4-2.73-1.877-6.058-3.242-9.984-4.096-3.925-.853-8.277-1.365-13.056-1.536-4.778-.17-8.021-.256-9.728-.256-1.706,0-3.242.512-4.608,1.536-1.365,1.024-3.84,1.878-7.424,2.56-3.584.683-6.144,1.536-7.68,2.56s-2.816,1.622-3.84,1.792c-1.024.171-2.304,1.195-3.84,3.072-1.536,1.878-2.901,4.523-4.096,7.936-1.194,3.414-1.792,22.699-1.792,57.856c0,35.158-.256,55.808-.768,61.952s-.938,9.643-1.28,10.496c-.341.854-.682,1.28-1.024,1.28-.17,0-.341,0-.512,0c.086-8.106.171-16.213.256-24.32.171-16.213-.17-37.205-1.024-62.976-.853-25.77-2.389-40.533-4.608-44.288-2.218-3.754-5.12-7.509-8.704-11.264-3.584-3.754-5.632-5.717-6.144-5.888-.256-.085-.512-.17-.768-.256.171.171.342.342.512.512.171.171.342.342.512.512-.17.086-.341.171-.512.256-.341.171-1.621-.597-3.84-2.304-2.218-1.706-5.461-2.645-9.728-2.816-4.266-.17-7.338-.512-9.216-1.024-1.877-.512-4.266-.597-7.168-.256Zm600.32-.256c-11.605.171-18.005,1.11-19.2,2.816-1.194,1.707-2.218,4.352-3.072,7.936-.853,3.584-1.194,6.827-1.024,9.728.171,2.902,1.707,7.595,4.608,14.08c2.902,6.486,4.267,10.667,4.096,12.544-.17,1.878-1.28,3.499-3.328,4.864-2.048,1.366-3.925,3.158-5.632,5.376-1.706,2.219-2.56,4.694-2.56,7.424c0,2.731,1.024,8.107,3.072,16.128c2.048,8.022,2.731,17.579,2.048,28.672-.682,11.094-.853,17.152-.512,18.176.342,1.024,1.451,2.475,3.328,4.352c1.878,1.878,3.67,4.352,5.376,7.424c1.707,3.072,3.158,7.424,4.352,13.056c1.195,5.632,1.792,14.763,1.792,27.392c0,12.63-.597,25.6-1.792,38.912-1.194,13.312-2.73,25.43-4.608,36.352-1.877,10.923-2.56,18.262-2.048,22.016.512,3.755,2.219,6.827,5.12,9.216c2.902,2.39,5.547,4.096,7.936,5.12c2.39,1.024,7.168,1.536,14.336,1.536s14.166.427,20.992,1.28c3.414.427,6.827.854,10.24,1.28-.256-1.365-.512-2.73-.768-4.096-.512-2.73-2.133-8.362-4.864-16.896-2.73-8.533-4.096-14.933-4.096-19.2c0-4.266.427-10.666,1.28-19.2.854-8.533,1.28-17.066,1.28-25.6c0-8.533-2.218-30.634-6.656-66.304-4.437-35.669-6.656-60.842-6.656-75.52c0-14.677.171-22.357.512-23.04.171-.341.342-.682.512-1.024.512,2.475,1.024,4.95,1.536,7.424c1.024,4.95,3.158,22.187,6.4,51.712c3.243,29.526,5.803,51.03,7.68,64.512c1.878,13.483,2.731,26.454,2.56,38.912-.17,12.459.171,20.31,1.024,23.552.854,3.243,1.878,8.875,3.072,16.896c1.195,8.022,2.134,12.8,2.816,14.336.683,1.536,1.11,4.267,1.28,8.192.171,3.926.598,7.595,1.28,11.008.683,3.414,1.366,5.462,2.048,6.144.683.683,1.451,1.024,2.304,1.024.854,0,1.792-.426,2.816-1.28c1.024-.853,2.304-1.536,3.84-2.048s4.182-.768,7.936-.768c3.755,0,10.07.598,18.944,1.792c8.875,1.195,15.36,1.707,19.456,1.536c4.096-.17,7.083-.512,8.96-1.024c1.878-.512,3.67-1.45,5.376-2.816c1.707-1.365,2.646-3.157,2.816-5.376.171-2.218-.256-4.437-1.28-6.656-1.024-2.218-1.962-3.754-2.816-4.608-.853-.853-1.45-3.754-1.792-8.704-.341-4.949,1.451-11.008,5.376-18.176c3.926-7.168,6.912-13.312,8.96-18.432s3.755-10.069,5.12-14.848c1.366-4.778,2.475-9.984,3.328-15.616.854-5.632,1.195-11.349,1.024-17.152-.17-5.802-1.621-14.848-4.352-27.136-2.73-12.288-5.376-26.453-7.936-42.496-2.56-16.042-4.522-30.037-5.888-41.984-1.365-11.946-2.218-23.21-2.56-33.792-.341-10.581-.682-16.469-1.024-17.664-.341-1.194-1.792-2.389-4.352-3.584-2.56-1.194-9.557-1.706-20.992-1.536-11.434.171-18.858,1.28-22.272,3.328-3.413,2.048-5.973,3.926-7.68,5.632-1.706,1.707-2.218,4.438-1.536,8.192.683,3.755,1.024,9.046,1.024,15.872c0,6.827.598,15.787,1.792,26.88c1.195,11.094,2.219,17.067,3.072,17.92.854.854,2.987,2.048,6.4,3.584c3.414,1.536,5.547,2.731,6.4,3.584.854.854,1.28,1.622,1.28,2.304c0,.683-.597,1.366-1.792,2.048-1.194.683-2.474,1.792-3.84,3.328-1.365,1.536-2.218,4.096-2.56,7.68-.341,3.584.256,7.595,1.792,12.032c1.536,4.438,3.926,9.472,7.168,15.104c3.243,5.632,5.974,12.203,8.192,19.712c2.219,7.51,3.67,13.654,4.352,18.432.683,4.779.854,9.046.512,12.8-.341,3.755-1.792,8.192-4.352,13.312s-4.693,11.691-6.4,19.712c-1.706,8.022-2.901,12.8-3.584,14.336-.682,1.536-1.536,2.56-2.56,3.072s-2.133-.17-3.328-2.048c-1.194-1.877-1.877-4.608-2.048-8.192-.17-3.584.427-7.765,1.792-12.544c1.366-4.778,3.243-10.069,5.632-15.872c2.39-5.802,3.755-10.666,4.096-14.592.342-3.925.171-7.594-.512-11.008-.682-3.413-2.73-9.813-6.144-19.2-3.413-9.386-7.338-22.016-11.776-37.888-4.437-15.872-7.424-31.658-8.96-47.36-1.536-15.701-2.56-24.49-3.072-26.368-.512-1.877-.853-6.4-1.024-13.568-.17-7.168-.597-11.52-1.28-13.056-.682-1.536-1.792-3.157-3.328-4.864-1.536-1.706-4.01-3.584-7.424-5.632-3.413-2.048-8.874-3.072-16.384-3.072-7.509,0-17.066.086-28.672.256Zm-135.936,1.536c-11.776.512-21.077.683-27.904.512-6.826-.17-11.434,0-13.824.512-2.389.512-4.522,1.536-6.4,3.072-1.877,1.536-2.816,2.902-2.816,4.096c0,1.195,2.219,5.547,6.656,13.056c4.438,7.51,7.339,12.971,8.704,16.384c1.366,3.414,3.072,10.411,5.12,20.992c2.048,10.582,3.414,19.798,4.096,27.648.683,7.851,1.024,15.104,1.024,21.76s-.17,13.568-.512,20.736c-.341,7.168-1.877,16.128-4.608,26.88-2.73,10.752-4.352,20.566-4.864,29.44-.512,8.875-1.706,17.238-3.584,25.088-1.877,7.851-3.242,14.592-4.096,20.224-.853,5.632-2.986,14.251-6.4,25.856-3.413,11.606-5.205,18.603-5.376,20.992-.17,2.39.086,4.779.768,7.168.342,1.195.683,2.39,1.024,3.584c1.792-.512,3.584-1.024,5.376-1.536c3.584-1.024,9.216-3.413,16.896-7.168c7.68-3.754,13.654-6.826,17.92-9.216c4.267-2.389,6.827-4.181,7.68-5.376.854-1.194,1.792-4.096,2.816-8.704s1.024-12.97,0-25.088c-1.024-12.117-1.536-22.698-1.536-31.744c0-9.045.256-14.848.768-17.408s1.11-4.181,1.792-4.864c.683-.682,2.219-.853,4.608-.512c2.39.342,5.035,1.366,7.936,3.072c2.902,1.707,5.035,2.731,6.4,3.072c1.366.342,1.963,1.963,1.792,4.864-.17,2.902-1.706,8.363-4.608,16.384-2.901,8.022-4.778,13.91-5.632,17.664-.853,3.755-1.621,11.35-2.304,22.784-.682,11.435-.512,18.603.512,21.504c1.024,2.902,2.731,5.376,5.12,7.424c2.39,2.048,6.144,3.499,11.264,4.352c5.12.854,10.155,1.195,15.104,1.024c4.95-.17,8.619-.512,11.008-1.024c2.39-.512,4.352-1.109,5.888-1.792c1.536-.682,2.56-1.536,3.072-2.56s.768-3.584.768-7.68-.597-9.386-1.792-15.872c-1.194-6.485-1.365-15.189-.512-26.112.854-10.922,1.195-22.613,1.024-35.072-.17-12.458-1.109-26.794-2.816-43.008-1.706-16.213-3.242-27.818-4.608-34.816-1.365-6.997-4.778-20.992-10.24-41.984-5.461-20.992-9.216-36.693-11.264-47.104-2.048-10.41-3.584-16.64-4.608-18.688s-2.474-3.157-4.352-3.328c-1.877-.17-8.704,0-20.48.512Zm-117.76,0c-8.021.171-13.568.768-16.64,1.792s-4.949,1.878-5.632,2.56c-.682.683-1.194,2.048-1.536,4.096-.341,2.048-.341,5.035,0,8.96.342,3.926.342,7.083,0,9.472-.341,2.39-1.45,5.12-3.328,8.192-1.877,3.072-5.29,7.083-10.24,12.032-4.949,4.95-7.68,8.022-8.192,9.216-.512,1.195-.768,2.816-.768,4.864s.342,4.096,1.024,6.144c.683,2.048,1.878,4.608,3.584,7.68c1.707,3.072,4.779,7.68,9.216,13.824c4.438,6.144,7.083,10.582,7.936,13.312.854,2.731,1.622,4.352,2.304,4.864.683.512,3.414.512,8.192,0c4.779-.512,7.595.086,8.448,1.792.854,1.707,1.195,4.182,1.024,7.424-.17,3.243-1.024,6.571-2.56,9.984-1.536,3.414-3.84,7.424-6.912,12.032s-6.058,8.534-8.96,11.776c-2.901,3.243-4.949,5.974-6.144,8.192-1.194,2.219-1.792,4.864-1.792,7.936s1.366,8.022,4.096,14.848c2.731,6.827,4.694,13.824,5.888,20.992c1.195,7.168,1.792,13.739,1.792,19.712c0,5.974-.426,12.374-1.28,19.2-.853,6.827-1.706,11.606-2.56,14.336-.853,2.731-2.56,6.486-5.12,11.264-2.56,4.779-4.266,8.619-5.12,11.52-.853,2.902-1.194,4.864-1.024,5.888.171,1.024.939,1.963,2.304,2.816c1.366.854,2.902,1.28,4.608,1.28c1.707,0,9.472-1.28,23.296-3.84s25.003-4.266,33.536-5.12c8.534-.853,13.995-1.792,16.384-2.816c2.39-1.024,4.608-2.56,6.656-4.608s4.011-4.778,5.888-8.192c1.878-3.413,3.926-8.96,6.144-16.64c2.219-7.68,4.864-18.944,7.936-33.792s5.12-26.624,6.144-35.328s2.731-18.346,5.12-28.928c2.39-10.581,3.67-16.725,3.84-18.432.171-1.706-.768-14.506-2.816-38.4-2.048-23.893-4.949-40.533-8.704-49.92-3.754-9.386-6.826-15.36-9.216-17.92-2.389-2.56-5.12-5.973-8.192-10.24-3.072-4.266-5.802-7.509-8.192-9.728-2.389-2.218-4.693-3.498-6.912-3.84-2.218-.341-8.021-.512-17.408-.512-9.386,0-18.09.086-26.112.256Zm181.76,6.912c-9.045,3.755-14.421,6.571-16.128,8.448-1.706,1.878-3.242,4.182-4.608,6.912-1.365,2.731-2.048,5.291-2.048,7.68c0,2.39.512,4.608,1.536,6.656s2.987,4.608,5.888,7.68c2.902,3.072,5.803,5.547,8.704,7.424c2.902,1.878,5.974,4.864,9.216,8.96c3.243,4.096,6.059,5.888,8.448,5.376c2.39-.512,6.656-2.218,12.8-5.12c6.144-2.901,9.302-7.082,9.472-12.544.171-5.461.683-9.045,1.536-10.752.854-1.706,2.134-3.242,3.84-4.608c1.707-1.365,2.987-3.157,3.84-5.376.854-2.218.939-4.693.256-7.424-.682-2.73-1.877-5.376-3.584-7.936-1.706-2.56-3.498-4.266-5.376-5.12-1.877-.853-4.096-1.45-6.656-1.792-2.56-.341-4.778-1.109-6.656-2.304-1.877-1.194-3.498-1.792-4.864-1.792-1.365,0-6.57,1.878-15.616,5.632Zm-265.216-3.072c-9.728.683-22.357,1.024-37.888,1.024-15.53,0-29.44.256-41.728.768s-20.053,1.11-23.296,1.792c-3.242.683-6.656,1.963-10.24,3.84-3.584,1.878-6.144,3.84-7.68,5.888s-2.133,5.974-1.792,11.776c.342,5.803,0,10.07-1.024,12.8-1.024,2.731-2.048,6.742-3.072,12.032-1.024,5.291-1.365,12.544-1.024,21.76.342,9.216,0,15.702-1.024,19.456-1.024,3.755-1.536,7.339-1.536,10.752c0,3.414.256,5.718.768,6.912.512,1.195,2.987,2.56,7.424,4.096c4.438,1.536,11.35,3.072,20.736,4.608c9.387,1.536,22.443,3.158,39.168,4.864c16.726,1.707,29.611,2.646,38.656,2.816c9.046.171,16.384-.085,22.016-.768c5.632-.682,10.582-1.706,14.848-3.072c4.267-1.365,7.595-2.816,9.984-4.352c2.39-1.536,4.352-3.328,5.888-5.376s2.816-3.413,3.84-4.096c1.024-.682,2.646-.938,4.864-.768c2.219.171,4.523.768,6.912,1.792c2.39,1.024,4.523,1.451,6.4,1.28c1.878-.17,3.072-.682,3.584-1.536.512-.853.768-2.133.768-3.84c0-1.706-.853-4.01-2.56-6.912-1.706-2.901-2.645-4.864-2.816-5.888-.17-1.024-3.242-4.864-9.216-11.52-5.973-6.656-9.472-10.922-10.496-12.8-1.024-1.877-1.792-4.096-2.304-6.656s-.426-4.608.256-6.144c.683-1.536,3.414-4.608,8.192-9.216c4.779-4.608,8.107-8.106,9.984-10.496c1.878-2.389,3.67-5.461,5.376-9.216c1.707-3.754,2.56-6.741,2.56-8.96c0-2.218-.682-4.266-2.048-6.144-1.365-1.877-3.498-4.01-6.4-6.4-2.901-2.389-5.461-3.84-7.68-4.352-2.218-.512-6.741-.768-13.568-.768-6.826,0-15.104.342-24.832,1.024Zm-39.424,19.2c1.878.171,3.243.512,4.096,1.024.854.512,1.366,2.56,1.536,6.144.171,3.584-.17,6.827-1.024,9.728-.853,2.902-2.56,6.998-5.12,12.288-2.56,5.291-4.01,9.302-4.352,12.032-.341,2.731-.341,4.864,0,6.4.342,1.536,1.024,2.816,2.048,3.84s3.072,2.304,6.144,3.84s11.179,4.608,24.32,9.216c13.142,4.608,20.139,7.424,20.992,8.448.854,1.024,1.28,2.134,1.28,3.328c0,1.195-.341,2.134-1.024,2.816-.682.683-2.133,1.366-4.352,2.048-2.218.683-4.949,1.195-8.192,1.536-3.242.342-10.24.427-20.992.256-10.752-.17-17.834-1.109-21.248-2.816-3.413-1.706-7.594-4.266-12.544-7.68-4.949-3.413-10.41-7.85-16.384-13.312-5.973-5.461-9.728-9.216-11.264-11.264s-2.73-3.925-3.584-5.632c-.853-1.706-1.365-3.242-1.536-4.608-.17-1.365.086-2.901.768-4.608.683-1.706,1.792-3.328,3.328-4.864s4.694-3.754,9.472-6.656c4.779-2.901,10.24-5.802,16.384-8.704c6.144-2.901,10.326-5.632,12.544-8.192c2.219-2.56,3.755-4.01,4.608-4.352.854-.341,2.219-.426,4.096-.256ZM631.029,396.55c1.195.342,2.134,1.536,2.816,3.584.683,2.048,2.219,9.814,4.608,23.296c2.39,13.483,4.182,25.515,5.376,36.096c1.195,10.582,2.902,21.163,5.12,31.744c2.219,10.582,3.158,16.384,2.816,17.408-.341,1.024-1.28,1.451-2.816,1.28-1.536-.17-4.266-1.365-8.192-3.584-3.925-2.218-6.57-4.266-7.936-6.144-1.365-1.877-1.877-5.12-1.536-9.728.342-4.608.427-10.837.256-18.688-.17-7.85-1.194-18.602-3.072-32.256-1.877-13.653-2.73-23.722-2.56-30.208.171-6.485.768-10.325,1.792-11.52c1.024-1.194,2.134-1.621,3.328-1.28Zm-91.648,10.24c1.195,0,2.304,1.024,3.328,3.072s3.243,12.459,6.656,31.232c3.414,18.774,5.462,33.11,6.144,43.008.683,9.899.427,20.822-.768,32.768-1.194,11.947-2.73,22.528-4.608,31.744-1.877,9.216-3.925,17.067-6.144,23.552-2.218,6.486-3.84,10.326-4.864,11.52-1.024,1.195-2.048,1.792-3.072,1.792s-2.56-.512-4.608-1.536-4.266-2.73-6.656-5.12c-2.389-2.389-4.522-4.949-6.4-7.68-1.877-2.73-3.84-6.314-5.888-10.752-2.048-4.437-3.328-7.765-3.84-9.984-.512-2.218-.768-4.522-.768-6.912c0-2.389.256-4.181.768-5.376.512-1.194,1.451-2.304,2.816-3.328c1.366-1.024,3.84-1.621,7.424-1.792c3.584-.17,7.083-.853,10.496-2.048c3.414-1.194,5.974-2.73,7.68-4.608c1.707-1.877,2.902-3.84,3.584-5.888.683-2.048,1.024-8.533,1.024-19.456c0-10.922-1.28-24.576-3.84-40.96s-3.754-28.757-3.584-37.12c.171-8.362.768-13.141,1.792-14.336c1.024-1.194,2.134-1.792,3.328-1.792Zm156.416,28.672c-3.754.342-5.888.683-6.4,1.024-.512.342-1.194,1.451-2.048,3.328-.853,1.878-1.28,6.571-1.28,14.08c0,7.51,3.414,20.736,10.24,39.68c6.827,18.944,10.923,30.464,12.288,34.56c1.366,4.096,2.304,7.595,2.816,10.496.256,1.451.512,2.902.768,4.352-.512-.341-1.024-.682-1.536-1.024-1.024-.682-2.048-1.962-3.072-3.84-1.024-1.877-2.048-3.157-3.072-3.84-1.024-.682-2.133-.682-3.328,0-1.194.683-2.133,1.792-2.816,3.328-.682,1.536-1.706,6.912-3.072,16.128-1.365,9.216-2.218,22.016-2.56,38.4-.341,16.384.256,27.136,1.792,32.256s3.243,8.619,5.12,10.496c1.878,1.878,3.67,3.243,5.376,4.096c1.707.854,4.011,1.622,6.912,2.304c2.902.683,7.168,1.451,12.8,2.304c5.632.854,9.814,1.28,12.544,1.28c2.731,0,4.267-.256,4.608-.768.342-.512.171-1.109-.512-1.792-.682-.682-1.28-1.962-1.792-3.84-.512-1.877-.768-4.522-.768-7.936c0-3.413,2.134-17.408,6.4-41.984c4.267-24.576,6.571-40.448,6.912-47.616.342-7.168.256-13.482-.256-18.944-.512-5.461-1.28-9.642-2.304-12.544-1.024-2.901-3.157-6.144-6.4-9.728-3.242-3.584-5.546-6.997-6.912-10.24-1.365-3.242-2.218-6.57-2.56-9.984-.341-3.413-.512-11.605-.512-24.576c0-6.485,0-12.97,0-19.456-5.29-.085-10.581-.17-15.872-.256-10.581-.17-17.749-.085-21.504.256Zm-204.8,42.496c-3.413,1.707-5.717,2.56-6.912,2.56-1.194,0-2.73-.341-4.608-1.024-1.877-.682-4.864-.768-8.96-.256s-8.874,1.792-14.336,3.84c-5.461,2.048-11.52,4.779-18.176,8.192-6.656,3.414-7.338,12.203-2.048,26.368c5.291,14.166,8.107,23.638,8.448,28.416.342,4.779.427,11.35.256,19.712-.17,8.363-1.024,12.544-2.56,12.544s-4.352-.682-8.448-2.048c-4.096-1.365-7.253-2.73-9.472-4.096-2.218-1.365-4.01-2.901-5.376-4.608-1.365-1.706-2.048-3.584-2.048-5.632s.768-3.584,2.304-4.608s3.67-2.048,6.4-3.072c2.731-1.024,4.523-2.133,5.376-3.328.854-1.194,1.366-2.816,1.536-4.864.171-2.048-.256-4.522-1.28-7.424-1.024-2.901-3.754-7.594-8.192-14.08-4.437-6.485-6.997-12.288-7.68-17.408-.682-5.12-1.365-8.618-2.048-10.496-.682-1.877-11.349-3.328-32-4.352-20.65-1.024-38.826-3.328-54.528-6.912-7.85-1.792-15.701-3.584-23.552-5.376-.768,3.926-1.536,7.851-2.304,11.776-1.536,7.851-2.133,14.592-1.792,20.224.342,5.632,1.11,9.472,2.304,11.52c1.195,2.048,4.182,5.206,8.96,9.472c4.779,4.267,7.68,7.595,8.704,9.984c1.024,2.39,1.451,5.035,1.28,7.936-.17,2.902-1.28,6.4-3.328,10.496s-3.328,8.534-3.84,13.312c-.512,4.779.598,12.032,3.328,21.76c2.731,9.728,4.011,16.214,3.84,19.456-.17,3.243-.853,5.803-2.048,7.68-1.194,1.878-.768,4.608,1.28,8.192s3.84,6.144,5.376,7.68s3.499,2.902,5.888,4.096c2.39,1.195,4.864,1.878,7.424,2.048c2.56.171,4.694,0,6.4-.512c1.707-.512,4.523-2.304,8.448-5.376c3.926-3.072,8.107-7.594,12.544-13.568c4.438-5.973,6.827-9.642,7.168-11.008.342-1.365.427-4.352.256-8.96-.17-4.608-2.816-12.8-7.936-24.576s-7.594-18.944-7.424-21.504c.171-2.56,1.28-5.29,3.328-8.192c2.048-2.901,3.499-5.376,4.352-7.424.854-2.048,1.451-5.12,1.792-9.216.342-4.096.768-6.4,1.28-6.912s1.11-.768,1.792-.768c.683,0,1.195.512,1.536,1.536.342,1.024.342,3.414,0,7.168-.341,3.755-1.28,7.339-2.816,10.752-1.536,3.414-2.56,6.315-3.072,8.704-.512,2.39-.512,5.547,0,9.472.512,3.926,1.11,6.486,1.792,7.68.683,1.195,1.963,2.646,3.84,4.352c1.878,1.707,6.571,4.523,14.08,8.448c7.51,3.926,11.776,6.4,12.8,7.424s1.878,2.39,2.56,4.096c.683,1.707.939,3.072.768,4.096-.17,1.024-.682,1.963-1.536,2.816-.853.854-3.072,2.048-6.656,3.584s-5.802,2.731-6.656,3.584c-.853.854-1.962,2.816-3.328,5.888-1.365,3.072-2.048,5.547-2.048,7.424c0,1.878.598,3.243,1.792,4.096c1.195.854,2.987,1.536,5.376,2.048c2.39.512,7.424.342,15.104-.512c7.68-.853,13.824-1.109,18.432-.768c4.608.342,8.875,1.28,12.8,2.816c3.926,1.536,8.704,4.694,14.336,9.472c5.632,4.779,9.216,7.254,10.752,7.424c1.536.171,3.072-.085,4.608-.768c1.536-.682,3.755-2.816,6.656-6.4c2.902-3.584,5.632-8.277,8.192-14.08c2.56-5.802,3.67-12.117,3.328-18.944-.341-6.826-.426-17.237-.256-31.232.171-13.994-.085-22.442-.768-25.344-.682-2.901-2.218-7.253-4.608-13.056-2.389-5.802-3.669-10.41-3.84-13.824-.17-3.413.768-7.168,2.816-11.264s6.144-9.813,12.288-17.152c6.144-7.338,9.643-12.288,10.496-14.848.854-2.56.939-4.352.256-5.376-.682-1.024-1.365-1.536-2.048-1.536-.682,0-2.73.854-6.144,2.56Z" clip-rule="evenodd" stroke-linecap="round" stroke-linejoin="round" stroke-miterlimit="10"/></g><g id="elAjGDgpkst7" transform="matrix(-.000053 0 0 0 96.4045 96.378)" opacity="0" clip-rule="evenodd"><path d="M685.087,232.455c22.662-20.909,37.56-3.344,81.011.864s92.185,14.841,92.794,15.968c14.462,26.802,17.932,58.706,17.8,63.113-1.113,37.177-3.544,60.028-3.486,82.993c37.215-7.76,35.97,5.014,47.641,15.415s5.712,13.957,13.969,31.682s7.387,26.744,7.387,27.947c0,1.204,3.855,33.798,3.339,35.402c0,0,3.525,27.323-19.853,23.917s-16.091-22.928-22.336-45.351c-6.245-22.424-13.583-23.067-19.199-19.257-5.617,3.81-1.083,18.503,4.516,37.795c5.598,19.292,3.096,34.332,3.612,35.134s3.351,34.021-17.112,35.006c-20.462.985-10.825-5.16-20.597-21.878s3.371-63.113-12.124-63.135-3.346,26.826-1.421,38.616c1.926,11.79-1.93,32.673-1.93,33.476-6.709,24.063-15.483,17.084-21.676,14.176-6.193-2.907-3.518-30.674-3.518-32.679c0-1.315-1.717-27.569-6.914-40.389-2.73-6.732-10.418-4.201-13.475-4.421-3.73-.267-2.839,10.982.515,20.848c5.252,15.451,3.243,30.442,3.243,30.442-2.306,23.99-3.474,32.859-12.079,31.798-8.606-1.06-12.826,3.296-18.471-17.672-1.834-6.81-10.587-18.306-14.514-67.576-.159-1.999-3.374-41.593-2.342-41.593s.848-21.855,5.323-37.47c4.474-15.615,11.705-23.868,12.221-23.066.516.803,4.155-17.424,1.79-34.421-2.365-16.996.464-23.469-11.251-33.564-11.715-10.096-14.984-4.913-35.609-6.818-20.626-1.905-37.579,20.523-46.892-.803-9.313-21.325-13.024-63.59,9.638-84.499Z" clip-rule="evenodd"  stroke-width="4" stroke-linejoin="round" stroke-miterlimit="10"/><path d="M880.713,625.464c22.05,29.389,15.411,24.745,9.996,58.512s-19.097,71.64-20.548,72.112c-34.488,11.24-75.543,13.936-81.214,13.833-47.838-.864-77.243-2.754-106.794-2.708c9.985,28.92-6.452,32.952-19.836,42.021-13.384,9.07-17.96,4.439-40.768,10.856s-34.415,5.741-35.963,5.741-43.49,2.995-45.555,2.594c0,0-11.117-2.948-18.608,4.543-7.49,7.49-12.863-5.036-11.584-10.336c4.383-18.167,28.92-22.14,57.774-26.993s29.683-10.556,24.78-14.92c-4.903-4.365-21.943-5.043-46.768-.692-24.824,4.351-29.878,1.78-40.654,1.461-7.194-.213-50.202,10.929-51.47-4.973-1.267-15.902,6.641-8.413,28.153-16.007c21.513-7.594,81.214,2.62,81.242-9.422.028-12.041-36.635-9.53-51.806-8.034-7.056.696-42.525-1.5-43.077-1.5-30.964-5.214-20.576-10.998-16.834-15.81c3.741-4.813,38.915-9.049,41.496-9.049c1.691,0,37.928,2.866,54.424-1.173c8.664-2.121,6.439-3.418,6.722-5.794.344-2.899-21.339-12.521-34.035-9.915-19.883,4.082-36.951,1.41-36.951,1.41s-24.156,4.997-33.142.61c-7.319-3.572-8.697-16.87,18.285-21.257c8.504-1.383,32.802-3.57,44.679-5.156c25.809-3.446,40.51-6.123,42.277-6.123c2.58,0,53.522-2.622,53.522-1.82s28.123.659,48.216,4.136c20.094,3.478,30.158,12.984,29.126,13.385s22.422,3.23,44.293,1.392s30.2.36,43.191-8.744s6.322-11.644,8.773-27.673c2.451-16.028-26.409-29.203,1.032-36.44c27.442-7.238,78.327-13.789,97.626,11.933Z" clip-rule="evenodd"  stroke-width="4" stroke-linejoin="round" stroke-miterlimit="10"/><path d="M371.275,779.374c-22.662,20.908-37.56,3.343-81.011-.865s-92.185-14.841-92.793-15.968c-14.463-26.801-17.933-58.706-17.801-63.113c1.113-37.176,3.544-60.028,3.486-82.992-37.215,7.759-35.97-5.015-47.641-15.416s-5.711-13.956-13.969-31.681c-8.257-17.725-7.387-26.745-7.387-27.948s-3.855-33.797-3.339-35.401c0,0-3.525-27.324,19.853-23.917c23.378,3.406,16.092,22.928,22.336,45.351c6.245,22.423,13.583,23.067,19.2,19.257c5.616-3.81,1.082-18.504-4.516-37.796-5.599-19.291-3.097-34.332-3.613-35.134s-3.351-34.021,17.112-35.006c20.462-.985,10.825,5.161,20.597,21.878c9.772,16.718-3.371,63.113,12.124,63.135s3.346-26.826,1.421-38.616c-1.926-11.789,1.931-32.673,1.931-33.475c6.709-24.063,15.482-17.084,21.675-14.177c6.193,2.908,5.926,30.674,5.926,32.679c0,1.315,5.328,26.767,10.525,39.587c2.73,6.732,4.399,5.004,7.456,5.223c3.73.268,5.438-10.461,2.085-20.327-5.253-15.452-3.244-30.443-3.244-30.443c2.307-23.99.876-33.378,9.481-32.318s12.825-3.296,18.471,17.673c5.645,20.968,14.513,65.57,14.513,67.575s3.375,41.593,2.342,41.593c-1.032,0-.848,21.855-5.323,37.47-4.474,15.615-11.704,23.868-12.22,23.066-.517-.802-4.156,17.425-1.791,34.421c2.365,16.997-.464,23.469,11.251,33.565c11.716,10.096,14.984,4.913,35.61,6.818c20.625,1.905,37.578-20.524,46.891.802c9.314,21.325,13.024,63.591-9.638,84.5Z" clip-rule="evenodd"  stroke-width="4" stroke-linejoin="round" stroke-miterlimit="10"/><path d="M146.645,380.379c-26.905-17.611-4.302-29.188,1.113-62.955s19.097-71.639,20.548-72.112c34.488-11.239,75.542-13.936,81.213-13.833c47.839.864,77.244,2.754,106.794,2.709-9.984-28.921,6.453-27.954,19.837-37.023c13.384-9.07,17.071-10.211,39.88-16.628c22.808-6.416,34.414-5.74,35.963-5.74c1.548,0,43.49-2.996,45.554-2.595c0,0,35.16-2.739,30.776,15.428-4.383,18.168-27.91,10.002-56.764,14.855s-31.276,13.059-26.373,17.423c4.902,4.365,24.531,3.724,49.355-.627c5.327-.933,9.116-1.444,13.811-1.884c17.19-1.608,29.869-3.49,30.68-3.805c1.032-.401,43.778-2.604,45.045,13.297c1.267,15.902-3.4,12.443-26.1,14.715-8.702.871-25.985.671-34.325,2.723-22.712,5.589-47.619-1.766-47.637,5.993-.016,6.792,12.184,13.304,23.097,10.899c9.262-2.042,19.99-2.66,26.604-3.312c15.172-1.497,41.589-.321,42.621-.321c21.333,3.592,31.647,14.8,23.033,19.54-1.713.943-44.261,5.018-46.841,5.018-.672,0-41.907,3.241-51.851,5.676-8.663,2.121-6.342,8.363-6.625,10.739-.344,2.899,14.131,2.206,26.827-.4c19.883-4.082,40.801-.893,40.801-.893c30.87,1.793,41.468-1.369,40.104,5.318-1.038,5.09,1.905,13.815-8.497,16.947-3.266.984-57.776,6.61-66.735,7.706-18.374,2.247-33.895,2.948-35.203,2.948-2.58,0-52.498.035-52.538.836-.055,1.085-5.004.513-11.09.233-10.012-.46-25.614-1.223-38.11-3.385-20.094-3.477-32.041-14.508-31.009-14.909s-20.356.214-42.227,2.052-30.2-.36-43.191,8.744-6.322,11.644-8.773,27.673c-2.452,16.028,26.409,29.203-1.033,36.44-27.441,7.238-81.828,10.122-108.734-7.49Z" clip-rule="evenodd"  stroke-width="4" stroke-linejoin="round" stroke-miterlimit="10"/><path d="" clip-rule="evenodd" stroke-linecap="round" stroke-linejoin="round" stroke-miterlimit="10"/></g><g id="elAjGDgpkst13" transform="matrix(0 0 0 0 96.378 96.378)" clip-rule="evenodd"><g clip-rule="evenodd"><path d="M387.812,525.791c.443-2.77.675-5.579.967-8.371.389-3.71.729-7.421,1.112-11.131.119-1.118.314-2.231.476-3.349" clip-rule="evenodd" stroke-linecap="round" stroke-linejoin="round" stroke-miterlimit="10"/><path d="M380.559,576.819l2.635-22.619c1.901-3.348,1.621-7.145,2.306-10.748.275-1.581.455-3.177.541-4.779.037-.584-.308-1.194-.541-2.004l.454-1.907.335-2.522.648-5.476.648-4.834.459-4.721l1.296-8.555.767-5.843.897-7.994l1.339-8.808c0,0,.405-5.471.784-7.562.378-2.09.95-6.734.95-6.734s1.145-7.988,1.15-8.68c.006-.691.541-6.162.832-6.481.292-.318.956-7.421.956-7.421s1.734-14.468,1.858-14.279s1.026-9.123,1.026-9.312.373-2.317.373-2.317c.216-1.215.54-2.425.626-3.651.184-2.263.184-4.547.373-6.81s.594-4.531.778-6.8c.313-3.845.54-7.691.767-11.541.151-2.587.362-5.185.27-7.767-.092-2.365-.481.567-.875-1.777-.195-1.15.048-1.793.88-1.901.34-1.28.637-2.398.886-3.343l3.424-.178.502.821c.47-1.08.913-2.117,1.356-3.144l.319.054c.081.395.156.789.237,1.194c1.523.092,3.063.119,4.586.308.583.075,1.107.54,1.679.783.657.308,1.343.551,2.047.724c1.08.221,2.204.345,3.311.459.377-.007.752-.055,1.118-.146.604-.127,1.227-.127,1.831,0c1.382-.81,1.874-3.046,4.245-2.701.324,1.01.67,2.058,1.01,3.111h.432l.4-1.231c.847-.054,1.571-.113,2.3-.151.222,0,.54-.049.648.07c1.172,1.588,2.506.837,3.894.4.732-.152,1.483-.186,2.226-.103c1.706.038,3.343.184,4.909-.956.805-.589,2.117-.497,3.208-.67.346-.013.693-.002,1.037.033c1.042,0,2.512-.47,3.041.043c1.318,1.344,2.103,3.121,2.209,5.001.156,1.842.664-1.62,1.361.124.832,2.037,1.663,3.997,1.372,6.26-.053.404-.002.814.145,1.194c1.01,2.754,1.577,5.65,1.68,8.582.124,1.998.94,3.958,1.491,5.941c1.139,4.072,2.376,8.101,3.451,12.2.999,3.813,1.825,7.669,2.76,11.499.146.421.362.815.637,1.166.702,1.048,1.194,1.918.713,3.435-.329,1.048.718,2.522,1.118,3.813.304.757.507,1.551.605,2.36.102,3.208.324,6.379,1.761,9.338.176.48.283.982.318,1.491.103.616,0,1.372.313,1.831.536.617,1.15,1.162,1.826,1.62.173-.664.583-1.372.486-1.993-.481-3.067.675-6.016.54-9.052-.076-1.776-.243-3.559-.205-5.336.14-6.81.302-13.621.54-20.42.113-2.922.643-5.828.734-8.75.098-3.089-.124-6.189-.172-9.284c0-1.08.043-2.16.124-3.267.54-6.552.761-7.794-.502-14.302-.168-1.148.19-2.311.974-3.167.785-.855,1.912-1.313,3.071-1.245.075-.659.151-1.318.259-2.226.516.149,1.051.221,1.588.216.918-.151,2.247-.194,2.625-.783.994-1.55,1.912-1.042,3.008-.372c1.096.669,1.917,2.236,3.457.578.189-.206,1.204.453,1.858.572c2.932.54,5.8.184,8.7-.427c1.621-.34,3.408-.826,4.861.713.281.297,1.053.184,1.593.152c1.972-.135,3.938-.308,5.904-.47l1.009-.087c1.453-.129,2.901-.27,4.354-.394.831-.07,1.668-.113,2.506-.167c1.339-.087,1.739.772,1.998,1.879.967,4.078.826,2.922.68,7.048-.167,4.775-.486,9.544-.842,14.307-.173,2.269-.6,4.526-.875,6.789-.081.627,0,1.264-.049,1.901-.07,1.658-.237,3.316-.216,4.974c0,2.112.308,4.218.292,6.325-.032,4.196-.119,8.393-.324,12.578-.103,2.042-.578,4.067-.778,6.109-.147,1.495-.192,2.998-.135,4.499.054,1.339.621,2.657-.664,3.834-.335.308-.092,1.297-.033,1.966.087.913.314,1.815.379,2.701.118,1.62.232,3.192.194,4.785-.076.866-.318,1.709-.713,2.484.54,2.161,1.356,4.24.648,6.719-.54,1.825-.308,3.862-.4,5.811-.07,1.491-.043,2.992-.194,4.478-.054.54-.481,1.053-.967,2.03c1.215,1.766,1.28,4.11,0,6.589-1.08,2.08.103,4.181.351,6.238.249,2.058-.313,4.159,1.081,6.022.334.443-.217,1.513-.281,2.301-.341,4.002-.773,8.004-.951,12.017-.167,3.694-.513,9.052-.54,12.757.179,1.367.435,2.723.767,4.061.155.553.155,1.138,0,1.691l-.826,3.624-1.453,48.068c0,0,1.08,12.476.421,13.594s-.135,9.284.238,7.782c.372-1.501.826,6.406.221,7.167-.605.762.124,3.905.124,3.905l.092,3.03.168,5.466c-.708,2.873-1.464,5.228-1.837,7.637-.772,5.006-4.45,8.101-9.457,7.869-1.08-.049-2.219.464-3.332.696-.335.065-.853.184-.999,0-1.323-1.479-2.398-.21-3.646.152-1.717.496-3.381,2.041-5.33.54-1.27,1.004-2.447,1.825-4.251,1.269-.826-.254-1.982.329-2.906.724-2.273.966-4.488,1.409-7.021.815-1.08-.259-2.479.508-3.667.978s-2.058,1.166-3.559-.238c-1.08-1.015-2.16-3.24-4.51-2.501-.189.06-.724-.388-.794-.675-1.616-6.625-3.206-13.259-4.769-19.902-1.21-5.131-2.425-10.262-3.548-15.414-.643-2.916-1.134-5.86-1.62-8.798-.659-3.781-1.259-7.61-1.896-11.412-.053-.342-.163-.672-.324-.978-2.16-3.91-2.074-8.268-2.636-12.535-.399-2.998-.426-6.189-2.279-8.884-.348-.655-.561-1.373-.626-2.112-.449-2.474-.859-4.947-1.259-7.426-.297-1.869-.432-3.781-.864-5.607-.778-3.305-1.291-6.713-3.267-9.624-.137-.294-.205-.615-.2-.94-.13-1.004-.054-2.079-.395-3.008-.54-1.431-1.123-2.7-1.08-4.385-.042-1.718-.594-3.384-1.588-4.786-1.172-1.679-.691-3.667-1.62-5.287-.517-.797-1.091-1.555-1.717-2.268-.304.906-.54,1.834-.708,2.776-.275,2.516-.405,5.044-.653,7.561-.346,3.478-.692,6.962-1.151,10.434-.437,3.311-1.08,6.595-1.523,9.906-.378,2.851-.54,5.724-.929,8.582-.291,2.317-.723,4.623-1.08,6.934-.038.227-.113.454-.13.681-.302,4.634-.734,9.268-.853,13.907-.113,4.758.135,9.533.119,14.296c0,2.333-.34,4.661-.373,7.021-.059,4.618-.075,9.236,0,13.848.076,4.612.195,9.338.476,13.994.199,3.365-3.203,7.194-6.692,7.723-1.242.184-2.425.799-3.819,1.285-.718-1.188-1.674-.669-3.078-.226-3.116.983-6.233,2.16-9.565,2.365-.403-.002-.8.103-1.15.303-1.293,1.004-2.97,1.371-4.564.999-.574-.027-1.147.053-1.691.237-1.328.238-2.651.476-3.975.735-1.517.297-3.138.367-4.515.983-2.052.918-3.753-.2-5.6-.481-2.922-.443-3.905-2.943-4.807-5.114-.627-1.502-.227-3.414-.351-5.131-.173-2.463-.443-4.915-.616-7.378-.135-1.95-.2-3.91-.259-5.865-.097-3.014-.227-6.033-.227-9.052c0-2.052.54-4.164.238-6.146-.514-3.181.448-6.233.28-9.344-.141-1.202-.358-2.394-.648-3.57c1.375-2.718,1.735-5.838,1.016-8.798l.081-.767c.059-.156.124-.308.183-.448v-1.215" clip-rule="evenodd" stroke-linecap="round" stroke-linejoin="round" stroke-miterlimit="10"/><path d="M750.654,586.843c.081-1.307.178-2.609.232-3.916.075-1.917,0-3.845.205-5.741.486-4.32,1.199-8.641,1.62-13.011.362-3.596.065-37.568.357-41.176.2-2.403.956-4.817.805-7.183-.206-3.165,1.852-4.682,3.688-6.481.19-.218.443-.37.724-.437c2.317-.2,4.65-.541,6.962-.449.907.038,1.841,1.021,2.652,1.707c1.895,1.62,5.401,1.923,7.453.616.445-.214.947-.276,1.431-.179c1.161.152,2.306.465,3.473.595c1.879.205,3.78.334,5.655.459.442.032.896-.098,1.344-.108.785-.077,1.575-.059,2.355.054c1.248.297,2.328.68,3.522-.389.345-.314,1.582.329,2.398.583.815.254,1.533.756,2.322.81c2.506.168,4.115,1.421,4.78,3.883.313,1.167.842,2.285,1.08,3.462.213,1.203.294,2.426.243,3.646-.081,2.247.043,34.836-.092,37.077-.167,2.641-.281,5.282-.459,7.918-.324,4.709-.724,9.408-1.01,14.118-.351,5.687-.589,11.374-.94,17.061-.086,1.334-.54,2.641-.664,3.975-.173,1.62.259,3.548-.416,4.92-1.15,2.355-.221,4.764-.859,7.021-.588,2.107-1.561,4.1-2.16,6.2-.427,1.48-2.452,3.781-3.943,3.954-1.344.157-2.7.113-4.056.319-2.83.442-5.633,1.037-8.463,1.479-.94.146-1.933-.07-2.879.06-1.08.14-2.1.48-3.494.815-.753.151-1.514.263-2.279.335-1.496.097-2.998.07-4.488.157-2.506.146-5.018.281-7.513.54-1.62.167-3.24.632-4.861.815-.588.065-1.593-.135-1.766-.507-.513-1.124-1.571-1.134-2.376-1.664-1.083-.795-1.979-1.819-2.625-2.997-1.663-2.798-1.879-5.984-1.874-9.122c0-1.691.632-3.37.897-5.066.442-2.82.842-5.644,1.226-8.474.406-3,.788-5.999,1.145-8.998.091-.794.081-1.62.118-2.404-.009-.232.002-.465.033-.696.048-.222.14-1.242.14-1.242.05-.577.13-1.15.238-1.718.056-.203.096-.411.119-.621Z" clip-rule="evenodd" stroke-linecap="round" stroke-linejoin="round" stroke-miterlimit="10"/><path d="M750.724,408.366c1.62-1.545,3.537-1.621,5.59-1.529.783.038,1.582-.367,2.382-.426.59.007,1.176.093,1.744.253.54.114,1.129.481,1.62.384c3.527-.67,7.021-.162,10.537.054c2.814.178,5.65-.103,8.458.086c2.436.162,4.893,1.194,7.248.951c2.987-.308,5.79.264,8.642.54.452-.018.899-.1,1.328-.243.972.88,1.653,2.7,2.042,4.909.119.643.21,1.323.275,2.015.465,4.861.054,25.276-1.744,26.27-1.437.794-3.181,1.118-4.861,1.409-1.855.286-3.725.456-5.601.508-1.042.054-2.101-.173-3.149-.162-2.83.029-5.66.092-8.49.189-.961.038-1.917.281-2.878.356-1.55.114-3.144-.027-4.651.287-2.3.47-4.569.912-6.923.68-1.734,2.387-2.949.281-4.321-.502-1.08-.616-2.09-1.329-3.197-1.88-.875-.437-1.804-.783-2.701-1.145-1.188-2.317-1.993-28.576-1.863-29.127.129-.55.459-3.894.459-3.894-.049.05-.111.086-.178.103" clip-rule="evenodd" stroke-linecap="round" stroke-linejoin="round" stroke-miterlimit="10"/><path d="M380.04,549.204c-.135.276-1.49,1.167-1.415,1.621.438,2.635-1.858,2.16-2.997,2.549-3.208,1.112-6.525,1.928-9.819,2.77-1.491.384-3.035.54-4.553.821-.569.07-1.134.172-1.691.308-2.063.621-3.996,1.415-6.292,1.475-2.295.059-4.482,1.242-6.74,1.868-1.366.378-2.754.659-4.148.935-1.08.216-2.198.389-3.305.54-3.079.367-6.152.815-9.241,1.015-2.549.162-5.12,0-7.68.032-.697,0-1.383.389-2.015.195-1.652-.14-3.305-.303-4.958-.427-1.874-.14-3.78-.389-5.627-.345-3.734.027-7.445-.59-10.969-1.826-1.713-.54-3.619-.54-5.401-.886-1.098-.305-2.179-.666-3.241-1.08-1.388-.437-2.797-.794-4.175-1.253-.451-.227-.879-.5-1.274-.815-.713-.427-1.459-.805-2.161-1.253-.371-.195-.68-.491-.891-.854-1.798-4.32-1.825-4.423,2.485-6.427c2.7-1.247,5.503-2.192,8.258-3.278c3.24-1.275,6.421-2.641,9.689-3.781c1.712-.61,3.559-.815,5.336-1.263c1.161-.287,2.29-.697,3.446-1.021c3.575-1.005,7.139-2.074,10.753-2.938c1.206-.186,2.437-.147,3.629.113c3.284.486,6.616.826,9.803,1.701c3.186.875,6.162,2.339,9.251,3.495.697.243,1.424.388,2.161.432c2.446.2,4.904.259,7.345.54c4.569.508,9.117,1.534,13.686,1.572c3.494.027,6.481,1.425,9.678,2.16c2.447.54,3.311,1.955,3.311,2.252l-.238,1.053Z" clip-rule="evenodd" stroke-linecap="round" stroke-linejoin="round" stroke-miterlimit="10"/><path d="M903.639,525.149c-.07-1.08.27-2.161.183-3.241-.507-6.481-1.08-12.962-1.62-19.411-.34-4.012-.345-8.101-1.08-12.022-.578-3.122.286-6.119-.103-9.181-.642-5.137-.88-10.321-1.226-15.49-.167-2.528-.151-5.066-.297-7.594-.259-4.472-.578-8.938-.875-13.41-.421-6.324,1.081-34.026.627-40.372-.146-2.036-.411-4.066-.67-6.092-.248-1.928-.443-3.743.67-5.601c1.031-1.728,1.501-3.78,2.382-5.616c1.372-2.852,3.44-3.02,5.347-.492.869,1.156,1.668,1.62,3.186.816c2.009-1.081,2.879-.719,4.391,1.112.221.265.495.48.805.632c2.398,1.151,4.769,3.062,7.226,3.181c2.252.108,4.099,2.123,6.422,1.08.189-.086.572-.102.669,0c1.432,1.734,3.781,1.043,5.509,2.042c1.191.555,2.517.755,3.819.578c1.166-.114,1.836.254,1.782,1.226-.113,2.209-.486,4.402-.74,6.6-.093.591-.133,1.189-.119,1.787.087,1.253-1.696,23.91-1.507,25.158.103.686.487,1.344.541,2.03.086,1.334,0,2.701,0,3.489-.767.87-1.491,1.345-1.621,1.95-.129.605.373,1.248.643,1.858.341-.095.676-.209,1.005-.34c2.046,4.553,1.08,9.624,1.933,14.452c1.804.492,1.831.541,1.518,1.902h-3.111c.27.583.486,1.031.686,1.479c1.166,2.647,1.166,2.647-.886,4.78-1.809,1.874-2.333,3.781-1.501,5.941.102-1.08,0-1.998.318-2.781.319-.783.994-1.297,1.761-2.231.583,1.901-1.34,3.565-.027,5.433c1.01,1.437,1.161,3.479,1.744,5.434c1.394-1.729,1.918-1.567,2.798.54l1.14-.778c.3.383.547.804.734,1.253.34,1.188,0,2.447,0,3.543c0,1.966-.508,2.533-2.122,3.343-1.081.54-.757,2.231.145,3.214.994,1.08,1.707,2.16,1.259,3.716-.053.331.05.668.281.912c1.847,1.399,1.706,3.392,1.728,5.363c0,1.08.124,2.161.086,3.241.03.576-.132,1.145-.459,1.62-1.436,1.485-.167,1.62.821,1.907c1.561,5.822-.07,12.119,3.333,18.076l-1.388-.691c.091.94.167,1.793.248,2.641.378,4.072.702,8.145,1.156,12.211.205,1.794.75,3.554.972,5.347.042,1.081.015,2.163-.081,3.241c0,.74-.151,1.62.151,2.203c1.718,3.419.956,7.022.934,10.559c0,1.809.379,3.624.568,5.439.345,3.24.675,6.481,1.01,9.721.004.174.031.347.081.513.702,1.891.653,3.781.572,5.812-.13,3.197.248,6.411.421,9.619.222,4.196.314,8.404.724,12.584.275,2.749.292,1.226.281,3.98c0,2.317.81,4.618.999,6.946.227,2.851.216,5.719.238,8.582.048,5.941.135,11.882,0,17.823-.06,3.094-.173,6.259-2.393,8.83-.184.346-.284.731-.292,1.123-.264,1.378-.437,2.782-.826,4.127-.103.34-.875.54-1.366.713-.945.372-1.91.691-2.89.956-.581.069-1.165.105-1.75.108-.831.102-1.658.248-2.473.426-.708.228-1.429.408-2.161.54-1.506.125-3.03.033-4.531.168s-3.008.648-4.504.599c-2.263-.075-4.483-.34-6.352,1.345-.235.174-.523.26-.815.243-2.161-.102-4.364-.146-6.525-.389-1.301-.151-2.338-.205-3.083,1.161-.508.929-2.912.881-4.321.108-3.091-1.607-5.581-4.167-7.102-7.301-2.009-4.143-4.321-8.145-6.314-12.287-1.734-3.565-3.24-7.254-4.861-10.867-1.523-3.349-3.148-6.649-4.666-9.997-2.819-6.222-5.601-8.209-8.371-14.447-2.231-5.034-4.354-10.116-6.649-15.123-1.572-3.435-3.375-6.762-5.044-10.154-1.264-2.57-2.441-5.184-3.716-7.75-1.08-2.214-2.279-4.391-3.424-6.583-.589-1.124-1.118-2.28-1.788-3.354-.586-.856-1.217-1.68-1.89-2.469l-.584.238c0,.713,0,1.426,0,2.16.13,4.424.233,8.842.427,13.254.092,2.025.454,4.04.54,6.065.07,1.367-.113,2.739-.135,4.11-.054,3.133,0,6.271-.14,9.403-.06,1.491-.443,2.96-.54,4.445.029.795.136,1.586.318,2.36.119.385.157.789.114,1.189-1.08,3.597-.659,7.339-.999,11.001-.476,5.136-.346,10.327-.427,15.49-.038,2.371-1.156,3.889-3.154,5.131-1.409.854-2.6,2.025-3.478,3.419-2.247,3.78-5.677,5.033-9.776,5.147-.227,0-.481-.119-.68-.06-1.707.54-3.381,1.151-5.11,1.583-1.728.432-3.37.615-5.06.923-3.468.637-7.227-.902-10.489,1.664-.756.588-2.376.367-3.51.124-1.664-.362-3.241-1.156-4.861-1.62-1.34-.389-1.82-1.205-2.539-2.431-1.674-2.846-1.247-5.941-2.09-8.83-.777-2.652-.389-5.023-.075-7.588.378-3.149.178-6.363.41-9.538.211-2.917.686-5.806.999-8.717.303-2.809.999-5.52.454-8.474-.41-2.22.416-4.645.54-6.989s0-4.672.032-7.021c.065-2.582.341-5.164.33-7.74c0-3.159-.243-6.313-.346-9.473-.038-1.139,0-2.279,0-3.424.141-6.827.243-13.653.454-20.475.086-2.841.475-5.671.589-8.512.118-2.97,0-5.94.113-8.916.092-2.501.367-4.996.54-7.497.043-.626-.043-1.264,0-1.895.06-1.821.157-3.641.216-5.466.087-2.506.146-5.018.222-7.524c0-.745.064-1.49.097-2.236.162-4.007.318-8.014.491-12.017.173-4.002.427-7.939.503-11.914.032-1.896-.395-3.78-.378-5.698.048-4.558.302-9.111.345-13.669-.022-2.027-.167-4.051-.432-6.06-.05-1.066-.027-2.135.07-3.197.049-4.035-.351-8.075-.507-12.109-.054-1.383.172-2.771.156-4.148-.054-3.738,1.621-28.862,1.68-32.594c0-1.82.54-3.635.761-5.461.406-3.062,4.969-4.185,7.022-3.391c2.052.793,4.029,1.533,6.259.723.281-.102.746.179,1.08.373.335.194.605.751.902.751c3.576-.033,6.838,2.452,10.662,1.08c1.236-.448,3.24-.778,4.191.745.858-.508,1.62-1.01,2.403-1.399.259-.124.864-.07.956.092c1.258,2.279,3.446,1.399,5.099,1.205c3.904-.46,7.064,1.199,9.926,3.267c1.205.864,1.55,2.965,2.161,4.542.497,1.221.864,2.49,1.242,3.748.184.595.205,1.243.405,1.826.761,2.241-.33,25.865.464,28.084.13.368.459.762.4,1.081-.913,4.688.772,8.922,2.16,13.221.355,1.252.61,2.531.762,3.824.205,1.296.232,2.625.502,3.905.133.722.477,1.389.989,1.917c2.511,2.295,2.938,5.514,3.948,8.479s2.074,6.055,3.067,9.101c.945,2.878,1.826,5.779,2.755,8.641.297.929.691,1.831.988,2.76.729,2.317,1.345,4.666,2.16,6.951.816,2.285,1.907,4.51,2.701,6.821c1.453,4.24,2.7,8.539,4.175,12.779.572,1.669,1.474,3.24,2.16,4.861.713,1.739,1.237,3.553,2.015,5.255.533,1.124,1.22,2.17,2.041,3.105.818.869,1.213,2.054,1.08,3.241-.086,1.274.389,2.657.865,3.894.63,1.551,1.368,3.056,2.208,4.504.238.421.827.653,1.253.967m41.258-47.258c-.762.581-1.258,1.444-1.377,2.395s.15,1.909.745,2.66c1.825-1.469-.049-3.273.637-5.006l-.005-.049Zm-1.242-3.305c-2.631-.47-3.014.264-2.42,3.408l2.42-3.408Z" clip-rule="evenodd" stroke-linecap="round" stroke-linejoin="round" stroke-miterlimit="10"/><path d="M940.775,467.192c.21.037.417.085.621.146.071.853.13,1.712.184,2.565-.27,0-.772,0-.772,0-.038-.88-.033-1.755-.033-2.711Z" clip-rule="evenodd" stroke-linecap="round" stroke-linejoin="round" stroke-miterlimit="10"/><path d="M652.466,456.05c-.27.032.54-.961.27-.929-.287-4.007-2.409-7.28-4.046-10.629-.718-.243-1.485-.54-1.798-1.08-.45-.734-.651-1.594-.572-2.452.286-1.529-.298-2.701-1.005-3.894-.405-.697-3.651-2.9-4.035-3.608-1.415-2.614-2.7-5.32-4.32-7.788-1.421-2.16-3.295-3.991-4.861-6.033-.762-.977-1.15-2.301-2.031-3.132-2.057-1.95-4.353-3.651-6.481-5.542-1.453-1.301-2.7-2.857-4.18-4.115-3.079-2.609-6.103-5.331-10.019-6.724-.351-.124-.572-.54-.912-.751-1.28-.729-2.587-2.004-3.873-1.993-2.495,0-4.256-1.507-6.384-2.16-1.922-.621-3.737-1.68-5.698-2.058-2.954-.572-6-.675-8.992-1.08-.676-.154-1.326-.407-1.928-.751-1.08,0-1.847.038-2.587,0-1.167-.075-2.328-.297-3.495-.302-2.214,0-4.428.119-6.643.129-1.82,0-3.645-.178-5.46-.086-3.57.178-7.134.729-10.694.675-3.132-.043-6.243,1.14-9.381.157-.151-.043-.34.054-.54.054-1.399,0-2.798-.049-4.197-.103-.489-.098-.986-.152-1.485-.162-1.863.281-3.716.643-5.476.956l-.432-1.388-.47.032c-.627,1.556-1.318,3.079-1.847,4.667-.16.774-.234,1.564-.222,2.355-.135,1.442-.286,2.889-.426,4.32-.092.951-.173,1.901-.281,3.09.323.414.569.885.723,1.388.371,1.783.634,3.586.789,5.401.232,3.375.373,6.761.459,10.142.038,1.426-.54,2.944-.2,4.267.897,3.624-1.08,7.248.195,10.829.091.254-.233.632-.308.967-.074.322-.11.652-.108.983c0,2.441.092,4.86,0,7.318-.103,2.587-.351,5.163-.584,7.745-.243,2.786-.54,5.573-.81,8.36-.081.859-.135,1.718-.172,2.582-.087,2.084,0,4.191-.276,6.249-.292,2.16-1.026,4.288-1.383,6.481-.264,1.62-.226,3.24-.356,4.86-.07.848-.227,1.685-.324,2.528-.675,5.984-1.334,11.968-2.025,17.947-.076.681-.395,1.334-.449,2.015-.367,4.472-.686,8.943-1.08,13.415-.091.366-.24.714-.443,1.032l-.259,4.051v15.695l.47,74.251l2.771,4.655.88,3.522c.383.718-2.447,2.09-1.939,2.7.729.891,1.593,1.55,2.042,2.765.631,1.718,1.004,3.57,3.44,4.321c1.62.481,2.933,1.826,4.861,2.074c2.598.335,5.104.605,7.561-.54.36-.167.745-.277,1.139-.324c1.869-.243,3.743-.4,5.601-.697c1.113-.173,2.161-.583,3.289-.826c2.762-.616,5.527-1.208,8.296-1.777.98-.208,1.972-.348,2.971-.421.664-.007,1.327.045,1.982.156.424.114.862.168,1.301.162c2.29-.443,4.58-.918,6.854-1.447s1.62-2.598,3.781-3.597c0,0,1.269-1.01,1.269-2.015-.135-1.114-.389-2.212-.756-3.273l.21-.54c-.156-.145,31.239-32.329,44.86-49.688c0,0,4.985-7.231,4.985-9.241c0-2.009,3.602-6.945,5.115-9.213c1.512-2.269-.584-3.624.172-5.401.757-1.777,3.268-9.317,3.268-9.317s4.029-3.413,4.531-5.006c.503-1.594,2.29-9.139,3.046-11.402.757-2.263,1.761-9.062,2.269-10.321.507-1.258-.281-9.008-.281-9.008s2.517-6.039,2.517-6.795s1.512-7.302,2.268-7.804s1.005-8.053,1.507-9.565-.502-8.479-.502-9.23s1.426-4.488,1.679-5.115c.254-.626-.345-5.973-.345-5.973ZM603.08,488.995c-.049.648-.486,1.253-.653,1.901-.114.427-.26,1.081-.044,1.318.892.929.632,1.82.292,2.868-.349,1.242-.622,2.505-.816,3.781-.723,3.78-1.263,7.599-2.214,11.315-.54,2.16-1.825,4.142-2.646,6.254-.497,1.269-.627,2.7-1.129,3.942-.74,1.842-1.658,3.619-2.506,5.401-.36.778-.733,1.55-1.118,2.317-1.08,2.161-2.16,4.272-3.192,6.433-.567,1.177-.972,2.435-1.582,3.591-.811,1.54-1.767,3.003-2.625,4.521-1.275,2.257-2.976,4.207-3.992,6.691-1.535,3.951-3.966,7.492-7.102,10.343-.167.151-.394.351-.405.54-.146,2.965-2.803,4.488-3.991,6.876-.632,1.269-1.458.07-1.62-.589-.208-1.191-.291-2.4-.249-3.608c0-1.62.054-3.24.076-4.828c0-.292-.135-.621-.038-.859.497-1.21.216-2.328.049-3.592-.346-2.651-.173-5.401-.038-8.101.167-3.273.475-6.54.794-9.803.221-2.279.637-4.542.799-6.821.065-.864-.54-1.771-.497-2.641.103-2.117.492-4.218.611-6.335.329-5.795.54-11.601.869-17.396.168-2.922.448-5.839.697-8.755.216-2.582.416-5.163.707-7.734.368-3.241.832-6.449,1.226-9.679.081-.569.081-1.147,0-1.717-.54-3.133-.648-6.227.675-9.225.085-.216.127-.448.125-.68.075-2.701.102-5.401.237-8.102.054-1.193.422-2.371.481-3.564.108-2.22.113-4.44.119-6.659c0-2.825-.07-5.655-.038-8.48c0-1.08.313-2.16.329-3.208.033-2.074-.059-4.153-.07-6.227-.06-3.169.05-6.338.33-9.495.885.969,1.769,1.937,2.652,2.906.248.281.48.842.712.837c1.524,0,1.918,1.026,2.285,2.16.07.216.178.578.292.589c1.588.14,1.912,1.539,2.749,2.511c2.958,3.401,5.482,7.156,7.512,11.18.902,1.793,2.458,3.241,3.425,5.012c1.209,2.22,2.133,4.596,3.164,6.913.503,1.129.735,2.479,1.496,3.381c1.68,1.993.946,4.548,1.896,6.676.339.669.508,1.411.492,2.16-.184,1.059-.46,2.1-.827,3.111l1.572.356c.113,1.005.297,2.02.335,3.041.187,4.775.351,9.547.491,14.318.053,1.621.02,3.243-.097,4.861v-.006Z" clip-rule="evenodd" stroke-linecap="round" stroke-linejoin="round" stroke-miterlimit="10"/><path d="M392.905,424.941c-.092-.978-.173-1.95-.27-2.922-.026-.667-.112-1.331-.259-1.982-.351-1.199-1.08-2.339-1.188-3.554-.611-6.027-3.241-11.417-5.196-17.034-.164-.302-.382-.571-.643-.794-3.127-3.576-6.367-7.064-9.338-10.764-1.434-1.715-3.326-2.989-5.455-3.673-1.906-.707-3.78-1.523-5.719-2.111-1.248-.373-2.517-1.178-3.938-.152-.658.361-1.42.489-2.16.362-4.321-.464-8.641-1.026-12.962-1.523-1.696-.194-1.836-.475-1.188-2.085.173-.421,0-1.409-.2-1.485-2.02-.691-3.781-2.517-6.249-1.372-.41.195-1.015,0-1.534-.059-1.809-.146-3.618-.319-5.433-.438-1.107-.075-2.576-.54-3.267,0-1.729,1.308-3.176.044-4.732,0-.723,0,5.115-1.884,4.397-1.868-1.928.048-10.408,1.82-12.336,1.89-.772,0-1.566-.151-2.328-.059-1.372.162-2.841.912-4.067.605-3.105-.778-6.07-.087-9.003.453-3.991.74-7.712,5.655-7.75,9.322-.011,2.121-.264,4.234-.756,6.298-.719,2.873-1.782,5.66-2.701,8.484-.043.141-.097.384-.032.438c1.264,1.015.221,1.944-.065,2.927-.578,2.015-1.199,4.029-1.593,6.087-.54,2.641-.729,5.341-1.232,7.982-.588,3.079-1.463,6.098-2.009,9.182-1.08,5.941-1.949,11.957-2.943,17.931-.648,3.91-.4,7.955-1.853,11.741-.091.243.206.621.276.945.106.375.157.762.151,1.151-.265,3.651-1.663,7.215-.907,10.958c0,.287-.031.573-.092.854-.108,2.738-.249,5.471-.281,8.209c0,1.355,1.275,2.7,0,4.083-.07.076,0,.329.076.491.794,2.388,1.685,4.748,2.376,7.162c1.339,4.672,2.857,9.338,5.671,13.27c2.922,3.998,6.174,7.745,9.722,11.201c2.209,2.161,4.666,4.321,7.788,5.304c2.7.843,5.4,1.62,8.101,2.414c4.268,1.286,8.773,1.583,13.173.87c3.537-.584,6.918-1.729,10.677-1.475c3.651.249,7.378-.605,11.061-1.08c3.819-.491,7.61-1.426,11.439-1.577c4.386-.167,7.794-3.068,11.969-3.673.572-.081,1.08-.631,1.62-.961.778-.464,1.55-.956,2.349-1.383c2.841-1.517,5.288-3.451,6.951-6.275.605-1.032,1.34-1.993,2.015-2.987c0,0,.669-1.161.956-1.82.286-.659.091-7.081.378-7.929.33-1.931.424-3.895.281-5.849-.19-.945.378-8.495.934-7.561s1.048-8.593,1.426-9.063.378-4.25.378-5.001.189-3.305.848-4.061.475-4.623.848-5.66c.372-1.037.378-5.855.54-6.611.344-1.712.566-3.447.664-5.19c0-1.226.54-1.507.281-2.361-.129-.544.098-1.11.567-1.415l.47-5.471c.258-1.059.355-2.152.286-3.24-.128-.685.007-1.393.378-1.982c0,0,.189-4.154.54-4.623.351-.47.092-1.491.092-1.491Zm-44.827,23.31c-.27,4.062-.432,8.128-.778,12.184-.281,3.306-.648,6.611-1.183,9.889-.534,3.279-1.199,6.568-2.047,9.787-.939,3.548-2.16,7.021-3.24,10.537-.394,1.387-.863,2.752-1.404,4.088-.794,1.821-1.405,1.902-2.701.487-2.203-2.371-4.088-4.926-5.001-8.102-.292-1.015-1.226-1.858-1.501-2.878-.703-2.636-1.226-5.326-1.777-7.999-.551-2.674-1.324-5.493-1.529-8.269-.189-2.555.259-5.152.411-7.729.183-3.143.243-6.302.54-9.429.221-2.161.804-4.273,1.188-6.411.189-1.043.302-2.101.443-3.154c0-.114-.049-.276,0-.341c1.658-1.852.626-4.283,1.366-6.373s.87-4.509,1.62-6.659c.541-1.555.514-3.035.638-4.607.2-2.614,1.231-5.152,1.804-7.745.297-1.334.324-2.7.54-4.072.165-.73.369-1.451.61-2.16.378-1.367.718-2.733,1.08-4.094.184-.643.432-1.269.735-2.161c3.24,2.625,4.726,5.941,5.984,9.338c1.903,5.355,3.115,10.931,3.608,16.592.47,4.629.767,9.284.988,13.934.113,1.799-.265,3.581-.378,5.358l-.016-.011Z" clip-rule="evenodd" stroke-linecap="round" stroke-linejoin="round" stroke-miterlimit="10"/><path d="M78.2771,509.438c-1.0154,2.808-1.9983,5.519-2.9813,8.225l-.4861-.119c-.0379-.301-.0379-.606,0-.907.4753-1.766,1.0802-3.505,1.4421-5.298.2484-1.259.9343-1.675,2.0253-1.901Z" clip-rule="evenodd" stroke-linecap="round" stroke-linejoin="round" stroke-miterlimit="10"/><path d="M278.747,356.35c-.329-.186-.703-.276-1.08-.259-1.017-.092-2.037-.124-3.057-.098-1.137.049-2.266.199-3.376.449-1.08.27-2.16.988-3.24,1.08-2.215.227-4.462.183-6.697.216-1.653,0-3.36-.265-4.937.081-1.674.362-3.24,1.301-4.828,1.993v-.459c-1.194-.092-2.387-.233-3.581-.265-.627,0-1.253.194-1.88.2-4.477.059-8.938.076-13.318,1.285-2.268.627-5.347,3.127-5.147,5.164.173,1.787-.6,2.997-1.372,4.282-.491.805-1.491,1.302-1.998,2.101-1.323,2.101-2.49,4.321-3.738,6.444-2.047,3.526-4.077,7.059-6.178,10.553-.621,1.026-1.966,1.858-2.101,2.889-.427,3.365-2.9,5.72-3.889,8.771-.282.939-.704,1.829-1.253,2.641-1.852,2.631-3.975,5.077-5.304,8.064-.27.605-1.193,1.08-1.171,1.62.086,1.999-1,2.344-2.609,2.279-.313,0-.632.26-.961.368-1.151.367-2.312,1.004-3.468,1.004s-2.279-.643-3.419-1.004c-.401.542-.95.956-1.582,1.193-1.712.773-3.781-.54-5.401.989-.124.118-.481-.044-.675.043-1.335.517-2.635,1.117-3.894,1.798-2.106,1.259-1.674,3.894-2.879,5.655-1.08,1.62-2.295,3.133-3.445,4.693l-.6-.297c-.11-.474-.157-.961-.14-1.447.34-2.16.713-4.321,1.139-6.481.448-2.242,1.161-4.445,1.415-6.703.351-3.073.378-6.178.54-9.273.013-1.603.111-3.204.292-4.796.481-3.035.923-6.033-.043-9.057-.082-.393,0-.803.227-1.134.734-1.081.54-1.972-.06-3.046-.313-.541-.345-1.939-.119-2.037c1.81-.767.935-2.128.816-3.24-.324-3.019-1.205-6.028.227-9.02.178-.378-.103-.993-.222-1.485-.27-.812-.492-1.64-.664-2.479-.319-2.7-.605-5.363-.783-8.058-.119-1.685,0-3.386,0-5.098-1.944.459-3.948,1.696-5.844-.33-.232-.243-1.08.087-1.62.157-1.345.173-2.701.351-4.029.54-.335.043-.8,0-.978.189-1.199,1.318-2.749.859-4.212.988-2.496.216-4.985.54-7.475.87-.945.125-1.88.318-2.798.578-1.253.351-2.463.848-3.721,1.183-.626.207-1.296.238-1.939.091-2.468-.815-4.861-2.263-7.469-.421-.404-.342-.865-.611-1.361-.794-.389-.07-1.172.168-1.232.405-.443,1.772-1.707,2.161-3.24,2.161-.908.032-3.106,2.668-3.192,3.57-.064.761-.263,1.506-.589,2.198-.405.821-1.118,1.49-1.512,2.311-1.621,3.36-3.316,6.697-4.742,10.138-1.226,2.965-2.015,6.103-3.208,9.079-.611,1.544-.567,3.24-1.842,4.693-1.005,1.15-1.08,3.132-1.485,4.763-.249,1.005,0,2.582-.573,2.96-1.355.881-1.269,2.377-2.052,3.365-3.192,4.029-1.475,9.651-4.596,13.659-.06.07,0,.221,0,.335-.144,1.194-.351,2.381-.621,3.553-.351,1.27-1.151,2.452-1.307,3.727-.432,3.543-1.858,6.729-3.1545,9.986-.7129,1.793-1.1342,3.705-1.8147,5.514-.216.541-.8533.967-1.5392,1.696-.0163.662-.0996,1.321-.2485,1.966-.7183,2.409-1.55,4.78-2.3007,7.178-.7832,2.517-2.0632,5.039-2.1334,7.588-.0756,2.955-2.2467,4.694-2.9435,7.173-.1728.61-.2106,1.253-.3564,1.868-.3215,1.685-.7491,3.349-1.28,4.98-.4645,1.231-1.4151,2.274-1.9983,3.473-.6914,1.415-1.5393,2.733-1.7283,4.423-.1404,1.28-1.0154,2.474-1.6635,3.937l-1.226.395c1.1234,1.004,1.1396,2.635.4375,4.32-.983,2.387-1.9335,4.796-2.7005,7.259-.4158,1.361-.6805,2.981,1.5393,3.3.1188,0,.1782.454.3348.864-.3252.029-.6523.029-.9775,0-1.5447-.329-2.4466.297-2.7869,1.804-.5022,2.063-1.5824,3.953-.6319,6.114.1567.367-.0594.885-.054,1.334c0,1.555-1.7445,1.874-2.1603,3.019-1.5771,4.483-3.8401,8.738-4.3963,13.567-.1729,1.523-.8588,2.987-1.0154,4.51-.135,1.29,0,2.543-1.0802,2.7-.216,1.145-.405,1.939-.5131,2.744-.1915,1.224-.3213,2.457-.3888,3.694-.027.734.2862,1.474.2808,2.214c0,2.998,0,5.941,2.0307,8.48.1891.237.1081.68.2593.972.3121.735.7346,1.418,1.253,2.025c1.0538.923,2.1534,1.791,3.2945,2.603.3732.357.7995.654,1.2638.881c3.0947,1.08,6.211,1.307,9.3003,0c1.8435-.774,3.6636-1.597,5.4603-2.469c2.074-1.004,4.0291-2.333,6.1894-3.067c2.479-.843,5.1582-1.08,7.6962-1.783c2.247-.621,2.333-.626,2.576,2.085-.004.46-.07.918-.194,1.361-.389,2.204-.837,4.397-1.167,6.605-.399,2.701-.632,5.401-1.08,8.102-.589,3.683-1.318,7.345-1.939,11.018-.232,1.361-.329,2.743-.54,4.11-.211,1.469-.508,2.927-.675,4.401-.1404,1.264-.0378,2.555-.2269,3.781-.8965,5.795-1.8146,11.59-2.8084,17.369-.3997,2.312-1.0802,4.569-1.5231,6.876-.4536,2.462-.7453,4.958-1.0801,7.442-.0432.275.108.572.081.853-.1836,1.874-.3565,3.748-.6049,5.617-.1296.999-.4483,1.971-.5941,2.965-.2701,1.853-.4591,3.711-.7075,5.563-.0972.745-.2809,1.48-.3781,2.225-.3294,2.469-.378,5.012-1.0532,7.378-.378,1.318-1.1611,2.495-1.199,4.002c0,.999-.6967,1.96-.8965,2.976-.2212,1.151-.3243,2.322-.3078,3.494c0,.659.54,1.313.54,1.966c0,1.134.5779,1.588,1.4907,2.058c3.4349,1.766,6.8483.794,10.0509-.378c2.852-1.048,5.498-2.555,8.685-2.134.404.063.818-.003,1.183-.189c2.038-1.294,4.441-1.893,6.848-1.706.393-.003.762-.189.999-.503.626-1.166,1.582-1.08,2.7-1.015.827.065,1.95.124,2.452-.34c1.194-1.113,2.555-1.448,4.051-1.685c1.745-.276,3.44-.665,4.92-1.772.54-.405,1.421-.313,2.107-.54.977-.351,2.117-.589,2.84-1.258c1.925-1.741,3.291-4.013,3.927-6.53c1.08-3.959,1.323-7.966,1.933-11.941.649-4.224.881-8.512,1.378-12.762.145-1.232.675-2.42.826-3.651.34-2.771.454-5.58.843-8.345.54-3.986,1.431-7.934,1.906-11.93.675-5.59,1.853-11.099,2.209-16.743.356-5.552,1.08-11.088,1.782-16.619.746-5.995,1.567-11.979,2.463-17.952.351-2.322,1.107-4.585,1.448-6.908.421-2.9.653-5.833.869-8.76.205-2.733.259-5.482.421-8.22.064-.804.186-1.602.368-2.387.264-1.297.567-2.582.88-3.867.513-2.107.821-4.321,1.647-6.292.773-1.831,2.161-3.408,3.197-5.131c1.037-1.723,2.701-3.09,2.317-5.304c2.161-.659,3.16-2.446,4.424-3.975c1.161-1.393,2.392-2.738,3.689-4.013.601-.559,1.306-.998,2.074-1.291.977-.399,2.09-.491,3.04-.939c1.653-.778,3.171-1.864,4.861-2.555c1.34-.467,2.727-.784,4.137-.945c3.507-.573,7.016-1.113,10.526-1.62c1.48-.206,3.03-.065,4.456-.422c1.755-.437,3.37-1.409,5.126-1.831c2.56-.615,5.201-.88,7.021-3.143.308-.389.95-.502,1.723-.886.16.81.268,1.629.324,2.452-.038,5.142-.06,10.262-.2,15.409-.076,2.814-.454,5.612-.54,8.42-.157,5.126-.146,10.262-.303,15.376-.097,3.106-.626,6.217-.491,9.306.124,2.701-1.134,5.309-.162,7.988.097.275-.124.67-.195,1.01-.297,1.561-.632,3.122-.875,4.693.006.457.07.91.189,1.351.098.939.594,2.16.184,2.776-1.491,2.209-.205,4.45-.373,6.648-.27,3.608,0,7.248-.145,10.867-.146,3.618-.821,7.345-.541,10.969.357,4.753,1.226,9.446-.189,14.161-.108.356.044,1.123.216,1.172c1.621.443,1.205,1.458.913,2.571-.216.837-.307,1.701-.27,2.565.141,3.052.216,6.119.583,9.144.346,2.841.983,5.649,1.572,8.452.438,2.079.967,4.143,1.512,6.2.393,1.626.88,3.227,1.459,4.796c1.377,3.451,2.808,6.886,4.358,10.262.82,1.666,1.751,3.276,2.787,4.818.216.345.74.502,1.134.729c1.062.505,2.08,1.096,3.046,1.766c1.453,1.177,1.874,1.193,2.782-.378c2.273.2,3.364-.783,3.694-3.144.081-.54.589-1.047.902-1.566.81,1.242,3.105,2.749,4.196,2.474c1.784-.37,3.521-.937,5.18-1.691c2.446-1.247,4.807-2.209,7.685-1.976c1.778.064,3.545-.306,5.147-1.081c1.469-.664,2.701-.804,4.078-.108c1.021.54,1.798.314,2.56-.626.535-.558,1.213-.958,1.96-1.156c1.621-.54,3.344-.853,4.996-1.345c1.205-.356,1.62-1.215,1.62-2.511-.008-1.324.211-2.639.649-3.889c1.906-5.055,1.528-10.31,1.62-15.533-.047-.341-.125-.677-.232-1.004-.54-2.738-1.108-5.471-1.621-8.215-.448-2.425-.869-4.861-2.489-6.756-.476.842-.73,1.955-1.405,2.365-1.939,1.178-2.938.713-3.737-1.62-.384-1.129-.778-1.712-2.16-1.664-.584,0-1.561-.988-1.745-1.685-1.183-4.585-1.442-9.289-1.62-14.004-.119-3.111-.34-6.222-.421-9.338-.092-3.387-.114-6.773-.087-10.154c0-1.296.27-2.587.378-3.883.097-1.172.135-2.344.222-3.516.027-.389.189-.778.183-1.167-.065-4.234-.227-8.468-.216-12.703c0-3.877.222-7.75.313-11.628c0-.389-.221-.777-.243-1.172-.048-1.08-.34-2.214,0-3.143c1.081-3.127.654-6.006-.864-8.836-.238-.548-.434-1.113-.588-1.69c1.993.799,1.966.599,2.479-1.037.772-2.479-.292-4.861.205-7.421.815-4.202.578-8.604.853-12.919.178-2.819.486-5.633.74-8.441.303-3.322.637-6.638.913-9.954.129-1.621.14-3.214.232-4.818.108-1.766-.032-3.608.443-5.266.572-1.966,1.08-3.78.265-5.779-.049-.118.129-.313.162-.48.396-2.28.786-4.56,1.172-6.843.124-.74.156-1.496.318-2.225.395-1.783,1.043-3.533,1.226-5.331.378-3.705.54-7.432.756-11.153.254-4.283,1.864-8.355,1.761-12.724-.059-2.506.54-5.029.837-7.562.254-1.998.54-3.996.832-5.995.396-2.88.788-5.773,1.177-8.679.26-1.944.54-3.888.762-5.838.389-3.284.772-6.573,1.118-9.868.205-1.933.335-3.872.491-5.811.081-1.015.13-2.036.233-3.051.221-2.274.351-4.569.761-6.811.2-.95.097-4.034-.664-4.666ZM75.2958,517.658l-.4861-.119c-.0379-.301-.0379-.606,0-.907.4753-1.766,1.0802-3.506,1.442-5.299.2377-1.258.9236-1.674,2.0146-1.901-1.0046,2.814-1.9875,5.525-2.9705,8.231v-.005Z" clip-rule="evenodd" stroke-linecap="round" stroke-linejoin="round" stroke-miterlimit="10"/><path d="M945.301,492.598c-.702,1.733,1.188,3.537-.632,5.055-.595-.751-.863-1.71-.744-2.66.119-.951.615-1.814,1.376-2.395Z" clip-rule="evenodd" stroke-linecap="round" stroke-linejoin="round" stroke-miterlimit="10"/><path d="M944.075,489.292l-2.419,3.408c-.611-3.143-.227-3.878,2.419-3.408Z" clip-rule="evenodd" stroke-linecap="round" stroke-linejoin="round" stroke-miterlimit="10"/><path d="M400.628,420.923l-.891,4.742.891-4.742Z" clip-rule="evenodd" stroke-linecap="round" stroke-linejoin="round" stroke-miterlimit="10"/><path d="M744.129,626.167c-.431-.64-.781-1.332-1.042-2.058-.729-3.192-1.518-6.389-1.987-9.624-.816-5.585-1.399-11.207-2.112-16.808-.159-1.116-.399-2.219-.719-3.3-.426-1.528-.988-3.014-1.398-4.542-.238-.875-.033-1.966-.476-2.668-.696-1.131-.892-2.5-.54-3.781.081-.415-.189-.891-.227-1.344-.068-.328-.028-.669.114-.973.971-1.316,1-3.104.07-4.45-.759-1.095-1.171-2.394-1.183-3.727-.015-2.728-.195-5.453-.54-8.16-.248-1.831,1.021-3.9-.832-5.52-.205-.184-.097-.923.076-1.312c1.08-2.377.605-4.645-.265-6.951-.411-1.128-.681-2.301-.804-3.495-.06-.54.54-1.139.54-1.679-.184-2.161-.486-4.321-.81-6.449-.047-.482-.286-.924-.665-1.226-1.215-.54-.853-1.356-.642-2.312.18-.891.18-1.809,0-2.7-.373-1.847-1.01-3.64-1.345-5.487-.378-2.09-.157-4.364-.881-6.303-1.463-3.921-.437-8.101-1.56-11.99-.27-.951-.422-1.944-.697-3.241.172-.675.258-1.371.254-2.068-.281-3.181-.578-6.368-1.08-9.522-.324-2.16-1.081-4.207-1.415-6.346-.276-1.69-.368-3.386-1.199-4.952-.168-.314.113-.87.199-1.313.133-.347.216-.71.249-1.08-.227-2.042-.47-4.083-.789-6.114-.499-2.84-.81-5.711-.929-8.593-.086-3.364-.939-6.702-1.366-10.067s-.745-6.724-1.08-10.089c-.54-5.433-1.124-10.866-1.572-16.305-.124-1.528.141-3.089.254-5.028c0,0-.227-.281-.502-.605l-.125-.157c.044.054-.253-1.863-.253-1.863l-.168-2.382c-.356,0,.211-1.485,0-1.674-.21-.189.238-1.464.141-1.561-.048-.375-.048-.754,0-1.129c0,0,.21-.734.113-.826s.081-.329.081-.329l.13-.346.048-.141.043-.189c-.353-.713-.658-1.449-.912-2.203-.233-2.441.788-5.369-2.577-6.589-.102-.038-.081-.384-.194-.454-.491-.319-1.005-.81-1.534-.837-1.485-.081-2.992.124-4.483.054-2.03-.092-4.056-.324-6.081-.54-1.372-.124-2.749-.259-4.115-.432-.688-.171-1.384-.306-2.085-.405-1.281-.039-2.562.017-3.835.167-1.706.211-2.986-2.576-4.904-.653-.065.065-.41,0-.475-.119-1.275-1.977-3.241-1.383-5.061-1.41-.405.011-.808-.057-1.188-.2-2.484-1.08-4.861-1.474-7.021.848-.491-.54-.853-1.139-1.383-1.382-.302-.141-1.269.313-1.274.54c0,1.237-.616,1.566-1.75,1.62-.335,0-.87.702-.929,1.129-.34,2.598-.497,5.228-.859,7.826-.788,5.617-1.652,11.223-2.506,16.834-.27,1.766-.54,3.543-.94,5.277-.54,2.16-1.317,4.213-1.809,6.351-.605,2.62-.95,5.299-1.555,7.918-.206.907-.881,1.707-1.28,2.582-.217.493-.362,1.015-.432,1.55-.135.929-.189,1.868-.276,2.803l-1.62,8.225c.254,1.01-3.273,10.575-4.024,13.848-.75,3.273-.507,8.053-1.258,7.561-.751-.491-4.531,15.123-4.785,16.36-.254,1.236-2.015,7.296-2.517,8.825-.502,1.528.502,2.5.756,3.24s-3.781,1.259-2.771,3.019c1.01,1.761,0,7.297-1.506,8.577-1.507,1.28-2.771,10.045-3.781,12.314-1.01,2.268-4.029,16.359-4.785,18.363s-3.273,8.809-3.273,8.809l-1.475,5.66c-2.603,7.129-5.303,14.226-7.782,21.403-1.41,4.083-2.485,8.28-3.635,12.422-.999,3.603-1.836,7.259-2.863,10.856-.788,2.749-2.16,5.401-2.554,8.188-.475,3.24-2.366,5.439-4.234,7.777-.47.583-1.118,1.194-1.221,1.869-.265,1.701-2.7,3.527.14,5.185.179.102-.075.81.098,1.08.458.701.978,1.359,1.555,1.966.2.216.724.189.859.416.724,1.231,1.852,1.209,3.04,1.128.325,0,.827-.037.967.152.999,1.372,2.258.729,3.473.54c1.528-.238,3.057-.465,4.591-.67.233-.007.463.051.664.168c2.96,1.506,6.103.675,9.182.718.372,0,.745-.276,1.134-.367.695-.246,1.423-.384,2.16-.411c1.588.097,3.165.378,4.753.567.227-.003.452-.037.67-.102c2.111-.373,4.218-.762,6.335-1.113c2.284-.378,4.645-.491,6.843-1.145c1.35-.44,2.518-1.313,3.321-2.484c1.582-2.383,2.924-4.915,4.008-7.562c1.458-3.699,2.581-7.561,3.78-11.341.427-1.367.476-2.852.864-4.235.751-2.668,1.691-5.287,2.42-7.966.432-1.62.205-3.489.978-4.861c1.668-2.922,1.274-6.216,2.203-9.252.799-2.624,1.237-5.368,2.085-7.977.815-2.5,2.031-4.86,2.922-7.339.923-2.566,1.447-3.133,3.348-3.241c3.041-.189,6.071-.486,9.112-.626.541.064,1.014.397,1.258.885.54,3.722.967,7.459,1.318,11.202.156,1.706-.114,3.456.081,5.158.216,1.928.832,3.813,1.08,5.735.54,3.857.853,7.734,1.404,11.585.611,4.267,1.35,8.517,2.096,12.768.669,3.834,1.355,7.669,2.16,11.471.222,1.026.745,2.512,1.507,2.803c2.16.837,2.927,3.749,5.844,3.549.923-.065,1.76.14,2.398-.6.912-1.08,1.825-1.037,3.084-.54.848.319,1.917.043,2.889,0c.54-.027,1.221-.335,1.669-.135c1.404.616,2.619.373,3.991-.173c1.772-.707,3.673-1.08,5.514-1.62c1.74,1.847,3.678.167,5.515.308.632.048,1.274,0,1.89.119c1.723.291,3.5,1.037,4.715-.924l2.16,2.015c.265-1.01.405-1.54.481-1.82.967-.044,1.809.081,2.533-.162.723-.327,1.391-.762,1.982-1.291.238-.21.453-.443.643-.697l1.518-1.62.108-.281.064-.394-.048-.54c0,0-.087-.589,0-.654.086-.065-.049-.702.065-.583.113.119.075-.708.075-.708l.07-.572.065-.232c.016-.081.07-.092.043-.092ZM685.26,552.245c-.94.67-12.649,1.474-13.659.815-.583-.383-.383-8.582.978-15.959.226-1.226,1.901-11.223,2.16-16.008.329-5.941,5.536-25.644,5.536-25.644l2.495,17.321c1.863,2.889.767,14.998.951,22.84.032,0,2.5,15.965,1.56,16.635h-.021Z" clip-rule="evenodd" stroke-linecap="round" stroke-linejoin="round" stroke-miterlimit="10"/></g></g>
</svg>
