<svg id="eFb9BEp5fMx1" class="themeicon d" xmlns="http://www.w3.org/2000/svg" xmlns:xlink="http://www.w3.org/1999/xlink" viewBox="0 0 800 800" shape-rendering="geometricPrecision" text-rendering="geometricPrecision"><g id="eFb9BEp5fMx2" clip-rule="evenodd"><g clip-rule="evenodd"><path d="M376.038,128.601h27.896v0v29.844v0h-27.896v0-29.844v0Z" clip-rule="evenodd" stroke="#000" stroke-linecap="round" stroke-linejoin="round" stroke-miterlimit="10"/><path d="M403.934,128.601h27.896v0v29.844v0h-27.896v0-29.844v0Z" clip-rule="evenodd" stroke="#000" stroke-linecap="round" stroke-linejoin="round" stroke-miterlimit="10"/><path d="M348.143,158.445h27.895v0v29.844v0h-27.895v0-29.844v0Z" clip-rule="evenodd" stroke="#000" stroke-linecap="round" stroke-linejoin="round" stroke-miterlimit="10"/><path d="M376.038,158.445h27.896v0v29.844v0h-27.896v0-29.844v0Z" clip-rule="evenodd" stroke="#000" stroke-linecap="round" stroke-linejoin="round" stroke-miterlimit="10"/><path d="M403.934,158.445h27.896v0v29.844v0h-27.896v0-29.844v0Z" clip-rule="evenodd" stroke="#000" stroke-linecap="round" stroke-linejoin="round" stroke-miterlimit="10"/><path d="M431.83,158.445h27.895v0v29.844v0h-27.895v0-29.844v0Z" clip-rule="evenodd" stroke="#000" stroke-linecap="round" stroke-linejoin="round" stroke-miterlimit="10"/><path d="M459.725,158.445h27.896v0v29.844v0h-27.896v0-29.844v0Z" clip-rule="evenodd" stroke="#000" stroke-linecap="round" stroke-linejoin="round" stroke-miterlimit="10"/><path d="M487.621,158.445h27.895v0v29.844v0h-27.895v0-29.844v0Z" clip-rule="evenodd" stroke="#000" stroke-linecap="round" stroke-linejoin="round" stroke-miterlimit="10"/><path d="M348.143,188.289h27.895v0v29.845v0h-27.895v0-29.845v0Z" clip-rule="evenodd" stroke="#000" stroke-linecap="round" stroke-linejoin="round" stroke-miterlimit="10"/><path d="M376.038,188.289h27.896v0v29.845v0h-27.896v0-29.845v0Z" clip-rule="evenodd" stroke="#000" stroke-linecap="round" stroke-linejoin="round" stroke-miterlimit="10"/><path d="M403.934,188.289h27.896v0v29.845v0h-27.896v0-29.845v0Z" clip-rule="evenodd" stroke="#000" stroke-linecap="round" stroke-linejoin="round" stroke-miterlimit="10"/><path d="M431.83,188.289h27.895v0v29.845v0h-27.895v0-29.845v0Z" clip-rule="evenodd" stroke="#000" stroke-linecap="round" stroke-linejoin="round" stroke-miterlimit="10"/><path d="M376.038,218.134h27.896v0v29.844v0h-27.896v0-29.844v0Z" clip-rule="evenodd" stroke="#000" stroke-linecap="round" stroke-linejoin="round" stroke-miterlimit="10"/><path d="M403.934,218.134h27.896v0v29.844v0h-27.896v0-29.844v0Z" clip-rule="evenodd" stroke="#000" stroke-linecap="round" stroke-linejoin="round" stroke-miterlimit="10"/><path d="M348.143,247.978h27.895v0v29.844v0h-27.895v0-29.844v0Z" clip-rule="evenodd" stroke="#000" stroke-linecap="round" stroke-linejoin="round" stroke-miterlimit="10"/><path d="M376.038,247.978h27.896v0v29.844v0h-27.896v0-29.844v0Z" clip-rule="evenodd" stroke="#000" stroke-linecap="round" stroke-linejoin="round" stroke-miterlimit="10"/><path d="M403.934,247.978h27.896v0v29.844v0h-27.896v0-29.844v0Z" clip-rule="evenodd" stroke="#000" stroke-linecap="round" stroke-linejoin="round" stroke-miterlimit="10"/><path d="M431.83,247.978h27.895v0v29.844v0h-27.895v0-29.844v0Z" clip-rule="evenodd" stroke="#000" stroke-linecap="round" stroke-linejoin="round" stroke-miterlimit="10"/><path d="M320.247,277.822h27.896v0v29.844v0h-27.896v0-29.844v0Z" clip-rule="evenodd" stroke="#000" stroke-linecap="round" stroke-linejoin="round" stroke-miterlimit="10"/><path d="M348.143,277.822h27.895v0v29.844v0h-27.895v0-29.844v0Z" clip-rule="evenodd" stroke="#000" stroke-linecap="round" stroke-linejoin="round" stroke-miterlimit="10"/><path d="M376.038,277.822h27.896v0v29.844v0h-27.896v0-29.844v0Z" clip-rule="evenodd" stroke="#000" stroke-linecap="round" stroke-linejoin="round" stroke-miterlimit="10"/><path d="M403.934,277.822h27.896v0v29.844v0h-27.896v0-29.844v0Z" clip-rule="evenodd" stroke="#000" stroke-linecap="round" stroke-linejoin="round" stroke-miterlimit="10"/><path d="M431.83,277.822h27.895v0v29.844v0h-27.895v0-29.844v0Z" clip-rule="evenodd" stroke="#000" stroke-linecap="round" stroke-linejoin="round" stroke-miterlimit="10"/><path d="M292.352,307.666h27.895v0v29.845v0h-27.895v0-29.845v0Z" clip-rule="evenodd" stroke="#000" stroke-linecap="round" stroke-linejoin="round" stroke-miterlimit="10"/><path d="M320.247,307.666h27.896v0v29.845v0h-27.896v0-29.845v0Z" clip-rule="evenodd" stroke="#000" stroke-linecap="round" stroke-linejoin="round" stroke-miterlimit="10"/><path d="M348.143,307.666h27.895v0v29.845v0h-27.895v0-29.845v0Z" clip-rule="evenodd" stroke="#000" stroke-linecap="round" stroke-linejoin="round" stroke-miterlimit="10"/><path d="M376.038,307.666h27.896v0v29.845v0h-27.896v0-29.845v0Z" clip-rule="evenodd" stroke="#000" stroke-linecap="round" stroke-linejoin="round" stroke-miterlimit="10"/><path d="M403.934,307.666h27.896v0v29.845v0h-27.896v0-29.845v0Z" clip-rule="evenodd" stroke="#000" stroke-linecap="round" stroke-linejoin="round" stroke-miterlimit="10"/><path d="M431.83,307.666h27.895v0v29.845v0h-27.895v0-29.845v0Z" clip-rule="evenodd" stroke="#000" stroke-linecap="round" stroke-linejoin="round" stroke-miterlimit="10"/><path d="M487.621,307.666h27.895v0v29.845v0h-27.895v0-29.845v0Z" clip-rule="evenodd" stroke="#000" stroke-linecap="round" stroke-linejoin="round" stroke-miterlimit="10"/><path d="M515.516,307.666h27.896v0v29.845v0h-27.896v0-29.845v0Z" clip-rule="evenodd" stroke="#000" stroke-linecap="round" stroke-linejoin="round" stroke-miterlimit="10"/><path d="M543.412,307.666h27.896v0v29.845v0h-27.896v0-29.845v0Z" clip-rule="evenodd" stroke="#000" stroke-linecap="round" stroke-linejoin="round" stroke-miterlimit="10"/><path d="M264.456,337.511h27.896v0v29.844v0h-27.896v0-29.844v0Z" clip-rule="evenodd" stroke="#000" stroke-linecap="round" stroke-linejoin="round" stroke-miterlimit="10"/><path d="M292.352,337.511h27.895v0v29.844v0h-27.895v0-29.844v0Z" clip-rule="evenodd" stroke="#000" stroke-linecap="round" stroke-linejoin="round" stroke-miterlimit="10"/><path d="M348.143,337.511h27.895v0v29.844v0h-27.895v0-29.844v0Z" clip-rule="evenodd" stroke="#000" stroke-linecap="round" stroke-linejoin="round" stroke-miterlimit="10"/><path d="M376.038,337.511h27.896v0v29.844v0h-27.896v0-29.844v0Z" clip-rule="evenodd" stroke="#000" stroke-linecap="round" stroke-linejoin="round" stroke-miterlimit="10"/><path d="M403.934,337.511h27.896v0v29.844v0h-27.896v0-29.844v0Z" clip-rule="evenodd" stroke="#000" stroke-linecap="round" stroke-linejoin="round" stroke-miterlimit="10"/><path d="M431.83,337.511h27.895v0v29.844v0h-27.895v0-29.844v0Z" clip-rule="evenodd" stroke="#000" stroke-linecap="round" stroke-linejoin="round" stroke-miterlimit="10"/><path d="M459.725,337.511h27.896v0v29.844v0h-27.896v0-29.844v0Z" clip-rule="evenodd" stroke="#000" stroke-linecap="round" stroke-linejoin="round" stroke-miterlimit="10"/><path d="M487.621,337.511h27.895v0v29.844v0h-27.895v0-29.844v0Z" clip-rule="evenodd" stroke="#000" stroke-linecap="round" stroke-linejoin="round" stroke-miterlimit="10"/><path d="M236.561,367.355h27.895v0v29.844v0h-27.895v0-29.844v0Z" clip-rule="evenodd" stroke="#000" stroke-linecap="round" stroke-linejoin="round" stroke-miterlimit="10"/><path d="M264.456,367.355h27.896v0v29.844v0h-27.896v0-29.844v0Z" clip-rule="evenodd" stroke="#000" stroke-linecap="round" stroke-linejoin="round" stroke-miterlimit="10"/><path d="M348.143,367.355h27.895v0v29.844v0h-27.895v0-29.844v0Z" clip-rule="evenodd" stroke="#000" stroke-linecap="round" stroke-linejoin="round" stroke-miterlimit="10"/><path d="M376.038,367.355h27.896v0v29.844v0h-27.896v0-29.844v0Z" clip-rule="evenodd" stroke="#000" stroke-linecap="round" stroke-linejoin="round" stroke-miterlimit="10"/><path d="M403.934,367.355h27.896v0v29.844v0h-27.896v0-29.844v0Z" clip-rule="evenodd" stroke="#000" stroke-linecap="round" stroke-linejoin="round" stroke-miterlimit="10"/><path d="M431.83,367.355h27.895v0v29.844v0h-27.895v0-29.844v0Z" clip-rule="evenodd" stroke="#000" stroke-linecap="round" stroke-linejoin="round" stroke-miterlimit="10"/><path d="M264.456,397.199h27.896v0v29.844v0h-27.896v0-29.844v0Z" clip-rule="evenodd" stroke="#000" stroke-linecap="round" stroke-linejoin="round" stroke-miterlimit="10"/><path d="M292.352,397.199h27.895v0v29.844v0h-27.895v0-29.844v0Z" clip-rule="evenodd" stroke="#000" stroke-linecap="round" stroke-linejoin="round" stroke-miterlimit="10"/><path d="M320.247,397.199h27.896v0v29.844v0h-27.896v0-29.844v0Z" clip-rule="evenodd" stroke="#000" stroke-linecap="round" stroke-linejoin="round" stroke-miterlimit="10"/><path d="M348.143,397.199h27.895v0v29.844v0h-27.895v0-29.844v0Z" clip-rule="evenodd" stroke="#000" stroke-linecap="round" stroke-linejoin="round" stroke-miterlimit="10"/><path d="M376.038,397.199h27.896v0v29.844v0h-27.896v0-29.844v0Z" clip-rule="evenodd" stroke="#000" stroke-linecap="round" stroke-linejoin="round" stroke-miterlimit="10"/><path d="M403.934,397.199h27.896v0v29.844v0h-27.896v0-29.844v0Z" clip-rule="evenodd" stroke="#000" stroke-linecap="round" stroke-linejoin="round" stroke-miterlimit="10"/><path d="M431.83,397.199h27.895v0v29.844v0h-27.895v0-29.844v0Z" clip-rule="evenodd" stroke="#000" stroke-linecap="round" stroke-linejoin="round" stroke-miterlimit="10"/><path d="M292.352,427.043h27.895v0v29.845v0h-27.895v0-29.845v0Z" clip-rule="evenodd" stroke="#000" stroke-linecap="round" stroke-linejoin="round" stroke-miterlimit="10"/><path d="M320.247,427.043h27.896v0v29.845v0h-27.896v0-29.845v0Z" clip-rule="evenodd" stroke="#000" stroke-linecap="round" stroke-linejoin="round" stroke-miterlimit="10"/><path d="M348.143,427.043h27.895v0v29.845v0h-27.895v0-29.845v0Z" clip-rule="evenodd" stroke="#000" stroke-linecap="round" stroke-linejoin="round" stroke-miterlimit="10"/><path d="M376.038,427.043h27.896v0v29.845v0h-27.896v0-29.845v0Z" clip-rule="evenodd" stroke="#000" stroke-linecap="round" stroke-linejoin="round" stroke-miterlimit="10"/><path d="M403.934,427.043h27.896v0v29.845v0h-27.896v0-29.845v0Z" clip-rule="evenodd" stroke="#000" stroke-linecap="round" stroke-linejoin="round" stroke-miterlimit="10"/><path d="M431.83,427.043h27.895v0v29.845v0h-27.895v0-29.845v0Z" clip-rule="evenodd" stroke="#000" stroke-linecap="round" stroke-linejoin="round" stroke-miterlimit="10"/><path d="M348.143,456.888h27.895v0v29.844v0h-27.895v0-29.844v0Z" clip-rule="evenodd" stroke="#000" stroke-linecap="round" stroke-linejoin="round" stroke-miterlimit="10"/><path d="M376.038,456.888h27.896v0v29.844v0h-27.896v0-29.844v0Z" clip-rule="evenodd" stroke="#000" stroke-linecap="round" stroke-linejoin="round" stroke-miterlimit="10"/><path d="M403.934,456.888h27.896v0v29.844v0h-27.896v0-29.844v0Z" clip-rule="evenodd" stroke="#000" stroke-linecap="round" stroke-linejoin="round" stroke-miterlimit="10"/><path d="M180.769,486.732h27.896v0v29.844v0h-27.896v0-29.844v0Z" clip-rule="evenodd" stroke="#000" stroke-linecap="round" stroke-linejoin="round" stroke-miterlimit="10"/><path d="M208.665,486.732h27.896v0v29.844v0h-27.896v0-29.844v0Z" clip-rule="evenodd" stroke="#000" stroke-linecap="round" stroke-linejoin="round" stroke-miterlimit="10"/><path d="M236.561,486.732h27.895v0v29.844v0h-27.895v0-29.844v0Z" clip-rule="evenodd" stroke="#000" stroke-linecap="round" stroke-linejoin="round" stroke-miterlimit="10"/><path d="M320.247,486.732h27.896v0v29.844v0h-27.896v0-29.844v0Z" clip-rule="evenodd" stroke="#000" stroke-linecap="round" stroke-linejoin="round" stroke-miterlimit="10"/><path d="M348.143,486.732h27.895v0v29.844v0h-27.895v0-29.844v0Z" clip-rule="evenodd" stroke="#000" stroke-linecap="round" stroke-linejoin="round" stroke-miterlimit="10"/><path d="M376.038,486.732h27.896v0v29.844v0h-27.896v0-29.844v0Z" clip-rule="evenodd" stroke="#000" stroke-linecap="round" stroke-linejoin="round" stroke-miterlimit="10"/><path d="M403.934,486.732h27.896v0v29.844v0h-27.896v0-29.844v0Z" clip-rule="evenodd" stroke="#000" stroke-linecap="round" stroke-linejoin="round" stroke-miterlimit="10"/><path d="M152.874,516.576h27.895v0v29.844v0h-27.895v0-29.844v0Z" clip-rule="evenodd" stroke="#000" stroke-linecap="round" stroke-linejoin="round" stroke-miterlimit="10"/><path d="M180.769,516.576h27.896v0v29.844v0h-27.896v0-29.844v0Z" clip-rule="evenodd" stroke="#000" stroke-linecap="round" stroke-linejoin="round" stroke-miterlimit="10"/><path d="M208.665,516.576h27.896v0v29.844v0h-27.896v0-29.844v0Z" clip-rule="evenodd" stroke="#000" stroke-linecap="round" stroke-linejoin="round" stroke-miterlimit="10"/><path d="M236.561,516.576h27.895v0v29.844v0h-27.895v0-29.844v0Z" clip-rule="evenodd" stroke="#000" stroke-linecap="round" stroke-linejoin="round" stroke-miterlimit="10"/><path d="M264.456,516.576h27.896v0v29.844v0h-27.896v0-29.844v0Z" clip-rule="evenodd" stroke="#000" stroke-linecap="round" stroke-linejoin="round" stroke-miterlimit="10"/><path d="M292.352,516.576h27.895v0v29.844v0h-27.895v0-29.844v0Z" clip-rule="evenodd" stroke="#000" stroke-linecap="round" stroke-linejoin="round" stroke-miterlimit="10"/><path d="M320.247,516.576h27.896v0v29.844v0h-27.896v0-29.844v0Z" clip-rule="evenodd" stroke="#000" stroke-linecap="round" stroke-linejoin="round" stroke-miterlimit="10"/><path d="M348.143,516.576h27.895v0v29.844v0h-27.895v0-29.844v0Z" clip-rule="evenodd" stroke="#000" stroke-linecap="round" stroke-linejoin="round" stroke-miterlimit="10"/><path d="M376.038,516.576h27.896v0v29.844v0h-27.896v0-29.844v0Z" clip-rule="evenodd" stroke="#000" stroke-linecap="round" stroke-linejoin="round" stroke-miterlimit="10"/><path d="M403.934,516.576h27.896v0v29.844v0h-27.896v0-29.844v0Z" clip-rule="evenodd" stroke="#000" stroke-linecap="round" stroke-linejoin="round" stroke-miterlimit="10"/><path d="M431.83,516.576h27.895v0v29.844v0h-27.895v0-29.844v0Z" clip-rule="evenodd" stroke="#000" stroke-linecap="round" stroke-linejoin="round" stroke-miterlimit="10"/><path d="M152.874,546.42h27.895v0v29.845v0h-27.895v0-29.845v0Z" clip-rule="evenodd" stroke="#000" stroke-linecap="round" stroke-linejoin="round" stroke-miterlimit="10"/><path d="M264.456,546.42h27.896v0v29.845v0h-27.896v0-29.845v0Z" clip-rule="evenodd" stroke="#000" stroke-linecap="round" stroke-linejoin="round" stroke-miterlimit="10"/><path d="M292.352,546.42h27.895v0v29.845v0h-27.895v0-29.845v0Z" clip-rule="evenodd" stroke="#000" stroke-linecap="round" stroke-linejoin="round" stroke-miterlimit="10"/><path d="M320.247,546.42h27.896v0v29.845v0h-27.896v0-29.845v0Z" clip-rule="evenodd" stroke="#000" stroke-linecap="round" stroke-linejoin="round" stroke-miterlimit="10"/><path d="M348.143,546.42h27.895v0v29.845v0h-27.895v0-29.845v0Z" clip-rule="evenodd" stroke="#000" stroke-linecap="round" stroke-linejoin="round" stroke-miterlimit="10"/><path d="M403.934,546.42h27.896v0v29.845v0h-27.896v0-29.845v0Z" clip-rule="evenodd" stroke="#000" stroke-linecap="round" stroke-linejoin="round" stroke-miterlimit="10"/><path d="M431.83,546.42h27.895v0v29.845v0h-27.895v0-29.845v0Z" clip-rule="evenodd" stroke="#000" stroke-linecap="round" stroke-linejoin="round" stroke-miterlimit="10"/><path d="M292.352,576.265h27.895v0v29.844v0h-27.895v0-29.844v0Z" clip-rule="evenodd" stroke="#000" stroke-linecap="round" stroke-linejoin="round" stroke-miterlimit="10"/><path d="M320.247,576.265h27.896v0v29.844v0h-27.896v0-29.844v0Z" clip-rule="evenodd" stroke="#000" stroke-linecap="round" stroke-linejoin="round" stroke-miterlimit="10"/><path d="M431.83,576.265h27.895v0v29.844v0h-27.895v0-29.844v0Z" clip-rule="evenodd" stroke="#000" stroke-linecap="round" stroke-linejoin="round" stroke-miterlimit="10"/><path d="M459.725,576.265h27.896v0v29.844v0h-27.896v0-29.844v0Z" clip-rule="evenodd" stroke="#000" stroke-linecap="round" stroke-linejoin="round" stroke-miterlimit="10"/><path d="M431.83,606.109h27.895v0v29.844v0h-27.895v0-29.844v0Z" clip-rule="evenodd" stroke="#000" stroke-linecap="round" stroke-linejoin="round" stroke-miterlimit="10"/><path d="M459.725,606.109h27.896v0v29.844v0h-27.896v0-29.844v0Z" clip-rule="evenodd" stroke="#000" stroke-linecap="round" stroke-linejoin="round" stroke-miterlimit="10"/><path d="M431.83,635.953h27.895v0v29.845v0h-27.895v0-29.845v0Z" clip-rule="evenodd" stroke="#000" stroke-linecap="round" stroke-linejoin="round" stroke-miterlimit="10"/><path d="M459.725,635.953h27.896v0v29.845v0h-27.896v0-29.845v0Z" clip-rule="evenodd" stroke="#000" stroke-linecap="round" stroke-linejoin="round" stroke-miterlimit="10"/><path d="M487.621,635.953h27.895v0v29.845v0h-27.895v0-29.845v0Z" clip-rule="evenodd" stroke="#000" stroke-linecap="round" stroke-linejoin="round" stroke-miterlimit="10"/><path d="M459.725,665.798h27.896v0v29.844v0h-27.896v0-29.844v0Z" clip-rule="evenodd" stroke="#000" stroke-linecap="round" stroke-linejoin="round" stroke-miterlimit="10"/><path d="M487.621,665.798h27.895v0v29.844v0h-27.895v0-29.844v0Z" clip-rule="evenodd" stroke="#000" stroke-linecap="round" stroke-linejoin="round" stroke-miterlimit="10"/><path d="M515.516,665.798h27.896v0v29.844v0h-27.896v0-29.844v0Z" clip-rule="evenodd" stroke="#000" stroke-linecap="round" stroke-linejoin="round" stroke-miterlimit="10"/></g></g><g id="eFb9BEp5fMx103" opacity="0" clip-rule="evenodd"><g clip-rule="evenodd"><path d="M378.292,130.259h29.169v0v29.169v0h-29.169v0-29.169v0Z" clip-rule="evenodd" stroke="#000" stroke-linecap="round" stroke-linejoin="round" stroke-miterlimit="10"/><path d="M407.461,130.259h29.169v0v29.169v0h-29.169v0-29.169v0Z" clip-rule="evenodd" stroke="#000" stroke-linecap="round" stroke-linejoin="round" stroke-miterlimit="10"/><path d="M349.123,159.428h29.169v0v29.169v0h-29.169v0-29.169v0Z" clip-rule="evenodd" stroke="#000" stroke-linecap="round" stroke-linejoin="round" stroke-miterlimit="10"/><path d="M378.292,159.428h29.169v0v29.169v0h-29.169v0-29.169v0Z" clip-rule="evenodd" stroke="#000" stroke-linecap="round" stroke-linejoin="round" stroke-miterlimit="10"/><path d="M407.461,159.428h29.169v0v29.169v0h-29.169v0-29.169v0Z" clip-rule="evenodd" stroke="#000" stroke-linecap="round" stroke-linejoin="round" stroke-miterlimit="10"/><path d="M436.63,159.428h29.169v0v29.169v0h-29.169v0-29.169v0Z" clip-rule="evenodd" stroke="#000" stroke-linecap="round" stroke-linejoin="round" stroke-miterlimit="10"/><path d="M486.62,159.428h29.169v0v29.169v0h-29.169v0-29.169v0Z" clip-rule="evenodd" stroke="#000" stroke-linecap="round" stroke-linejoin="round" stroke-miterlimit="10"/><path d="M349.123,188.597h29.169v0v29.17v0h-29.169v0-29.17v0Z" clip-rule="evenodd" stroke="#000" stroke-linecap="round" stroke-linejoin="round" stroke-miterlimit="10"/><path d="M378.292,188.597h29.169v0v29.17v0h-29.169v0-29.17v0Z" clip-rule="evenodd" stroke="#000" stroke-linecap="round" stroke-linejoin="round" stroke-miterlimit="10"/><path d="M407.461,188.597h29.169v0v29.17v0h-29.169v0-29.17v0Z" clip-rule="evenodd" stroke="#000" stroke-linecap="round" stroke-linejoin="round" stroke-miterlimit="10"/><path d="M349.123,217.767h29.169v0v29.169v0h-29.169v0-29.169v0Z" clip-rule="evenodd" stroke="#000" stroke-linecap="round" stroke-linejoin="round" stroke-miterlimit="10"/><path d="M378.292,217.767h29.169v0v29.169v0h-29.169v0-29.169v0Z" clip-rule="evenodd" stroke="#000" stroke-linecap="round" stroke-linejoin="round" stroke-miterlimit="10"/><path d="M407.461,217.767h29.169v0v29.169v0h-29.169v0-29.169v0Z" clip-rule="evenodd" stroke="#000" stroke-linecap="round" stroke-linejoin="round" stroke-miterlimit="10"/><path d="M378.292,246.936h29.169v0v29.169v0h-29.169v0-29.169v0Z" clip-rule="evenodd" stroke="#000" stroke-linecap="round" stroke-linejoin="round" stroke-miterlimit="10"/><path d="M407.461,246.936h29.169v0v29.169v0h-29.169v0-29.169v0Z" clip-rule="evenodd" stroke="#000" stroke-linecap="round" stroke-linejoin="round" stroke-miterlimit="10"/><path d="M436.63,246.936h29.169v0v29.169v0h-29.169v0-29.169v0Z" clip-rule="evenodd" stroke="#000" stroke-linecap="round" stroke-linejoin="round" stroke-miterlimit="10"/><path d="M349.123,276.105h29.169v0v29.169v0h-29.169v0-29.169v0Z" clip-rule="evenodd" stroke="#000" stroke-linecap="round" stroke-linejoin="round" stroke-miterlimit="10"/><path d="M378.292,276.105h29.169v0v29.169v0h-29.169v0-29.169v0Z" clip-rule="evenodd" stroke="#000" stroke-linecap="round" stroke-linejoin="round" stroke-miterlimit="10"/><path d="M407.461,276.105h29.169v0v29.169v0h-29.169v0-29.169v0Z" clip-rule="evenodd" stroke="#000" stroke-linecap="round" stroke-linejoin="round" stroke-miterlimit="10"/><path d="M436.63,276.105h29.169v0v29.169v0h-29.169v0-29.169v0Z" clip-rule="evenodd" stroke="#000" stroke-linecap="round" stroke-linejoin="round" stroke-miterlimit="10"/><path d="M349.123,305.274h29.169v0v29.169v0h-29.169v0-29.169v0Z" clip-rule="evenodd" stroke="#000" stroke-linecap="round" stroke-linejoin="round" stroke-miterlimit="10"/><path d="M378.292,305.274h29.169v0v29.169v0h-29.169v0-29.169v0Z" clip-rule="evenodd" stroke="#000" stroke-linecap="round" stroke-linejoin="round" stroke-miterlimit="10"/><path d="M407.461,305.274h29.169v0v29.169v0h-29.169v0-29.169v0Z" clip-rule="evenodd" stroke="#000" stroke-linecap="round" stroke-linejoin="round" stroke-miterlimit="10"/><path d="M436.63,305.274h29.169v0v29.169v0h-29.169v0-29.169v0Z" clip-rule="evenodd" stroke="#000" stroke-linecap="round" stroke-linejoin="round" stroke-miterlimit="10"/><path d="M319.954,334.443h29.169v0v29.169v0h-29.169v0-29.169v0Z" clip-rule="evenodd" stroke="#000" stroke-linecap="round" stroke-linejoin="round" stroke-miterlimit="10"/><path d="M349.123,334.443h29.169v0v29.169v0h-29.169v0-29.169v0Z" clip-rule="evenodd" stroke="#000" stroke-linecap="round" stroke-linejoin="round" stroke-miterlimit="10"/><path d="M378.292,334.443h29.169v0v29.169v0h-29.169v0-29.169v0Z" clip-rule="evenodd" stroke="#000" stroke-linecap="round" stroke-linejoin="round" stroke-miterlimit="10"/><path d="M407.461,334.443h29.169v0v29.169v0h-29.169v0-29.169v0Z" clip-rule="evenodd" stroke="#000" stroke-linecap="round" stroke-linejoin="round" stroke-miterlimit="10"/><path d="M436.63,334.443h29.169v0v29.169v0h-29.169v0-29.169v0Z" clip-rule="evenodd" stroke="#000" stroke-linecap="round" stroke-linejoin="round" stroke-miterlimit="10"/><path d="M465.799,334.443h29.169v0v29.169v0h-29.169v0-29.169v0Z" clip-rule="evenodd" stroke="#000" stroke-linecap="round" stroke-linejoin="round" stroke-miterlimit="10"/><path d="M319.954,363.612h29.169v0v29.169v0h-29.169v0-29.169v0Z" clip-rule="evenodd" stroke="#000" stroke-linecap="round" stroke-linejoin="round" stroke-miterlimit="10"/><path d="M349.123,363.612h29.169v0v29.169v0h-29.169v0-29.169v0Z" clip-rule="evenodd" stroke="#000" stroke-linecap="round" stroke-linejoin="round" stroke-miterlimit="10"/><path d="M378.292,363.612h29.169v0v29.169v0h-29.169v0-29.169v0Z" clip-rule="evenodd" stroke="#000" stroke-linecap="round" stroke-linejoin="round" stroke-miterlimit="10"/><path d="M407.461,363.612h29.169v0v29.169v0h-29.169v0-29.169v0Z" clip-rule="evenodd" stroke="#000" stroke-linecap="round" stroke-linejoin="round" stroke-miterlimit="10"/><path d="M436.63,363.612h29.169v0v29.169v0h-29.169v0-29.169v0Z" clip-rule="evenodd" stroke="#000" stroke-linecap="round" stroke-linejoin="round" stroke-miterlimit="10"/><path d="M465.799,363.612h29.169v0v29.169v0h-29.169v0-29.169v0Z" clip-rule="evenodd" stroke="#000" stroke-linecap="round" stroke-linejoin="round" stroke-miterlimit="10"/><path d="M319.954,392.781h29.169v0v29.169v0h-29.169v0-29.169v0Z" clip-rule="evenodd" stroke="#000" stroke-linecap="round" stroke-linejoin="round" stroke-miterlimit="10"/><path d="M349.123,392.781h29.169v0v29.169v0h-29.169v0-29.169v0Z" clip-rule="evenodd" stroke="#000" stroke-linecap="round" stroke-linejoin="round" stroke-miterlimit="10"/><path d="M378.292,392.781h29.169v0v29.169v0h-29.169v0-29.169v0Z" clip-rule="evenodd" stroke="#000" stroke-linecap="round" stroke-linejoin="round" stroke-miterlimit="10"/><path d="M407.461,392.781h29.169v0v29.169v0h-29.169v0-29.169v0Z" clip-rule="evenodd" stroke="#000" stroke-linecap="round" stroke-linejoin="round" stroke-miterlimit="10"/><path d="M436.63,392.781h29.169v0v29.169v0h-29.169v0-29.169v0Z" clip-rule="evenodd" stroke="#000" stroke-linecap="round" stroke-linejoin="round" stroke-miterlimit="10"/><path d="M465.799,392.781h29.169v0v29.169v0h-29.169v0-29.169v0Z" clip-rule="evenodd" stroke="#000" stroke-linecap="round" stroke-linejoin="round" stroke-miterlimit="10"/><path d="M494.968,392.781h29.17v0v29.169v0h-29.17v0-29.169v0Z" clip-rule="evenodd" stroke="#000" stroke-linecap="round" stroke-linejoin="round" stroke-miterlimit="10"/><path d="M524.138,392.781h29.169v0v29.169v0h-29.169v0-29.169v0Z" clip-rule="evenodd" stroke="#000" stroke-linecap="round" stroke-linejoin="round" stroke-miterlimit="10"/><path d="M319.954,421.95h29.169v0v29.17v0h-29.169v0-29.17v0Z" clip-rule="evenodd" stroke="#000" stroke-linecap="round" stroke-linejoin="round" stroke-miterlimit="10"/><path d="M349.123,421.95h29.169v0v29.17v0h-29.169v0-29.17v0Z" clip-rule="evenodd" stroke="#000" stroke-linecap="round" stroke-linejoin="round" stroke-miterlimit="10"/><path d="M378.292,421.95h29.169v0v29.17v0h-29.169v0-29.17v0Z" clip-rule="evenodd" stroke="#000" stroke-linecap="round" stroke-linejoin="round" stroke-miterlimit="10"/><path d="M407.461,421.95h29.169v0v29.17v0h-29.169v0-29.17v0Z" clip-rule="evenodd" stroke="#000" stroke-linecap="round" stroke-linejoin="round" stroke-miterlimit="10"/><path d="M349.123,451.12h29.169v0v29.169v0h-29.169v0-29.169v0Z" clip-rule="evenodd" stroke="#000" stroke-linecap="round" stroke-linejoin="round" stroke-miterlimit="10"/><path d="M378.292,451.12h29.169v0v29.169v0h-29.169v0-29.169v0Z" clip-rule="evenodd" stroke="#000" stroke-linecap="round" stroke-linejoin="round" stroke-miterlimit="10"/><path d="M407.461,451.12h29.169v0v29.169v0h-29.169v0-29.169v0Z" clip-rule="evenodd" stroke="#000" stroke-linecap="round" stroke-linejoin="round" stroke-miterlimit="10"/><path d="M378.292,480.289h29.169v0v29.169v0h-29.169v0-29.169v0Z" clip-rule="evenodd" stroke="#000" stroke-linecap="round" stroke-linejoin="round" stroke-miterlimit="10"/><path d="M407.461,480.289h29.169v0v29.169v0h-29.169v0-29.169v0Z" clip-rule="evenodd" stroke="#000" stroke-linecap="round" stroke-linejoin="round" stroke-miterlimit="10"/><path d="M407.461,509.458h29.169v0v29.169v0h-29.169v0-29.169v0Z" clip-rule="evenodd" stroke="#000" stroke-linecap="round" stroke-linejoin="round" stroke-miterlimit="10"/><path d="M436.63,509.458h29.169v0v29.169v0h-29.169v0-29.169v0Z" clip-rule="evenodd" stroke="#000" stroke-linecap="round" stroke-linejoin="round" stroke-miterlimit="10"/><path d="M378.292,538.627h29.169v0v29.169v0h-29.169v0-29.169v0Z" clip-rule="evenodd" stroke="#000" stroke-linecap="round" stroke-linejoin="round" stroke-miterlimit="10"/><path d="M407.461,538.627h29.169v0v29.169v0h-29.169v0-29.169v0Z" clip-rule="evenodd" stroke="#000" stroke-linecap="round" stroke-linejoin="round" stroke-miterlimit="10"/><path d="M436.63,538.627h29.169v0v29.169v0h-29.169v0-29.169v0Z" clip-rule="evenodd" stroke="#000" stroke-linecap="round" stroke-linejoin="round" stroke-miterlimit="10"/><path d="M465.799,538.627h29.169v0v29.169v0h-29.169v0-29.169v0Z" clip-rule="evenodd" stroke="#000" stroke-linecap="round" stroke-linejoin="round" stroke-miterlimit="10"/><path d="M349.123,567.796h29.169v0v29.169v0h-29.169v0-29.169v0Z" clip-rule="evenodd" stroke="#000" stroke-linecap="round" stroke-linejoin="round" stroke-miterlimit="10"/><path d="M378.292,567.796h29.169v0v29.169v0h-29.169v0-29.169v0Z" clip-rule="evenodd" stroke="#000" stroke-linecap="round" stroke-linejoin="round" stroke-miterlimit="10"/><path d="M407.461,567.796h29.169v0v29.169v0h-29.169v0-29.169v0Z" clip-rule="evenodd" stroke="#000" stroke-linecap="round" stroke-linejoin="round" stroke-miterlimit="10"/><path d="M436.63,567.796h29.169v0v29.169v0h-29.169v0-29.169v0Z" clip-rule="evenodd" stroke="#000" stroke-linecap="round" stroke-linejoin="round" stroke-miterlimit="10"/><path d="M465.799,567.796h29.169v0v29.169v0h-29.169v0-29.169v0Z" clip-rule="evenodd" stroke="#000" stroke-linecap="round" stroke-linejoin="round" stroke-miterlimit="10"/><path d="M261.616,596.965h29.169v0v29.169v0h-29.169v0-29.169v0Z" clip-rule="evenodd" stroke="#000" stroke-linecap="round" stroke-linejoin="round" stroke-miterlimit="10"/><path d="M290.785,596.965h29.169v0v29.169v0h-29.169v0-29.169v0Z" clip-rule="evenodd" stroke="#000" stroke-linecap="round" stroke-linejoin="round" stroke-miterlimit="10"/><path d="M319.954,596.965h29.169v0v29.169v0h-29.169v0-29.169v0Z" clip-rule="evenodd" stroke="#000" stroke-linecap="round" stroke-linejoin="round" stroke-miterlimit="10"/><path d="M349.123,596.965h29.169v0v29.169v0h-29.169v0-29.169v0Z" clip-rule="evenodd" stroke="#000" stroke-linecap="round" stroke-linejoin="round" stroke-miterlimit="10"/><path d="M378.292,596.965h29.169v0v29.169v0h-29.169v0-29.169v0Z" clip-rule="evenodd" stroke="#000" stroke-linecap="round" stroke-linejoin="round" stroke-miterlimit="10"/><path d="M407.461,596.965h29.169v0v29.169v0h-29.169v0-29.169v0Z" clip-rule="evenodd" stroke="#000" stroke-linecap="round" stroke-linejoin="round" stroke-miterlimit="10"/><path d="M436.63,596.965h29.169v0v29.169v0h-29.169v0-29.169v0Z" clip-rule="evenodd" stroke="#000" stroke-linecap="round" stroke-linejoin="round" stroke-miterlimit="10"/><path d="M261.616,626.134h29.169v0v29.169v0h-29.169v0-29.169v0Z" clip-rule="evenodd" stroke="#000" stroke-linecap="round" stroke-linejoin="round" stroke-miterlimit="10"/><path d="M349.123,626.134h29.169v0v29.169v0h-29.169v0-29.169v0Z" clip-rule="evenodd" stroke="#000" stroke-linecap="round" stroke-linejoin="round" stroke-miterlimit="10"/><path d="M349.123,655.303h29.169v0v29.169v0h-29.169v0-29.169v0Z" clip-rule="evenodd" stroke="#000" stroke-linecap="round" stroke-linejoin="round" stroke-miterlimit="10"/><path d="M378.292,655.303h29.169v0v29.169v0h-29.169v0-29.169v0Z" clip-rule="evenodd" stroke="#000" stroke-linecap="round" stroke-linejoin="round" stroke-miterlimit="10"/></g><path d="M465.799,159.428h29.169v0v29.169v0h-29.169v0-29.169v0Z" clip-rule="evenodd" stroke="#000" stroke-linecap="round" stroke-linejoin="round" stroke-miterlimit="10"/><path d="M465.799,159.428h29.169v0v29.169v0h-29.169v0-29.169v0Z" clip-rule="evenodd" stroke="#000" stroke-linecap="round" stroke-linejoin="round" stroke-miterlimit="10"/><path d="M465.799,159.428h29.169v0v29.169v0h-29.169v0-29.169v0Z" clip-rule="evenodd" stroke="#000" stroke-linecap="round" stroke-linejoin="round" stroke-miterlimit="10"/><path d="M465.799,159.428h29.169v0v29.169v0h-29.169v0-29.169v0Z" clip-rule="evenodd" stroke="#000" stroke-linecap="round" stroke-linejoin="round" stroke-miterlimit="10"/><path d="M465.799,159.428h29.169v0v29.169v0h-29.169v0-29.169v0Z" clip-rule="evenodd" stroke="#000" stroke-linecap="round" stroke-linejoin="round" stroke-miterlimit="10"/><path d="M465.799,159.428h29.169v0v29.169v0h-29.169v0-29.169v0Z" clip-rule="evenodd" stroke="#000" stroke-linecap="round" stroke-linejoin="round" stroke-miterlimit="10"/></g><g id="eFb9BEp5fMx186" opacity="0" clip-rule="evenodd"><g clip-rule="evenodd"><path d="M377.975,130.445h29.618v0v29.619v0h-29.618v0-29.619v0Z" clip-rule="evenodd" stroke="#000" stroke-linecap="round" stroke-linejoin="round" stroke-miterlimit="10"/><path d="M407.593,130.445h29.618v0v29.619v0h-29.618v0-29.619v0Z" clip-rule="evenodd" stroke="#000" stroke-linecap="round" stroke-linejoin="round" stroke-miterlimit="10"/><path d="M496.448,130.445h29.618v0v29.619v0h-29.618v0-29.619v0Z" clip-rule="evenodd" stroke="#000" stroke-linecap="round" stroke-linejoin="round" stroke-miterlimit="10"/><path d="M348.357,160.064h29.618v0v29.618v0h-29.618v0-29.618v0Z" clip-rule="evenodd" stroke="#000" stroke-linecap="round" stroke-linejoin="round" stroke-miterlimit="10"/><path d="M377.975,160.064h29.618v0v29.618v0h-29.618v0-29.618v0Z" clip-rule="evenodd" stroke="#000" stroke-linecap="round" stroke-linejoin="round" stroke-miterlimit="10"/><path d="M407.593,160.064h29.618v0v29.618v0h-29.618v0-29.618v0Z" clip-rule="evenodd" stroke="#000" stroke-linecap="round" stroke-linejoin="round" stroke-miterlimit="10"/><path d="M437.211,160.064h29.618v0v29.618v0h-29.618v0-29.618v0Z" clip-rule="evenodd" stroke="#000" stroke-linecap="round" stroke-linejoin="round" stroke-miterlimit="10"/><path d="M466.829,160.064h29.619v0v29.618v0h-29.619v0-29.618v0Z" clip-rule="evenodd" stroke="#000" stroke-linecap="round" stroke-linejoin="round" stroke-miterlimit="10"/><path d="M348.357,189.682h29.618v0v29.618v0h-29.618v0-29.618v0Z" clip-rule="evenodd" stroke="#000" stroke-linecap="round" stroke-linejoin="round" stroke-miterlimit="10"/><path d="M377.975,189.682h29.618v0v29.618v0h-29.618v0-29.618v0Z" clip-rule="evenodd" stroke="#000" stroke-linecap="round" stroke-linejoin="round" stroke-miterlimit="10"/><path d="M407.593,189.682h29.618v0v29.618v0h-29.618v0-29.618v0Z" clip-rule="evenodd" stroke="#000" stroke-linecap="round" stroke-linejoin="round" stroke-miterlimit="10"/><path d="M437.211,189.682h29.618v0v29.618v0h-29.618v0-29.618v0Z" clip-rule="evenodd" stroke="#000" stroke-linecap="round" stroke-linejoin="round" stroke-miterlimit="10"/><path d="M377.975,219.3h29.618v0v29.618v0h-29.618v0-29.618v0Z" clip-rule="evenodd" stroke="#000" stroke-linecap="round" stroke-linejoin="round" stroke-miterlimit="10"/><path d="M407.593,219.3h29.618v0v29.618v0h-29.618v0-29.618v0Z" clip-rule="evenodd" stroke="#000" stroke-linecap="round" stroke-linejoin="round" stroke-miterlimit="10"/><path d="M348.357,248.918h29.618v0v29.619v0h-29.618v0-29.619v0Z" clip-rule="evenodd" stroke="#000" stroke-linecap="round" stroke-linejoin="round" stroke-miterlimit="10"/><path d="M377.975,248.918h29.618v0v29.619v0h-29.618v0-29.619v0Z" clip-rule="evenodd" stroke="#000" stroke-linecap="round" stroke-linejoin="round" stroke-miterlimit="10"/><path d="M407.593,248.918h29.618v0v29.619v0h-29.618v0-29.619v0Z" clip-rule="evenodd" stroke="#000" stroke-linecap="round" stroke-linejoin="round" stroke-miterlimit="10"/><path d="M437.211,248.918h29.618v0v29.619v0h-29.618v0-29.619v0Z" clip-rule="evenodd" stroke="#000" stroke-linecap="round" stroke-linejoin="round" stroke-miterlimit="10"/><path d="M318.738,278.537h29.619v0v29.618v0h-29.619v0-29.618v0Z" clip-rule="evenodd" stroke="#000" stroke-linecap="round" stroke-linejoin="round" stroke-miterlimit="10"/><path d="M348.357,278.537h29.618v0v29.618v0h-29.618v0-29.618v0Z" clip-rule="evenodd" stroke="#000" stroke-linecap="round" stroke-linejoin="round" stroke-miterlimit="10"/><path d="M377.975,278.537h29.618v0v29.618v0h-29.618v0-29.618v0Z" clip-rule="evenodd" stroke="#000" stroke-linecap="round" stroke-linejoin="round" stroke-miterlimit="10"/><path d="M407.593,278.537h29.618v0v29.618v0h-29.618v0-29.618v0Z" clip-rule="evenodd" stroke="#000" stroke-linecap="round" stroke-linejoin="round" stroke-miterlimit="10"/><path d="M437.211,278.537h29.618v0v29.618v0h-29.618v0-29.618v0Z" clip-rule="evenodd" stroke="#000" stroke-linecap="round" stroke-linejoin="round" stroke-miterlimit="10"/><path d="M526.066,278.537h29.618v0v29.618v0h-29.618v0-29.618v0Z" clip-rule="evenodd" stroke="#000" stroke-linecap="round" stroke-linejoin="round" stroke-miterlimit="10"/><path d="M555.684,278.537h29.618v0v29.618v0h-29.618v0-29.618v0Z" clip-rule="evenodd" stroke="#000" stroke-linecap="round" stroke-linejoin="round" stroke-miterlimit="10"/><path d="M289.12,308.155h29.618v0v29.618v0h-29.618v0-29.618v0Z" clip-rule="evenodd" stroke="#000" stroke-linecap="round" stroke-linejoin="round" stroke-miterlimit="10"/><path d="M318.738,308.155h29.619v0v29.618v0h-29.619v0-29.618v0Z" clip-rule="evenodd" stroke="#000" stroke-linecap="round" stroke-linejoin="round" stroke-miterlimit="10"/><path d="M348.357,308.155h29.618v0v29.618v0h-29.618v0-29.618v0Z" clip-rule="evenodd" stroke="#000" stroke-linecap="round" stroke-linejoin="round" stroke-miterlimit="10"/><path d="M377.975,308.155h29.618v0v29.618v0h-29.618v0-29.618v0Z" clip-rule="evenodd" stroke="#000" stroke-linecap="round" stroke-linejoin="round" stroke-miterlimit="10"/><path d="M407.593,308.155h29.618v0v29.618v0h-29.618v0-29.618v0Z" clip-rule="evenodd" stroke="#000" stroke-linecap="round" stroke-linejoin="round" stroke-miterlimit="10"/><path d="M437.211,308.155h29.618v0v29.618v0h-29.618v0-29.618v0Z" clip-rule="evenodd" stroke="#000" stroke-linecap="round" stroke-linejoin="round" stroke-miterlimit="10"/><path d="M466.829,308.155h29.619v0v29.618v0h-29.619v0-29.618v0Z" clip-rule="evenodd" stroke="#000" stroke-linecap="round" stroke-linejoin="round" stroke-miterlimit="10"/><path d="M496.448,308.155h29.618v0v29.618v0h-29.618v0-29.618v0Z" clip-rule="evenodd" stroke="#000" stroke-linecap="round" stroke-linejoin="round" stroke-miterlimit="10"/><path d="M526.066,308.155h29.618v0v29.618v0h-29.618v0-29.618v0Z" clip-rule="evenodd" stroke="#000" stroke-linecap="round" stroke-linejoin="round" stroke-miterlimit="10"/><path d="M289.12,337.773h29.618v0v29.618v0h-29.618v0-29.618v0Z" clip-rule="evenodd" stroke="#000" stroke-linecap="round" stroke-linejoin="round" stroke-miterlimit="10"/><path d="M318.738,337.773h29.619v0v29.618v0h-29.619v0-29.618v0Z" clip-rule="evenodd" stroke="#000" stroke-linecap="round" stroke-linejoin="round" stroke-miterlimit="10"/><path d="M348.357,337.773h29.618v0v29.618v0h-29.618v0-29.618v0Z" clip-rule="evenodd" stroke="#000" stroke-linecap="round" stroke-linejoin="round" stroke-miterlimit="10"/><path d="M377.975,337.773h29.618v0v29.618v0h-29.618v0-29.618v0Z" clip-rule="evenodd" stroke="#000" stroke-linecap="round" stroke-linejoin="round" stroke-miterlimit="10"/><path d="M407.593,337.773h29.618v0v29.618v0h-29.618v0-29.618v0Z" clip-rule="evenodd" stroke="#000" stroke-linecap="round" stroke-linejoin="round" stroke-miterlimit="10"/><path d="M466.829,337.773h29.619v0v29.618v0h-29.619v0-29.618v0Z" clip-rule="evenodd" stroke="#000" stroke-linecap="round" stroke-linejoin="round" stroke-miterlimit="10"/><path d="M496.448,337.773h29.618v0v29.618v0h-29.618v0-29.618v0Z" clip-rule="evenodd" stroke="#000" stroke-linecap="round" stroke-linejoin="round" stroke-miterlimit="10"/><path d="M259.502,367.391h29.618v0v29.618v0h-29.618v0-29.618v0Z" clip-rule="evenodd" stroke="#000" stroke-linecap="round" stroke-linejoin="round" stroke-miterlimit="10"/><path d="M289.12,367.391h29.618v0v29.618v0h-29.618v0-29.618v0Z" clip-rule="evenodd" stroke="#000" stroke-linecap="round" stroke-linejoin="round" stroke-miterlimit="10"/><path d="M348.357,367.391h29.618v0v29.618v0h-29.618v0-29.618v0Z" clip-rule="evenodd" stroke="#000" stroke-linecap="round" stroke-linejoin="round" stroke-miterlimit="10"/><path d="M377.975,367.391h29.618v0v29.618v0h-29.618v0-29.618v0Z" clip-rule="evenodd" stroke="#000" stroke-linecap="round" stroke-linejoin="round" stroke-miterlimit="10"/><path d="M407.593,367.391h29.618v0v29.618v0h-29.618v0-29.618v0Z" clip-rule="evenodd" stroke="#000" stroke-linecap="round" stroke-linejoin="round" stroke-miterlimit="10"/><path d="M289.12,397.009h29.618v0v29.619v0h-29.618v0-29.619v0Z" clip-rule="evenodd" stroke="#000" stroke-linecap="round" stroke-linejoin="round" stroke-miterlimit="10"/><path d="M318.738,397.009h29.619v0v29.619v0h-29.619v0-29.619v0Z" clip-rule="evenodd" stroke="#000" stroke-linecap="round" stroke-linejoin="round" stroke-miterlimit="10"/><path d="M348.357,397.009h29.618v0v29.619v0h-29.618v0-29.619v0Z" clip-rule="evenodd" stroke="#000" stroke-linecap="round" stroke-linejoin="round" stroke-miterlimit="10"/><path d="M377.975,397.009h29.618v0v29.619v0h-29.618v0-29.619v0Z" clip-rule="evenodd" stroke="#000" stroke-linecap="round" stroke-linejoin="round" stroke-miterlimit="10"/><path d="M407.593,397.009h29.618v0v29.619v0h-29.618v0-29.619v0Z" clip-rule="evenodd" stroke="#000" stroke-linecap="round" stroke-linejoin="round" stroke-miterlimit="10"/><path d="M318.738,426.628h29.619v0v29.618v0h-29.619v0-29.618v0Z" clip-rule="evenodd" stroke="#000" stroke-linecap="round" stroke-linejoin="round" stroke-miterlimit="10"/><path d="M348.357,426.628h29.618v0v29.618v0h-29.618v0-29.618v0Z" clip-rule="evenodd" stroke="#000" stroke-linecap="round" stroke-linejoin="round" stroke-miterlimit="10"/><path d="M377.975,426.628h29.618v0v29.618v0h-29.618v0-29.618v0Z" clip-rule="evenodd" stroke="#000" stroke-linecap="round" stroke-linejoin="round" stroke-miterlimit="10"/><path d="M407.593,426.628h29.618v0v29.618v0h-29.618v0-29.618v0Z" clip-rule="evenodd" stroke="#000" stroke-linecap="round" stroke-linejoin="round" stroke-miterlimit="10"/><path d="M348.357,456.246h29.618v0v29.618v0h-29.618v0-29.618v0Z" clip-rule="evenodd" stroke="#000" stroke-linecap="round" stroke-linejoin="round" stroke-miterlimit="10"/><path d="M377.975,456.246h29.618v0v29.618v0h-29.618v0-29.618v0Z" clip-rule="evenodd" stroke="#000" stroke-linecap="round" stroke-linejoin="round" stroke-miterlimit="10"/><path d="M407.593,456.246h29.618v0v29.618v0h-29.618v0-29.618v0Z" clip-rule="evenodd" stroke="#000" stroke-linecap="round" stroke-linejoin="round" stroke-miterlimit="10"/><path d="M437.211,456.246h29.618v0v29.618v0h-29.618v0-29.618v0Z" clip-rule="evenodd" stroke="#000" stroke-linecap="round" stroke-linejoin="round" stroke-miterlimit="10"/><path d="M348.357,485.864h29.618v0v29.618v0h-29.618v0-29.618v0Z" clip-rule="evenodd" stroke="#000" stroke-linecap="round" stroke-linejoin="round" stroke-miterlimit="10"/><path d="M377.975,485.864h29.618v0v29.618v0h-29.618v0-29.618v0Z" clip-rule="evenodd" stroke="#000" stroke-linecap="round" stroke-linejoin="round" stroke-miterlimit="10"/><path d="M407.593,485.864h29.618v0v29.618v0h-29.618v0-29.618v0Z" clip-rule="evenodd" stroke="#000" stroke-linecap="round" stroke-linejoin="round" stroke-miterlimit="10"/><path d="M437.211,485.864h29.618v0v29.618v0h-29.618v0-29.618v0Z" clip-rule="evenodd" stroke="#000" stroke-linecap="round" stroke-linejoin="round" stroke-miterlimit="10"/><path d="M466.829,485.864h29.619v0v29.618v0h-29.619v0-29.618v0Z" clip-rule="evenodd" stroke="#000" stroke-linecap="round" stroke-linejoin="round" stroke-miterlimit="10"/><path d="M318.738,515.482h29.619v0v29.618v0h-29.619v0-29.618v0Z" clip-rule="evenodd" stroke="#000" stroke-linecap="round" stroke-linejoin="round" stroke-miterlimit="10"/><path d="M348.357,515.482h29.618v0v29.618v0h-29.618v0-29.618v0Z" clip-rule="evenodd" stroke="#000" stroke-linecap="round" stroke-linejoin="round" stroke-miterlimit="10"/><path d="M437.211,515.482h29.618v0v29.618v0h-29.618v0-29.618v0Z" clip-rule="evenodd" stroke="#000" stroke-linecap="round" stroke-linejoin="round" stroke-miterlimit="10"/><path d="M466.829,515.482h29.619v0v29.618v0h-29.619v0-29.618v0Z" clip-rule="evenodd" stroke="#000" stroke-linecap="round" stroke-linejoin="round" stroke-miterlimit="10"/><path d="M289.12,545.1h29.618v0v29.619v0h-29.618v0-29.619v0Z" clip-rule="evenodd" stroke="#000" stroke-linecap="round" stroke-linejoin="round" stroke-miterlimit="10"/><path d="M318.738,545.1h29.619v0v29.619v0h-29.619v0-29.619v0Z" clip-rule="evenodd" stroke="#000" stroke-linecap="round" stroke-linejoin="round" stroke-miterlimit="10"/><path d="M348.357,545.1h29.618v0v29.619v0h-29.618v0-29.619v0Z" clip-rule="evenodd" stroke="#000" stroke-linecap="round" stroke-linejoin="round" stroke-miterlimit="10"/><path d="M466.829,545.1h29.619v0v29.619v0h-29.619v0-29.619v0Z" clip-rule="evenodd" stroke="#000" stroke-linecap="round" stroke-linejoin="round" stroke-miterlimit="10"/><path d="M496.448,545.1h29.618v0v29.619v0h-29.618v0-29.619v0Z" clip-rule="evenodd" stroke="#000" stroke-linecap="round" stroke-linejoin="round" stroke-miterlimit="10"/><path d="M259.502,574.719h29.618v0v29.618v0h-29.618v0-29.618v0Z" clip-rule="evenodd" stroke="#000" stroke-linecap="round" stroke-linejoin="round" stroke-miterlimit="10"/><path d="M289.12,574.719h29.618v0v29.618v0h-29.618v0-29.618v0Z" clip-rule="evenodd" stroke="#000" stroke-linecap="round" stroke-linejoin="round" stroke-miterlimit="10"/><path d="M318.738,574.719h29.619v0v29.618v0h-29.619v0-29.618v0Z" clip-rule="evenodd" stroke="#000" stroke-linecap="round" stroke-linejoin="round" stroke-miterlimit="10"/><path d="M496.448,574.719h29.618v0v29.618v0h-29.618v0-29.618v0Z" clip-rule="evenodd" stroke="#000" stroke-linecap="round" stroke-linejoin="round" stroke-miterlimit="10"/><path d="M200.266,604.337h29.618v0v29.618v0h-29.618v0-29.618v0Z" clip-rule="evenodd" stroke="#000" stroke-linecap="round" stroke-linejoin="round" stroke-miterlimit="10"/><path d="M229.884,604.337h29.618v0v29.618v0h-29.618v0-29.618v0Z" clip-rule="evenodd" stroke="#000" stroke-linecap="round" stroke-linejoin="round" stroke-miterlimit="10"/><path d="M259.502,604.337h29.618v0v29.618v0h-29.618v0-29.618v0Z" clip-rule="evenodd" stroke="#000" stroke-linecap="round" stroke-linejoin="round" stroke-miterlimit="10"/><path d="M289.12,604.337h29.618v0v29.618v0h-29.618v0-29.618v0Z" clip-rule="evenodd" stroke="#000" stroke-linecap="round" stroke-linejoin="round" stroke-miterlimit="10"/><path d="M496.448,604.337h29.618v0v29.618v0h-29.618v0-29.618v0Z" clip-rule="evenodd" stroke="#000" stroke-linecap="round" stroke-linejoin="round" stroke-miterlimit="10"/><path d="M526.066,604.337h29.618v0v29.618v0h-29.618v0-29.618v0Z" clip-rule="evenodd" stroke="#000" stroke-linecap="round" stroke-linejoin="round" stroke-miterlimit="10"/><path d="M200.266,633.955h29.618v0v29.618v0h-29.618v0-29.618v0Z" clip-rule="evenodd" stroke="#000" stroke-linecap="round" stroke-linejoin="round" stroke-miterlimit="10"/><path d="M229.884,633.955h29.618v0v29.618v0h-29.618v0-29.618v0Z" clip-rule="evenodd" stroke="#000" stroke-linecap="round" stroke-linejoin="round" stroke-miterlimit="10"/><path d="M259.502,633.955h29.618v0v29.618v0h-29.618v0-29.618v0Z" clip-rule="evenodd" stroke="#000" stroke-linecap="round" stroke-linejoin="round" stroke-miterlimit="10"/><path d="M526.066,633.955h29.618v0v29.618v0h-29.618v0-29.618v0Z" clip-rule="evenodd" stroke="#000" stroke-linecap="round" stroke-linejoin="round" stroke-miterlimit="10"/><path d="M555.684,633.955h29.618v0v29.618v0h-29.618v0-29.618v0Z" clip-rule="evenodd" stroke="#000" stroke-linecap="round" stroke-linejoin="round" stroke-miterlimit="10"/><path d="M200.266,663.573h29.618v0v29.619v0h-29.618v0-29.619v0Z" clip-rule="evenodd" stroke="#000" stroke-linecap="round" stroke-linejoin="round" stroke-miterlimit="10"/><path d="M555.684,663.573h29.618v0v29.619v0h-29.618v0-29.619v0Z" clip-rule="evenodd" stroke="#000" stroke-linecap="round" stroke-linejoin="round" stroke-miterlimit="10"/><path d="M585.302,663.573h29.619v0v29.619v0h-29.619v0-29.619v0Z" clip-rule="evenodd" stroke="#000" stroke-linecap="round" stroke-linejoin="round" stroke-miterlimit="10"/></g></g>
</svg>