<?xml version="1.0" encoding="UTF-8"?>
<svg id="Layer_1" data-name="Layer 1" xmlns="http://www.w3.org/2000/svg" viewBox="0 0 766.96 350.11">
  <defs>
    <style>
      .cls-1 {
        fill: #fff;
      }
    </style>
  </defs>
  <g>
    <path d="M100.94,309.44c2.31-.56,5.52-1.39,8.72-2.09,31.52-6.96,56.45-29.53,66.73-60.17,3-8.95,3.77-18.08,1.28-27.39-5.15-19.24-17.74-36.54-33.62-48.23-4.75-3.5-9.68-6.98-14.19-10.94-2.42-2.13-4.51-4.92-6.23-7.77-2.34-3.86-2.13-7.95-.07-10.28,2.15-2.44,5.3-2.48,9.44.17,3.08,1.97,6.13,4.17,8.98,6.42,7.42,5.85,19.83,8.98,28.89,9.24,9.51.28,22.66-4.14,29.99-10.23,17.3-14.39,16.02-36.19,4.25-52.08-4.24-5.73-10.67-10.6-17.18-14.65-17.14-10.65-37.58-18.13-57.52-18.97-14.4-.6-28.51.18-42.11,6.27-17.57,7.86-30.01,24.77-36.11,42.32-6.49,18.7-4.42,41.49,5.95,58.68,6.29,10.42,14.92,19.85,25.87,25.39,9.66,4.88,20.17,8.72,30.27,12.51,3.23,1.22,6.63,2.23,9.68,3.95,2.6,1.46,4.81,3.8,4.31,7.54-.38,2.84-2.98,5.61-6.52,5.98-3.2.33-6.54.35-9.66-.33-5.64-1.22-11.27-2.65-16.6-4.84-9.66-3.97-19.49-8.62-28.41-13.48-14.72-8.01-31.83-4.16-42.38,8.55-7.23,8.71-10.17,20.38-9.77,31.58.41,11.57,3.78,23.78,10.91,32.57,18.67,23.01,44.23,33.46,75.1,30.27,0,0,0,0,.01,0ZM101.06,327.8c-33.38,4.36-62.79-6.11-84.39-30.8-9.7-11.09-14.26-26.85-16.03-41.4-2.34-19.31,1.49-41.08,14.01-56.51,3.87-4.77,8.66-8,13.08-11.76.93-.79,2.03-1.24,3-1.96,7.18-5.36,9.71-10.19,6.79-23.3-6.47-28.97-4.84-61.91,13.71-87.1,16.04-21.78,40.89-31.81,67.67-31.04,25.96.74,50.34,9.11,72.58,21.13,14.53,7.85,28.87,20.15,36.52,35.29,10.36,20.53,4.05,44.54-13.4,59.08-5.98,4.99-12.77,8.9-20.08,11.94-1.21.5-2.45.96-3.6,1.55-8.8,4.57-10.64,10.3-6.02,19.1,4.53,8.63,9.05,19.41,10.57,29.12,2.68,17.18-2.87,35.35-11.25,50.3-15.46,27.58-42.54,46.36-72.9,53.78-3.58.87-7.17,1.8-10.27,2.61,0,0,0,0,0,0Z"/>
    <path class="cls-1" d="M100.94,309.44c-30.88,3.2-56.43-7.25-75.1-30.27-7.14-8.8-10.5-21-10.91-32.57-.4-11.2,2.55-22.88,9.77-31.58,10.54-12.71,27.66-16.56,42.38-8.55,8.93,4.86,18.75,9.5,28.41,13.48,5.33,2.19,10.96,3.63,16.6,4.84,3.13.67,6.47.66,9.66.33,3.54-.37,6.14-3.14,6.52-5.98.5-3.73-1.71-6.08-4.31-7.54-3.05-1.72-6.45-2.74-9.68-3.95-10.1-3.8-20.61-7.63-30.27-12.51-10.95-5.54-19.59-14.97-25.87-25.39-10.38-17.19-12.44-39.98-5.95-58.68,6.1-17.55,18.54-34.46,36.11-42.32,13.6-6.08,27.72-6.87,42.12-6.27,19.94.84,40.38,8.33,57.52,18.97,6.51,4.04,12.94,8.92,17.18,14.65,11.77,15.89,13.05,37.69-4.25,52.08-7.33,6.1-20.48,10.51-29.99,10.23-9.05-.26-21.47-3.4-28.89-9.24-2.86-2.25-5.91-4.45-8.98-6.42-4.14-2.66-7.3-2.61-9.44-.17-2.06,2.34-2.27,6.43.07,10.28,1.73,2.85,3.81,5.64,6.23,7.77,4.51,3.96,9.44,7.44,14.19,10.94,15.88,11.69,28.47,28.98,33.62,48.23,2.49,9.31,1.73,18.45-1.28,27.39-10.29,30.64-35.21,53.21-66.73,60.17-3.2.71-6.41,1.53-8.72,2.09,0,0,0,0-.01,0Z"/>
  </g>
  <g>
    <path d="M309.91,87.76c-18.21-.15-35.65,1.32-52.97,7.18-17.52,5.93-32.88,18.35-42.71,33.91-14.89,23.58-24.81,48.61-30.06,75.36-3.06,15.59-3.67,30.72-1.14,46.6,2.96,18.61,17.1,34.64,35.1,39.97,18.7,5.53,36.98,6.77,56.29,4.6,13.32-1.5,26.84-5.87,38.69-12.52,10.24-5.75,19.39-14.58,22.39-26.28,1.99-7.75-.37-14.55-7.15-20.33-5.32-4.53-11.99-7.08-19.08-8-11.43-1.48-23.02-2.57-34.54-3.39-8.39-.6-16.89-.18-25.21-.55-2.89-.13-5.92-.9-8.52-2.04-4.74-2.06-5.24-7.18-1.03-10.01,1.98-1.33,4.48-2.42,6.92-2.79,4.67-.72,9.52-1.08,14.28-1.18,10.25-.23,21.97-2.06,31.64-4.79,8.24-2.32,18.96-7.33,24.78-13.97,8.31-9.47,4.26-22.37-6.18-28.11-6.21-3.42-13.42-4.99-20.67-6.17-4.06-.66-8.25-1.46-11.85-3.05-4.91-2.17-5.34-6.49-1.23-9.49,1.77-1.29,4.16-2.22,6.49-2.73,3.37-.74,6.94-1.02,10.46-1.4,17.53-1.85,35.53-5.62,51.59-13.01,5.38-2.47,10.52-5.56,15.19-8.89,6.56-4.68,7.33-14.2-2.1-19.35-3.62-1.98-7.75-3.84-11.79-4.9-12.53-3.3-24.24-4.39-37.57-4.67,0,0,0,0,0,0ZM164.25,240.14c.11-18.54,1.74-36.78,6.62-54.63,7.24-26.47,17.17-50.85,32.98-72.83,16.58-23.06,44.9-35.36,72.84-38.89,9.61-1.21,20.02-2.47,29.8-2.13,23.61.83,46.24,3.4,67.04,13.72,7.27,3.61,12.87,9.11,15.18,15.93,2.34,6.92.13,13.19-4.42,19.1-4.27,5.54-10.34,9.84-17.2,13.38-5.14,2.66-10.52,4.99-15.73,7.47-2.41,1.15-4.89,2.24-7.19,3.5-6.39,3.51-8.38,7.81-6.53,13.84.66,2.17,1.48,4.41,2.48,6.41,5.5,10.95,1.17,22.34-4.42,31.04-1.57,2.44-3.84,4.94-5.41,7.55-3.67,6.08-2.76,9.99,3.24,14.84,2.39,1.93,4.99,3.7,7.48,5.52,14.02,10.27,18.56,29.34,9.76,44.66-10.42,18.14-29.59,30.09-49.37,36.59-12.71,4.18-26.07,6.9-39.51,7.29-20.17.59-42.09-1.44-60.37-10.37-18.98-9.26-30.91-27.12-35.08-47.59-1.15-5.64-1.75-11.45-2.19-14.42,0,0,0,0,.01.01Z"/>
    <path class="cls-1" d="M309.91,87.75c13.34.28,25.04,1.37,37.57,4.67,4.04,1.06,8.17,2.92,11.79,4.9,9.43,5.15,8.66,14.66,2.1,19.35-4.67,3.33-9.81,6.42-15.19,8.89-16.06,7.39-34.06,11.15-51.59,13.01-3.52.37-7.09.65-10.46,1.4-2.33.51-4.71,1.44-6.49,2.73-4.11,3-3.68,7.32,1.23,9.49,3.61,1.59,7.8,2.4,11.85,3.05,7.25,1.17,14.46,2.75,20.67,6.17,10.44,5.74,14.5,18.64,6.18,28.11-5.82,6.63-16.55,11.65-24.78,13.97-9.67,2.73-21.39,4.56-31.64,4.79-4.75.11-9.61.46-14.28,1.18-2.44.38-4.93,1.46-6.92,2.79-4.22,2.82-3.7,7.95,1.03,10.01,2.6,1.13,5.63,1.91,8.52,2.04,8.33.36,16.81-.05,25.21.55,11.52.82,23.11,1.92,34.54,3.39,7.09.92,13.77,3.46,19.08,8,6.77,5.78,9.14,12.58,7.15,20.33-3,11.7-12.15,20.53-22.39,26.28-11.85,6.65-25.38,11.02-38.69,12.52-19.31,2.17-37.59.94-56.29-4.6-18-5.33-32.14-21.35-35.1-39.97-2.53-15.88-1.92-31.01,1.14-46.6,5.25-26.75,15.17-51.78,30.06-75.36,9.83-15.57,25.19-27.99,42.71-33.91,17.32-5.86,34.76-7.33,52.97-7.18,0,0,0,0,0,0Z"/>
  </g>
  <g>
    <path d="M345.5,243.44c.33,4.79.35,8.59.91,12.32.41,2.69,1.4,5.36,2.36,7.96,7.72,20.82,29.88,27.5,50.11,22.92,11.75-2.66,23.33-7.54,33.05-14.39,18.59-13.1,34.45-29.57,45.91-49.67,5.12-8.98,9.66-19.95,11.93-30.1,1.44-6.47-.52-13.22-8.59-16.64-1.81-.77-3.56-1.69-5.2-2.7-5.81-3.59-5.86-8.54.42-11.75,3.09-1.58,6.97-2.4,10.55-2.87,13.19-1.75,26.69-3.18,39.46-7.35,11.26-3.67,22.27-9.01,30.69-17.45,4.21-4.22,6.99-8.96,7.64-14.74,1.02-9.05-3.45-15.39-9.81-20.67-8.65-7.18-19.46-10.81-29.85-14.03-17.58-5.44-36.91-6.95-55.17-7.46-24.37-.67-48.89,1.29-72.89,6.4-13.25,2.82-28.32,6.94-38.26,14.71-10.12,7.91-17.36,21.52-4.22,33.18,5.63,4.99,12.55,9.23,20.35,12.26,7.34,2.85,14.9,5.22,22.12,8.02,2.89,1.12,5.81,2.51,7.97,4.32,5.05,4.23,3.54,8.82-3.33,10.89-1.98.6-4.2.79-6.33.96-9.33.74-17.27,3.71-22.57,9.94-15.73,18.45-26.65,41.38-27.24,65.95,0,0,0,0,0,0ZM459.92,60.97c27.79.35,54.52,2.76,80.87,10.78,12.37,3.76,24.48,10.25,33.29,20.04,9.05,10.06,11.66,24.12,7.04,36.74-3.24,8.87-12.08,17.95-19.63,23.08-7.49,5.09-17.02,10.03-25.76,13.06-2.6.9-5.21,1.98-7.88,2.79-10.22,3.1-16,9.57-17.98,18.52-2.9,13.11-6.93,25.09-12.58,37.3-13.15,28.43-37.44,51.74-64.75,67.5-13.79,7.96-29.95,12.42-45.88,12.97-18.99.65-38.9-7.63-49.65-23.39-5.5-8.07-9.88-20.51-9.96-30.47-.22-29.24,8.84-52.94,25.44-76.49,1.34-1.9,2.61-3.93,3.71-5.96,3.28-6.06,1.46-11.27-4.22-16.01-5.99-5-12.15-9.96-17.46-15.42-6.17-6.35-8.87-13.88-8.37-21.87.73-11.48,8.57-20.83,17.68-27.01,17.9-12.13,40.39-17.68,61.36-21.37,17.91-3.15,36.37-4.15,54.73-4.8,0,0,0,0,0,0Z"/>
    <path class="cls-1" d="M345.5,243.44c.6-24.57,11.52-47.49,27.24-65.95,5.31-6.23,13.24-9.18,22.57-9.94,2.14-.17,4.36-.37,6.33-.96,6.87-2.06,8.39-6.66,3.33-10.89-2.17-1.81-5.09-3.2-7.97-4.32-7.22-2.8-14.78-5.17-22.12-8.02-7.8-3.02-14.72-7.26-20.35-12.26-13.15-11.66-5.9-25.27,4.22-33.18,9.94-7.77,25.02-11.88,38.26-14.71,24.01-5.11,48.53-7.08,72.89-6.4,18.26.51,37.6,2.02,55.17,7.46,10.39,3.21,21.2,6.85,29.85,14.03,6.37,5.28,10.82,11.62,9.81,20.67-.65,5.78-3.43,10.52-7.64,14.74-8.42,8.44-19.43,13.78-30.69,17.45-12.77,4.17-26.27,5.59-39.46,7.35-3.58.48-7.46,1.29-10.55,2.87-6.28,3.21-6.23,8.16-.42,11.75,1.64,1.01,3.39,1.94,5.2,2.7,8.06,3.42,10.03,10.17,8.59,16.64-2.26,10.14-6.8,21.12-11.93,30.1-11.47,20.1-27.32,36.57-45.91,49.67-9.72,6.85-21.3,11.73-33.05,14.39-20.24,4.58-42.39-2.1-50.11-22.92-.96-2.6-1.96-5.26-2.36-7.96-.56-3.73-.59-7.53-.91-12.32,0,0,0,0,0,0Z"/>
  </g>
  <g>
    <path d="M524.75,223.23c-.08,1.59-.16,3.22-.23,4.78-.47,11.44,2.23,22.23,6.83,32.03,9.6,20.46,38.45,28.5,58.04,14.27,6.32-4.59,11.86-10.21,15.85-17.03,10.31-17.59,19.08-36.06,26.1-55.17,1.05-2.85,2.39-5.79,4.12-8.31,1.63-2.38,3.98-4.3,7.03-3.63,2.88.62,4.97,3.32,5.02,7.18.04,3.29-.19,6.72-.87,9.93-3.3,15.66-5.64,31.2-5.58,47.04.04,11.77,3.3,24,10.34,33.78,7.82,10.86,20.68,18.79,34.48,15.87,8.61-1.82,17.48-9.64,22.37-16.44,7.22-10.04,13.19-21.74,17.85-33.4,13.35-33.42,21.18-68.68,24.88-104.2,2.28-21.89,3.12-44.01.81-65.88-1.31-12.42-4.61-25.6-11.36-36.29-9.82-15.57-25.42-5.57-34.32,2.81-5.41,5.1-9.96,12.52-14.22,19.42-9.08,14.73-16.35,31.36-18.73,48.55-.96,6.96-3.1,14.05-5.11,20.91-.9,3.08-2.54,6.05-4.23,8.76-1.66,2.66-4.07,4.47-6.97,3.88-3.15-.65-4.32-3.37-4.53-6.68-.1-1.52,0-3.14.27-4.69.57-3.13,1.25-6.32,2.01-9.39,2.84-11.35,4.65-22.22,4.83-33.76.15-9.6-2.06-19.32-6.67-26.52-4.93-7.71-17.49-12.05-26.17-9.93-6.77,1.65-14.09,4.98-20.65,9.47-13.85,9.49-25.61,22.31-35.89,35.54-13.02,16.76-23.42,35.93-30.76,55.66-7.46,20.06-12.35,39.92-14.55,61.43,0,0,0,0,0,0ZM506.39,223.39c2.19-19.68,6.56-38.32,12.64-56.96,8.22-25.18,21.35-48.58,37.28-69.06,9.43-12.13,20.42-23.3,32.3-33.33,9.75-8.24,21.65-15.83,33.65-18.88,13.14-3.34,26.93-4.1,38.4,6.16,2.31,2.06,4.38,4.49,6.68,6.58,5.07,4.62,10.28,3.97,16.02-2.61,4.5-5.15,8.81-10.87,13.09-16.17,5.68-7.03,14.74-14.55,22.94-18.29,11.53-5.25,24.14-1.52,31.17,9.08,9.5,14.31,12.76,31.68,14.67,48.05,2.77,23.76,1.84,48.64-.43,72.74-3.82,40.51-12.03,81.55-27.54,118.74-5.44,13.04-12.41,25.96-21.39,37.11-9.19,11.42-23.6,18.93-38.29,17.29-12.4-1.39-23.82-8.38-32.57-17.26-6-6.09-10.26-13.36-14.26-20.75-1.29-2.38-2.65-4.78-4.3-6.87-3.73-4.71-7.33-5.45-12.18-2.3-3.53,2.3-6.76,5.13-9.93,7.92-5.59,4.93-11.84,8.82-18.99,11.06-18.72,5.88-40.39,1.91-55.23-10.64-12.2-10.32-20.39-26.29-22.5-42.26-.84-6.38-.84-12.92-1.23-19.37,0,0,0,.01,0,.02Z"/>
    <path class="cls-1" d="M524.75,223.23c2.2-21.51,7.09-41.37,14.55-61.43,7.34-19.74,17.74-38.9,30.76-55.66,10.28-13.23,22.03-26.05,35.89-35.54,6.56-4.49,13.88-7.82,20.64-9.47,8.68-2.12,21.24,2.21,26.17,9.93,4.6,7.2,6.82,16.93,6.67,26.52-.18,11.54-1.98,22.4-4.83,33.76-.77,3.07-1.45,6.26-2.01,9.39-.28,1.55-.37,3.16-.27,4.69.22,3.31,1.39,6.03,4.53,6.68,2.9.59,5.31-1.22,6.97-3.88,1.69-2.71,3.33-5.69,4.23-8.76,2.01-6.86,4.15-13.95,5.11-20.91,2.38-17.19,9.66-33.83,18.73-48.55,4.25-6.91,8.8-14.33,14.22-19.42,8.9-8.38,24.49-18.38,34.31-2.81,6.75,10.7,10.05,23.88,11.36,36.29,2.31,21.86,1.47,43.98-.81,65.88-3.7,35.52-11.53,70.78-24.88,104.2-4.65,11.65-10.63,23.36-17.85,33.4-4.89,6.81-13.76,14.62-22.37,16.45-13.8,2.92-26.66-5.01-34.48-15.87-7.04-9.78-10.3-22.01-10.34-33.78-.05-15.84,2.27-31.4,5.58-47.04.68-3.21.91-6.64.87-9.93-.05-3.87-2.14-6.56-5.02-7.18-3.06-.66-5.4,1.26-7.03,3.63-1.73,2.52-3.06,5.46-4.11,8.31-7.04,19.11-15.78,37.58-26.1,55.17-4,6.82-9.54,12.43-15.85,17.03-19.58,14.24-48.44,6.2-58.04-14.27-4.6-9.8-7.28-20.61-6.83-32.03.06-1.56.15-3.18.23-4.78,0,0,0,0,0,0Z"/>
  </g>
</svg>